ChangaOne_Italic.otf.ufo
<glyph name="exclam" format="1">
  <advance width="330"/>
  <unicode hex="0021"/>
  <outline>
    <contour>
      <point x="221" y="170" type="line" name="hr00"/>
      <point x="326" y="598" type="line" smooth="yes"/>
      <point x="327" y="600" smooth="yes"/>
      <point x="327" y="603" smooth="yes"/>
      <point x="327" y="605" type="curve" smooth="yes"/>
      <point x="327" y="617" smooth="yes"/>
      <point x="318" y="625" smooth="yes"/>
      <point x="296" y="625" type="curve" smooth="yes"/>
      <point x="148" y="625" type="line" smooth="yes"/>
      <point x="120" y="625" smooth="yes"/>
      <point x="109" y="613" smooth="yes"/>
      <point x="107" y="598" type="curve" smooth="yes"/>
      <point x="60" y="170" type="line"/>
    </contour>
    <contour>
      <point x="14" y="44" type="curve" smooth="yes"/>
      <point x="14" y="8" smooth="yes"/>
      <point x="37" y="-7" smooth="yes"/>
      <point x="110" y="-7" type="curve" smooth="yes"/>
      <point x="203" y="-7" smooth="yes"/>
      <point x="232" y="22" smooth="yes"/>
      <point x="232" y="96" type="curve" smooth="yes"/>
      <point x="232" y="132" smooth="yes"/>
      <point x="209" y="149" smooth="yes"/>
      <point x="138" y="149" type="curve" smooth="yes"/>
      <point x="58" y="149" smooth="yes"/>
      <point x="14" y="122" smooth="yes"/>
    </contour>
  </outline>
</glyph>
<glyph name="quotedbl" format="1">
  <advance width="500"/>
  <unicode hex="0022"/>
  <outline>
    <contour>
      <point x="171" y="300" type="line" name="hr00"/>
      <point x="256" y="535" smooth="yes"/>
      <point x="264" y="553" smooth="yes"/>
      <point x="266" y="565" type="curve" smooth="yes"/>
      <point x="276" y="623" type="line" smooth="yes"/>
      <point x="276" y="625" smooth="yes"/>
      <point x="277" y="627" smooth="yes"/>
      <point x="277" y="629" type="curve" smooth="yes"/>
      <point x="277" y="641" smooth="yes"/>
      <point x="269" y="650" smooth="yes"/>
      <point x="246" y="650" type="curve" smooth="yes"/>
      <point x="126" y="650" type="line" smooth="yes"/>
      <point x="98" y="650" smooth="yes"/>
      <point x="88" y="638" smooth="yes"/>
      <point x="86" y="623" type="curve" smooth="yes"/>
      <point x="79" y="584" smooth="yes"/>
      <point x="76" y="558" smooth="yes"/>
      <point x="76" y="531" type="curve" smooth="yes"/>
      <point x="76" y="300" type="line"/>
    </contour>
    <contour>
      <point x="409" y="300" type="line"/>
      <point x="494" y="535" smooth="yes"/>
      <point x="502" y="553" smooth="yes"/>
      <point x="504" y="565" type="curve" smooth="yes"/>
      <point x="514" y="623" type="line" smooth="yes"/>
      <point x="514" y="625" smooth="yes"/>
      <point x="515" y="627" smooth="yes"/>
      <point x="515" y="629" type="curve" smooth="yes"/>
      <point x="515" y="641" smooth="yes"/>
      <point x="507" y="650" smooth="yes"/>
      <point x="484" y="650" type="curve" smooth="yes"/>
      <point x="364" y="650" type="line" smooth="yes"/>
      <point x="336" y="650" smooth="yes"/>
      <point x="326" y="638" smooth="yes"/>
      <point x="324" y="623" type="curve" smooth="yes"/>
      <point x="317" y="584" smooth="yes"/>
      <point x="314" y="558" smooth="yes"/>
      <point x="314" y="531" type="curve" smooth="yes"/>
      <point x="314" y="300" type="line"/>
    </contour>
  </outline>
</glyph>
<glyph name="dollar" format="1">
  <advance width="551"/>
  <unicode hex="0024"/>
  <outline>
    <contour>
      <point x="300" y="718" type="line" name="hr00"/>
      <point x="282" y="635" type="line"/>
      <point x="136" y="611" smooth="yes"/>
      <point x="76" y="489" smooth="yes"/>
      <point x="76" y="357" type="curve" smooth="yes"/>
      <point x="76" y="282" smooth="yes"/>
      <point x="110" y="230" smooth="yes"/>
      <point x="232" y="215" type="curve" smooth="yes"/>
      <point x="290" y="208" type="line"/>
      <point x="283" y="166" type="line"/>
      <point x="258" y="163" smooth="yes"/>
      <point x="236" y="162" smooth="yes"/>
      <point x="214" y="162" type="curve" smooth="yes"/>
      <point x="160" y="162"/>
      <point x="100" y="170"/>
      <point x="53" y="184" type="curve"/>
      <point x="-3" y="25" type="line"/>
      <point x="43" y="12"/>
      <point x="94" y="5"/>
      <point x="146" y="1" type="curve"/>
      <point x="124" y="-100" type="line"/>
      <point x="247" y="-100" type="line"/>
      <point x="268" y="1" type="line"/>
      <point x="424" y="6" smooth="yes"/>
      <point x="493" y="140" smooth="yes"/>
      <point x="493" y="270" type="curve" smooth="yes"/>
      <point x="493" y="344" smooth="yes"/>
      <point x="454" y="392" smooth="yes"/>
      <point x="329" y="407" type="curve" smooth="yes"/>
      <point x="270" y="414" type="line"/>
      <point x="278" y="453" smooth="yes"/>
      <point x="290" y="467" smooth="yes"/>
      <point x="336" y="467" type="curve" smooth="yes"/>
      <point x="479" y="467" type="line"/>
      <point x="534" y="622" type="line"/>
      <point x="497" y="629"/>
      <point x="446" y="635"/>
      <point x="404" y="638" type="curve"/>
      <point x="420" y="718" type="line"/>
    </contour>
  </outline>
</glyph>
<glyph name="ampersand" format="1">
  <advance width="664"/>
  <unicode hex="0026"/>
  <outline>
    <contour>
      <point x="363" y="-115" type="line"/>
      <point x="483" y="-100" type="line"/>
      <point x="543" y="242" type="line"/>
      <point x="609" y="242" type="line"/>
      <point x="655" y="382" type="line"/>
      <point x="307" y="382" type="line"/>
      <point x="313" y="415" type="line" smooth="yes"/>
      <point x="319" y="450" smooth="yes"/>
      <point x="339" y="457" smooth="yes"/>
      <point x="378" y="457" type="curve" smooth="yes"/>
      <point x="462" y="457" type="line"/>
      <point x="516" y="604" type="line"/>
      <point x="464" y="616" smooth="yes"/>
      <point x="409" y="625" smooth="yes"/>
      <point x="333" y="625" type="curve" smooth="yes"/>
      <point x="232" y="625"/>
      <point x="150" y="587"/>
      <point x="116" y="396" type="curve"/>
      <point x="192" y="367" type="line"/>
      <point x="192" y="363" type="line"/>
      <point x="69" y="345" smooth="yes"/>
      <point x="35" y="211" smooth="yes"/>
      <point x="35" y="119" type="curve" smooth="yes" name="hr01"/>
      <point x="35" y="18" smooth="yes"/>
      <point x="94" y="-15" smooth="yes"/>
      <point x="173" y="-15" type="curve" smooth="yes"/>
      <point x="231" y="-15"/>
      <point x="299" y="2"/>
      <point x="363" y="21" type="curve" name="hr02"/>
    </contour>
    <contour>
      <point x="287" y="115" type="curve" smooth="yes"/>
      <point x="251" y="115" smooth="yes"/>
      <point x="229" y="131" smooth="yes"/>
      <point x="229" y="164" type="curve" smooth="yes"/>
      <point x="229" y="169" smooth="yes"/>
      <point x="230" y="175" smooth="yes"/>
      <point x="231" y="181" type="curve" smooth="yes"/>
      <point x="242" y="242" type="line"/>
      <point x="364" y="242" type="line"/>
      <point x="364" y="121" type="line"/>
      <point x="337" y="116" smooth="yes"/>
      <point x="310" y="115" smooth="yes"/>
    </contour>
  </outline>
</glyph>
<glyph name="quotesingle" format="1">
  <advance width="262"/>
  <unicode hex="0027"/>
  <outline>
    <contour>
      <point x="171" y="300" type="line" name="hr00"/>
      <point x="256" y="535" smooth="yes"/>
      <point x="264" y="553" smooth="yes"/>
      <point x="266" y="565" type="curve" smooth="yes"/>
      <point x="276" y="623" type="line" smooth="yes"/>
      <point x="276" y="625" smooth="yes"/>
      <point x="277" y="627" smooth="yes"/>
      <point x="277" y="629" type="curve" smooth="yes"/>
      <point x="277" y="641" smooth="yes"/>
      <point x="269" y="650" smooth="yes"/>
      <point x="246" y="650" type="curve" smooth="yes"/>
      <point x="126" y="650" type="line" smooth="yes"/>
      <point x="98" y="650" smooth="yes"/>
      <point x="88" y="638" smooth="yes"/>
      <point x="86" y="623" type="curve" smooth="yes"/>
      <point x="79" y="584" smooth="yes"/>
      <point x="76" y="558" smooth="yes"/>
      <point x="76" y="531" type="curve" smooth="yes"/>
      <point x="76" y="300" type="line"/>
    </contour>
  </outline>
</glyph>
<glyph name="parenleft" format="1">
  <advance width="314"/>
  <unicode hex="0028"/>
  <outline>
    <contour>
      <point x="320" y="690" type="line" name="hr00"/>
      <point x="93" y="660" smooth="yes"/>
      <point x="33" y="428" smooth="yes"/>
      <point x="12" y="312" type="curve" smooth="yes"/>
      <point x="6" y="277" smooth="yes"/>
      <point x="0" y="233" smooth="yes"/>
      <point x="0" y="186" type="curve" smooth="yes"/>
      <point x="0" y="76"/>
      <point x="34" y="-45"/>
      <point x="187" y="-66" type="curve"/>
      <point x="222" y="81" type="line"/>
      <point x="200" y="92" smooth="yes"/>
      <point x="170" y="106" smooth="yes"/>
      <point x="170" y="192" type="curve" smooth="yes"/>
      <point x="170" y="222" smooth="yes"/>
      <point x="174" y="261" smooth="yes"/>
      <point x="183" y="312" type="curve" smooth="yes"/>
      <point x="216" y="501"/>
      <point x="268" y="528"/>
      <point x="304" y="543" type="curve"/>
    </contour>
  </outline>
</glyph>
<glyph name="parenright" format="1">
  <advance width="331"/>
  <unicode hex="0029"/>
  <outline>
    <contour>
      <point x="82" y="533" type="line" name="hr00"/>
      <point x="105" y="522" smooth="yes"/>
      <point x="134" y="504" smooth="yes"/>
      <point x="134" y="420" type="curve" smooth="yes"/>
      <point x="134" y="390" smooth="yes"/>
      <point x="130" y="352" smooth="yes"/>
      <point x="121" y="302" type="curve" smooth="yes"/>
      <point x="87" y="107"/>
      <point x="37" y="86"/>
      <point x="1" y="71" type="curve"/>
      <point x="-15" y="-76" type="line"/>
      <point x="212" y="-46" smooth="yes"/>
      <point x="272" y="186" smooth="yes"/>
      <point x="292" y="302" type="curve" smooth="yes"/>
      <point x="298" y="337" smooth="yes"/>
      <point x="305" y="382" smooth="yes"/>
      <point x="305" y="429" type="curve" smooth="yes"/>
      <point x="305" y="539"/>
      <point x="270" y="659"/>
      <point x="118" y="680" type="curve"/>
    </contour>
  </outline>
</glyph>
<glyph name="asterisk" format="1">
  <advance width="536"/>
  <unicode hex="002A"/>
  <outline>
    <contour>
      <point x="357" y="580" type="line"/>
      <point x="367" y="640" smooth="yes"/>
      <point x="367" y="642" smooth="yes"/>
      <point x="367" y="644" type="curve" smooth="yes"/>
      <point x="367" y="659" smooth="yes"/>
      <point x="356" y="665" smooth="yes"/>
      <point x="337" y="665" type="curve" smooth="yes"/>
      <point x="265" y="665" type="line" smooth="yes"/>
      <point x="234" y="665" smooth="yes"/>
      <point x="226" y="653" smooth="yes"/>
      <point x="224" y="638" type="curve" smooth="yes"/>
      <point x="214" y="580" type="line"/>
      <point x="226" y="492" type="line"/>
      <point x="166" y="547" type="line"/>
      <point x="115" y="565" type="line" smooth="yes"/>
      <point x="111" y="566" smooth="yes"/>
      <point x="108" y="567" smooth="yes"/>
      <point x="105" y="567" type="curve" smooth="yes"/>
      <point x="91" y="567" smooth="yes"/>
      <point x="83" y="555" smooth="yes"/>
      <point x="75" y="538" type="curve" smooth="yes"/>
      <point x="41" y="466" type="line" smooth="yes"/>
      <point x="36" y="456" smooth="yes"/>
      <point x="33" y="448" smooth="yes"/>
      <point x="33" y="440" type="curve" smooth="yes"/>
      <point x="33" y="430" smooth="yes"/>
      <point x="38" y="425" smooth="yes"/>
      <point x="47" y="422" type="curve" smooth="yes"/>
      <point x="96" y="404" type="line"/>
      <point x="182" y="404" type="line"/>
      <point x="103" y="351" type="line"/>
      <point x="62" y="304" type="line" smooth="yes"/>
      <point x="56" y="298" smooth="yes"/>
      <point x="53" y="292" smooth="yes"/>
      <point x="53" y="286" type="curve" smooth="yes"/>
      <point x="53" y="278" smooth="yes"/>
      <point x="57" y="269" smooth="yes"/>
      <point x="68" y="260" type="curve" smooth="yes"/>
      <point x="119" y="216" type="line" smooth="yes"/>
      <point x="128" y="208" smooth="yes"/>
      <point x="136" y="205" smooth="yes"/>
      <point x="143" y="205" type="curve" smooth="yes"/>
      <point x="150" y="205" smooth="yes"/>
      <point x="157" y="209" smooth="yes"/>
      <point x="163" y="216" type="curve" smooth="yes"/>
      <point x="203" y="262" type="line"/>
      <point x="242" y="345" type="line"/>
      <point x="249" y="263" type="line"/>
      <point x="280" y="215" type="line" smooth="yes"/>
      <point x="285" y="207" smooth="yes"/>
      <point x="290" y="204" smooth="yes"/>
      <point x="298" y="204" type="curve" smooth="yes" name="hr01"/>
      <point x="305" y="204" smooth="yes"/>
      <point x="314" y="208" smooth="yes"/>
      <point x="325" y="216" type="curve" smooth="yes"/>
      <point x="389" y="260" type="line" smooth="yes"/>
      <point x="407" y="272" smooth="yes"/>
      <point x="413" y="282" smooth="yes"/>
      <point x="413" y="292" type="curve" smooth="yes"/>
      <point x="413" y="296" smooth="yes"/>
      <point x="413" y="300" smooth="yes"/>
      <point x="411" y="304" type="curve" smooth="yes"/>
      <point x="387" y="351" type="line"/>
      <point x="323" y="406" type="line"/>
      <point x="413" y="406" type="line"/>
      <point x="470" y="422" type="line" smooth="yes"/>
      <point x="486" y="426" smooth="yes"/>
      <point x="491" y="440" smooth="yes"/>
      <point x="491" y="453" type="curve" smooth="yes"/>
      <point x="491" y="458" smooth="yes"/>
      <point x="491" y="462" smooth="yes"/>
      <point x="490" y="467" type="curve" smooth="yes"/>
      <point x="480" y="538" type="line" smooth="yes"/>
      <point x="477" y="555" smooth="yes"/>
      <point x="470" y="565" smooth="yes"/>
      <point x="457" y="565" type="curve" smooth="yes"/>
      <point x="455" y="565" smooth="yes"/>
      <point x="452" y="565" smooth="yes"/>
      <point x="449" y="564" type="curve" smooth="yes"/>
      <point x="395" y="548" type="line"/>
      <point x="313" y="491" type="line"/>
    </contour>
  </outline>
</glyph>
<glyph name="comma" format="1">
  <advance width="277"/>
  <unicode hex="002C"/>
  <outline>
    <contour>
      <point x="37" y="99" type="curve" smooth="yes" name="hr00"/>
      <point x="35" y="89" smooth="yes"/>
      <point x="34" y="80" smooth="yes"/>
      <point x="34" y="72" type="curve" smooth="yes"/>
      <point x="34" y="44"/>
      <point x="46" y="28"/>
      <point x="80" y="22" type="curve"/>
      <point x="24" y="-122" type="line"/>
      <point x="104" y="-151" type="line"/>
      <point x="192" y="-15" type="line" smooth="yes"/>
      <point x="225" y="36" smooth="yes"/>
      <point x="248" y="84" smooth="yes"/>
      <point x="248" y="141" type="curve" smooth="yes"/>
      <point x="248" y="187" smooth="yes"/>
      <point x="226" y="206" smooth="yes"/>
      <point x="160" y="206" type="curve" smooth="yes"/>
      <point x="75" y="206" smooth="yes"/>
      <point x="50" y="175" smooth="yes"/>
    </contour>
  </outline>
</glyph>
<glyph name="hyphen" format="1">
  <advance width="350"/>
  <unicode hex="002D"/>
  <outline>
    <contour>
      <point x="20" y="200" type="line" name="hr00"/>
      <point x="239" y="200" type="line" smooth="yes"/>
      <point x="277" y="200" smooth="yes"/>
      <point x="305" y="203" smooth="yes"/>
      <point x="312" y="242" type="curve" smooth="yes"/>
      <point x="331" y="350" type="line"/>
      <point x="111" y="350" type="line" smooth="yes"/>
      <point x="73" y="350" smooth="yes"/>
      <point x="46" y="347" smooth="yes"/>
      <point x="39" y="308" type="curve" smooth="yes"/>
    </contour>
  </outline>
</glyph>
<glyph name="period" format="1">
  <advance width="267"/>
  <unicode hex="002E"/>
  <outline>
    <contour>
      <point x="35" y="99" type="curve" smooth="yes" name="hr00"/>
      <point x="32" y="83" smooth="yes"/>
      <point x="31" y="69" smooth="yes"/>
      <point x="31" y="57" type="curve" smooth="yes"/>
      <point x="31" y="12" smooth="yes"/>
      <point x="53" y="-6" smooth="yes"/>
      <point x="120" y="-6" type="curve" smooth="yes"/>
      <point x="204" y="-6" smooth="yes"/>
      <point x="229" y="23" smooth="yes"/>
      <point x="242" y="99" type="curve" smooth="yes"/>
      <point x="245" y="115" smooth="yes"/>
      <point x="246" y="129" smooth="yes"/>
      <point x="246" y="141" type="curve" smooth="yes"/>
      <point x="246" y="187" smooth="yes"/>
      <point x="224" y="206" smooth="yes"/>
      <point x="158" y="206" type="curve" smooth="yes"/>
      <point x="73" y="206" smooth="yes"/>
      <point x="48" y="175" smooth="yes"/>
    </contour>
  </outline>
</glyph>
<glyph name="slash" format="1">
  <advance width="503"/>
  <unicode hex="002F"/>
  <outline>
    <contour>
      <point x="483" y="665" type="line" name="hr00"/>
      <point x="452" y="665" type="line" smooth="yes"/>
      <point x="424" y="665" smooth="yes"/>
      <point x="418" y="656" smooth="yes"/>
      <point x="409" y="640" type="curve" smooth="yes"/>
      <point x="20" y="-40" type="line"/>
      <point x="51" y="-40" type="line" smooth="yes"/>
      <point x="79" y="-40" smooth="yes"/>
      <point x="85" y="-31" smooth="yes"/>
      <point x="94" y="-15" type="curve" smooth="yes"/>
    </contour>
  </outline>
</glyph>
<glyph name="zero" format="1">
  <advance width="600"/>
  <unicode hex="0030"/>
  <outline>
    <contour>
      <point x="46" y="312" type="curve" smooth="yes" name="hr00"/>
      <point x="36" y="259" smooth="yes"/>
      <point x="31" y="212" smooth="yes"/>
      <point x="31" y="171" type="curve" smooth="yes"/>
      <point x="31" y="48" smooth="yes"/>
      <point x="84" y="-15" smooth="yes"/>
      <point x="243" y="-15" type="curve" smooth="yes"/>
      <point x="454" y="-15" smooth="yes"/>
      <point x="516" y="96" smooth="yes"/>
      <point x="555" y="312" type="curve" smooth="yes"/>
      <point x="564" y="365" smooth="yes"/>
      <point x="570" y="412" smooth="yes"/>
      <point x="570" y="453" type="curve" smooth="yes"/>
      <point x="570" y="577" smooth="yes"/>
      <point x="517" y="640" smooth="yes"/>
      <point x="358" y="640" type="curve" smooth="yes"/>
      <point x="147" y="640" smooth="yes"/>
      <point x="84" y="529" smooth="yes"/>
    </contour>
    <contour>
      <point x="262" y="426" type="line" smooth="yes"/>
      <point x="271" y="475" smooth="yes"/>
      <point x="291" y="479" smooth="yes"/>
      <point x="343" y="479" type="curve" smooth="yes"/>
      <point x="388" y="479" type="line"/>
      <point x="339" y="199" type="line" smooth="yes"/>
      <point x="330" y="150" smooth="yes"/>
      <point x="303" y="146" smooth="yes"/>
      <point x="252" y="146" type="curve" smooth="yes"/>
      <point x="212" y="146" type="line"/>
    </contour>
  </outline>
</glyph>
<glyph name="one" format="1">
  <advance width="600"/>
  <unicode hex="0031"/>
  <outline>
    <contour>
      <point x="501" y="0" type="line" name="hr00"/>
      <point x="529" y="160" type="line"/>
      <point x="422" y="160" type="line"/>
      <point x="504" y="625" type="line"/>
      <point x="354" y="625" type="line"/>
      <point x="127" y="573" type="line"/>
      <point x="98" y="413" type="line"/>
      <point x="269" y="425" type="line"/>
      <point x="223" y="160" type="line"/>
      <point x="54" y="160" type="line"/>
      <point x="26" y="0" type="line"/>
    </contour>
  </outline>
</glyph>
<glyph name="two" format="1">
  <advance width="600"/>
  <unicode hex="0032"/>
  <outline>
    <contour>
      <point x="113" y="453" type="line" name="hr00"/>
      <point x="172" y="467" smooth="yes"/>
      <point x="233" y="475" smooth="yes"/>
      <point x="293" y="475" type="curve" smooth="yes"/>
      <point x="320" y="475"/>
      <point x="346" y="473"/>
      <point x="371" y="470" type="curve"/>
      <point x="362" y="416" type="line"/>
      <point x="169" y="328" smooth="yes"/>
      <point x="49" y="300" smooth="yes"/>
      <point x="18" y="125" type="curve" smooth="yes"/>
      <point x="-4" y="0" type="line"/>
      <point x="484" y="0" type="line"/>
      <point x="512" y="160" type="line"/>
      <point x="244" y="160" type="line"/>
      <point x="249" y="188" type="line"/>
      <point x="436" y="252" smooth="yes"/>
      <point x="576" y="296" smooth="yes"/>
      <point x="576" y="500" type="curve" smooth="yes"/>
      <point x="576" y="627" smooth="yes"/>
      <point x="481" y="640" smooth="yes"/>
      <point x="360" y="640" type="curve" smooth="yes"/>
      <point x="281" y="640"/>
      <point x="192" y="625"/>
      <point x="116" y="602" type="curve"/>
    </contour>
  </outline>
</glyph>
<glyph name="three" format="1">
  <advance width="600"/>
  <unicode hex="0033"/>
  <outline>
    <contour>
      <point x="364" y="405" type="line" name="hr00"/>
      <point x="196" y="385" type="line"/>
      <point x="171" y="240" type="line"/>
      <point x="332" y="223" type="line"/>
      <point x="321" y="159" type="line"/>
      <point x="290" y="155" smooth="yes"/>
      <point x="260" y="153" smooth="yes"/>
      <point x="230" y="153" type="curve" smooth="yes"/>
      <point x="168" y="153"/>
      <point x="119" y="161"/>
      <point x="63" y="176" type="curve"/>
      <point x="7" y="11" type="line"/>
      <point x="77" y="-7" smooth="yes"/>
      <point x="143" y="-15" smooth="yes"/>
      <point x="222" y="-15" type="curve" smooth="yes"/>
      <point x="390" y="-15" smooth="yes"/>
      <point x="532" y="33" smooth="yes"/>
      <point x="532" y="219" type="curve" smooth="yes"/>
      <point x="532" y="270"/>
      <point x="510" y="308"/>
      <point x="461" y="332" type="curve"/>
      <point x="462" y="337" type="line"/>
      <point x="525" y="369" smooth="yes"/>
      <point x="570" y="431" smooth="yes"/>
      <point x="570" y="522" type="curve" smooth="yes"/>
      <point x="570" y="627" smooth="yes"/>
      <point x="476" y="640" smooth="yes"/>
      <point x="353" y="640" type="curve" smooth="yes"/>
      <point x="274" y="640"/>
      <point x="200" y="626"/>
      <point x="123" y="602" type="curve"/>
      <point x="122" y="454" type="line"/>
      <point x="183" y="467" smooth="yes"/>
      <point x="224" y="475" smooth="yes"/>
      <point x="293" y="475" type="curve" smooth="yes"/>
      <point x="316" y="475"/>
      <point x="353" y="474"/>
      <point x="375" y="470" type="curve"/>
    </contour>
  </outline>
</glyph>
<glyph name="four" format="1">
  <advance width="600"/>
  <unicode hex="0034"/>
  <outline>
    <contour>
      <point x="269" y="0" type="line" name="hr00"/>
      <point x="459" y="0" type="line"/>
      <point x="476" y="100" type="line"/>
      <point x="538" y="100" type="line"/>
      <point x="568" y="272" type="line"/>
      <point x="506" y="272" type="line"/>
      <point x="569" y="625" type="line"/>
      <point x="232" y="625" type="line"/>
      <point x="15" y="225" type="line"/>
      <point x="-7" y="100" type="line"/>
      <point x="286" y="100" type="line"/>
    </contour>
    <contour>
      <point x="342" y="475" type="line"/>
      <point x="352" y="475" type="line"/>
      <point x="316" y="272" type="line"/>
      <point x="222" y="272" type="line"/>
    </contour>
  </outline>
</glyph>
<glyph name="five" format="1">
  <advance width="600"/>
  <unicode hex="0035"/>
  <outline>
    <contour>
      <point x="2" y="11" type="line" name="hr00"/>
      <point x="72" y="-7" smooth="yes"/>
      <point x="148" y="-15" smooth="yes"/>
      <point x="227" y="-15" type="curve" smooth="yes"/>
      <point x="371" y="-15" smooth="yes"/>
      <point x="543" y="15" smooth="yes"/>
      <point x="543" y="257" type="curve" smooth="yes"/>
      <point x="543" y="335" smooth="yes"/>
      <point x="496" y="380" smooth="yes"/>
      <point x="352" y="399" type="curve" smooth="yes"/>
      <point x="297" y="406" type="line"/>
      <point x="308" y="467" type="line"/>
      <point x="530" y="453" type="line"/>
      <point x="575" y="625" type="line"/>
      <point x="143" y="625" type="line"/>
      <point x="88" y="365" type="line" smooth="yes"/>
      <point x="85" y="350" smooth="yes"/>
      <point x="84" y="338" smooth="yes"/>
      <point x="84" y="326" type="curve" smooth="yes"/>
      <point x="84" y="254" smooth="yes"/>
      <point x="134" y="232" smooth="yes"/>
      <point x="264" y="217" type="curve" smooth="yes"/>
      <point x="333" y="209" type="line"/>
      <point x="325" y="159" type="line"/>
      <point x="295" y="155" smooth="yes"/>
      <point x="264" y="153" smooth="yes"/>
      <point x="235" y="153" type="curve" smooth="yes"/>
      <point x="173" y="153"/>
      <point x="114" y="161"/>
      <point x="58" y="176" type="curve"/>
    </contour>
  </outline>
</glyph>
<glyph name="six" format="1">
  <advance width="600"/>
  <unicode hex="0036"/>
  <outline>
    <contour>
      <point x="324" y="178" type="line" smooth="yes" name="hr00"/>
      <point x="317" y="139" smooth="yes"/>
      <point x="298" y="136" smooth="yes"/>
      <point x="260" y="136" type="curve" smooth="yes"/>
      <point x="221" y="136" type="line"/>
      <point x="235" y="215" type="line" smooth="yes"/>
      <point x="242" y="254" smooth="yes"/>
      <point x="262" y="257" smooth="yes"/>
      <point x="300" y="257" type="curve" smooth="yes"/>
      <point x="338" y="257" type="line"/>
    </contour>
    <contour>
      <point x="538" y="259" type="curve" smooth="yes"/>
      <point x="538" y="389" smooth="yes"/>
      <point x="439" y="405" smooth="yes"/>
      <point x="317" y="405" type="curve" smooth="yes"/>
      <point x="269" y="405" type="line"/>
      <point x="280" y="466" type="line"/>
      <point x="300" y="471" smooth="yes"/>
      <point x="354" y="475" smooth="yes"/>
      <point x="389" y="475" type="curve" smooth="yes"/>
      <point x="422" y="475"/>
      <point x="480" y="470"/>
      <point x="528" y="461" type="curve"/>
      <point x="584" y="614" type="line"/>
      <point x="548" y="626" smooth="yes"/>
      <point x="453" y="640" smooth="yes"/>
      <point x="405" y="640" type="curve" smooth="yes"/>
      <point x="158" y="640" smooth="yes"/>
      <point x="87" y="529" smooth="yes"/>
      <point x="49" y="312" type="curve" smooth="yes"/>
      <point x="40" y="261" smooth="yes"/>
      <point x="35" y="216" smooth="yes"/>
      <point x="35" y="177" type="curve" smooth="yes"/>
      <point x="35" y="50" smooth="yes"/>
      <point x="90" y="-15" smooth="yes"/>
      <point x="243" y="-15" type="curve" smooth="yes"/>
      <point x="433" y="-15" smooth="yes"/>
      <point x="538" y="74" smooth="yes"/>
    </contour>
  </outline>
</glyph>
<glyph name="seven" format="1">
  <advance width="600"/>
  <unicode hex="0037"/>
  <outline>
    <contour>
      <point x="577" y="500" type="line" name="hr00"/>
      <point x="599" y="625" type="line"/>
      <point x="129" y="625" type="line"/>
      <point x="111" y="448" type="line"/>
      <point x="340" y="448" type="line"/>
      <point x="91" y="0" type="line"/>
      <point x="306" y="0" type="line"/>
    </contour>
  </outline>
</glyph>
<glyph name="eight" format="1">
  <advance width="600"/>
  <unicode hex="0038"/>
  <outline>
    <contour>
      <point x="358" y="640" type="curve" smooth="yes" name="hr00"/>
      <point x="234" y="640" smooth="yes"/>
      <point x="91" y="589" smooth="yes"/>
      <point x="91" y="422" type="curve" smooth="yes"/>
      <point x="91" y="376"/>
      <point x="106" y="338"/>
      <point x="133" y="315" type="curve"/>
      <point x="132" y="308" type="line"/>
      <point x="65" y="277" smooth="yes"/>
      <point x="20" y="207" smooth="yes"/>
      <point x="20" y="131" type="curve" smooth="yes"/>
      <point x="20" y="20" smooth="yes"/>
      <point x="117" y="-15" smooth="yes"/>
      <point x="243" y="-15" type="curve" smooth="yes"/>
      <point x="399" y="-15" smooth="yes"/>
      <point x="530" y="44" smooth="yes"/>
      <point x="530" y="196" type="curve" smooth="yes"/>
      <point x="530" y="245"/>
      <point x="506" y="287"/>
      <point x="468" y="308" type="curve"/>
      <point x="469" y="315" type="line"/>
      <point x="521" y="350" smooth="yes"/>
      <point x="562" y="420" smooth="yes"/>
      <point x="562" y="498" type="curve" smooth="yes"/>
      <point x="562" y="605" smooth="yes"/>
      <point x="466" y="640" smooth="yes"/>
    </contour>
    <contour>
      <point x="328" y="201" type="line"/>
      <point x="324" y="178" type="line" smooth="yes"/>
      <point x="317" y="139" smooth="yes"/>
      <point x="298" y="136" smooth="yes"/>
      <point x="260" y="136" type="curve" smooth="yes"/>
      <point x="221" y="136" type="line"/>
      <point x="237" y="223" type="line" smooth="yes"/>
      <point x="239" y="235" smooth="yes"/>
      <point x="244" y="240" smooth="yes"/>
      <point x="251" y="240" type="curve" smooth="yes"/>
      <point x="257" y="240"/>
      <point x="262" y="237"/>
      <point x="269" y="234" type="curve"/>
    </contour>
    <contour>
      <point x="272" y="423" type="line"/>
      <point x="275" y="442" type="line" smooth="yes"/>
      <point x="281" y="481" smooth="yes"/>
      <point x="303" y="484" smooth="yes"/>
      <point x="340" y="484" type="curve" smooth="yes"/>
      <point x="378" y="484" type="line"/>
      <point x="364" y="403" type="line" smooth="yes"/>
      <point x="362" y="393" smooth="yes"/>
      <point x="353" y="385" smooth="yes"/>
      <point x="341" y="385" type="curve" smooth="yes"/>
      <point x="338" y="385" smooth="yes"/>
      <point x="334" y="386" smooth="yes"/>
      <point x="328" y="389" type="curve" smooth="yes"/>
    </contour>
  </outline>
</glyph>
<glyph name="nine" format="1">
  <advance width="600"/>
  <unicode hex="0039"/>
  <outline>
    <contour>
      <point x="277" y="447" type="line" smooth="yes" name="hr00"/>
      <point x="283" y="486" smooth="yes"/>
      <point x="303" y="489" smooth="yes"/>
      <point x="341" y="489" type="curve" smooth="yes"/>
      <point x="380" y="489" type="line"/>
      <point x="367" y="418" type="line" smooth="yes"/>
      <point x="360" y="379" smooth="yes"/>
      <point x="341" y="376" smooth="yes"/>
      <point x="303" y="376" type="curve" smooth="yes"/>
      <point x="265" y="376" type="line"/>
    </contour>
    <contour>
      <point x="334" y="228" type="line"/>
      <point x="322" y="159" type="line"/>
      <point x="291" y="155" smooth="yes"/>
      <point x="261" y="153" smooth="yes"/>
      <point x="231" y="153" type="curve" smooth="yes"/>
      <point x="184" y="153"/>
      <point x="126" y="161"/>
      <point x="70" y="176" type="curve"/>
      <point x="13" y="11" type="line"/>
      <point x="83" y="-7" smooth="yes"/>
      <point x="164" y="-15" smooth="yes"/>
      <point x="243" y="-15" type="curve" smooth="yes"/>
      <point x="443" y="-15" smooth="yes"/>
      <point x="514" y="96" smooth="yes"/>
      <point x="553" y="313" type="curve" smooth="yes"/>
      <point x="562" y="363" smooth="yes"/>
      <point x="567" y="407" smooth="yes"/>
      <point x="567" y="446" type="curve" smooth="yes"/>
      <point x="567" y="574" smooth="yes"/>
      <point x="512" y="640" smooth="yes"/>
      <point x="358" y="640" type="curve" smooth="yes"/>
      <point x="171" y="640" smooth="yes"/>
      <point x="62" y="551" smooth="yes"/>
      <point x="62" y="367" type="curve" smooth="yes"/>
      <point x="62" y="238" smooth="yes"/>
      <point x="164" y="228" smooth="yes"/>
      <point x="286" y="228" type="curve" smooth="yes"/>
    </contour>
  </outline>
</glyph>
<glyph name="question" format="1">
  <advance width="454"/>
  <unicode hex="003F"/>
  <outline>
    <contour>
      <point x="286" y="302" type="line" name="hr00"/>
      <point x="430" y="347" smooth="yes"/>
      <point x="484" y="411" smooth="yes"/>
      <point x="484" y="523" type="curve" smooth="yes"/>
      <point x="484" y="629" smooth="yes"/>
      <point x="389" y="640" smooth="yes"/>
      <point x="279" y="640" type="curve" smooth="yes"/>
      <point x="213" y="640"/>
      <point x="142" y="629"/>
      <point x="76" y="612" type="curve"/>
      <point x="74" y="469" type="line"/>
      <point x="100" y="478" smooth="yes"/>
      <point x="184" y="489" smooth="yes"/>
      <point x="248" y="489" type="curve" smooth="yes"/>
      <point x="263" y="489"/>
      <point x="278" y="488"/>
      <point x="290" y="487" type="curve"/>
      <point x="284" y="453" type="line"/>
      <point x="176" y="416" type="line" smooth="yes"/>
      <point x="118" y="396" smooth="yes"/>
      <point x="107" y="386" smooth="yes"/>
      <point x="105" y="363" type="curve" smooth="yes"/>
      <point x="85" y="175" type="line"/>
      <point x="247" y="175" type="line"/>
    </contour>
    <contour>
      <point x="40" y="44" type="curve" smooth="yes"/>
      <point x="40" y="8" smooth="yes"/>
      <point x="63" y="-7" smooth="yes"/>
      <point x="135" y="-7" type="curve" smooth="yes"/>
      <point x="229" y="-7" smooth="yes"/>
      <point x="258" y="22" smooth="yes"/>
      <point x="258" y="96" type="curve" smooth="yes"/>
      <point x="258" y="132" smooth="yes"/>
      <point x="235" y="149" smooth="yes"/>
      <point x="163" y="149" type="curve" smooth="yes"/>
      <point x="83" y="149" smooth="yes"/>
      <point x="40" y="121" smooth="yes"/>
    </contour>
  </outline>
</glyph>
<glyph name="at" format="1">
  <advance width="867"/>
  <unicode hex="0040"/>
  <outline>
    <contour>
      <point x="492" y="187" type="line" smooth="yes"/>
      <point x="498" y="226" smooth="yes"/>
      <point x="528" y="229" smooth="yes"/>
      <point x="566" y="229" type="curve" smooth="yes"/>
      <point x="596" y="229" type="line"/>
      <point x="585" y="167" type="line"/>
      <point x="576" y="134" smooth="yes"/>
      <point x="550" y="131" smooth="yes"/>
      <point x="514" y="131" type="curve" smooth="yes"/>
      <point x="483" y="131" type="line"/>
    </contour>
    <contour>
      <point x="39" y="176" type="line" smooth="yes"/>
      <point x="34" y="144" smooth="yes"/>
      <point x="30" y="114" smooth="yes"/>
      <point x="30" y="88" type="curve" smooth="yes"/>
      <point x="30" y="-109" smooth="yes"/>
      <point x="179" y="-165" smooth="yes"/>
      <point x="375" y="-165" type="curve" smooth="yes"/>
      <point x="441" y="-165"/>
      <point x="502" y="-158"/>
      <point x="571" y="-144" type="curve"/>
      <point x="588" y="-50" type="line"/>
      <point x="409" y="-50" type="line" smooth="yes"/>
      <point x="315" y="-50" smooth="yes"/>
      <point x="224" y="-45" smooth="yes"/>
      <point x="224" y="55" type="curve" smooth="yes"/>
      <point x="224" y="67" smooth="yes"/>
      <point x="225" y="79" smooth="yes"/>
      <point x="228" y="93" type="curve" smooth="yes"/>
      <point x="263" y="290" type="line" smooth="yes"/>
      <point x="287" y="426" smooth="yes"/>
      <point x="390" y="433" smooth="yes"/>
      <point x="494" y="433" type="curve" smooth="yes"/>
      <point x="543" y="433"/>
      <point x="602" y="429"/>
      <point x="630" y="423" type="curve"/>
      <point x="617" y="350" type="line"/>
      <point x="579" y="350" type="line" smooth="yes"/>
      <point x="419" y="350" smooth="yes"/>
      <point x="307" y="281" smooth="yes"/>
      <point x="307" y="108" type="curve" smooth="yes"/>
      <point x="307" y="15" smooth="yes"/>
      <point x="367" y="-9" smooth="yes"/>
      <point x="428" y="-9" type="curve" smooth="yes"/>
      <point x="499" y="-9"/>
      <point x="562" y="16"/>
      <point x="608" y="63" type="curve"/>
      <point x="651" y="0" type="line" name="hr01"/>
      <point x="746" y="0" type="line"/>
      <point x="817" y="407" type="line" smooth="yes"/>
      <point x="819" y="420" smooth="yes"/>
      <point x="821" y="433" smooth="yes"/>
      <point x="821" y="445" type="curve" smooth="yes"/>
      <point x="821" y="551" smooth="yes"/>
      <point x="724" y="600" smooth="yes"/>
      <point x="510" y="600" type="curve" smooth="yes"/>
      <point x="290" y="600" smooth="yes"/>
      <point x="98" y="528" smooth="yes"/>
      <point x="53" y="259" type="curve" smooth="yes"/>
    </contour>
  </outline>
</glyph>
<glyph name="A" format="1">
  <advance width="609"/>
  <unicode hex="0041"/>
  <outline>
    <contour>
      <point x="150" y="0" type="line"/>
      <point x="189" y="99" type="line"/>
      <point x="346" y="99" type="line"/>
      <point x="350" y="0" type="line"/>
      <point x="551" y="0" type="line"/>
      <point x="507" y="625" type="line"/>
      <point x="213" y="625" type="line"/>
      <point x="-50" y="0" type="line"/>
    </contour>
    <contour>
      <point x="321" y="433" type="line"/>
      <point x="331" y="433" type="line" name="hr01"/>
      <point x="331" y="258" type="line"/>
      <point x="251" y="258" type="line"/>
    </contour>
  </outline>
</glyph>
<glyph name="B" format="1">
  <advance width="578"/>
  <unicode hex="0042"/>
  <outline>
    <contour>
      <point x="8" y="0" type="line"/>
      <point x="350" y="0" type="line" smooth="yes"/>
      <point x="475" y="0" smooth="yes"/>
      <point x="537" y="99" smooth="yes"/>
      <point x="537" y="212" type="curve" smooth="yes"/>
      <point x="537" y="273"/>
      <point x="512" y="319"/>
      <point x="447" y="331" type="curve"/>
      <point x="448" y="337" type="line"/>
      <point x="507" y="352" smooth="yes"/>
      <point x="563" y="416" smooth="yes"/>
      <point x="563" y="523" type="curve" smooth="yes" name="hr01"/>
      <point x="563" y="592" smooth="yes"/>
      <point x="523" y="625" smooth="yes"/>
      <point x="426" y="625" type="curve" smooth="yes"/>
      <point x="118" y="625" type="line"/>
    </contour>
    <contour>
      <point x="316" y="249" type="line" smooth="yes"/>
      <point x="340" y="249" smooth="yes"/>
      <point x="348" y="236" smooth="yes"/>
      <point x="348" y="217" type="curve" smooth="yes" name="hr02"/>
      <point x="348" y="180" smooth="yes"/>
      <point x="333" y="147" smooth="yes"/>
      <point x="297" y="147" type="curve" smooth="yes"/>
      <point x="223" y="147" type="line"/>
      <point x="241" y="249" type="line"/>
    </contour>
    <contour>
      <point x="344" y="488" type="line" smooth="yes"/>
      <point x="365" y="488" smooth="yes"/>
      <point x="372" y="477" smooth="yes"/>
      <point x="372" y="460" type="curve" smooth="yes" name="hr03"/>
      <point x="372" y="427" smooth="yes"/>
      <point x="360" y="395" smooth="yes"/>
      <point x="326" y="395" type="curve" smooth="yes"/>
      <point x="267" y="395" type="line"/>
      <point x="284" y="488" type="line"/>
    </contour>
  </outline>
</glyph>
<glyph name="C" format="1">
  <advance width="500"/>
  <unicode hex="0043"/>
  <outline>
    <contour>
      <point x="438" y="179" type="line" name="hr00"/>
      <point x="396" y="164" smooth="yes"/>
      <point x="340" y="155" smooth="yes"/>
      <point x="290" y="155" type="curve" smooth="yes"/>
      <point x="267" y="155"/>
      <point x="243" y="157"/>
      <point x="216" y="163" type="curve"/>
      <point x="262" y="425" type="line" smooth="yes"/>
      <point x="269" y="467" smooth="yes"/>
      <point x="299" y="475" smooth="yes"/>
      <point x="361" y="475" type="curve" smooth="yes"/>
      <point x="387" y="475"/>
      <point x="435" y="470"/>
      <point x="473" y="461" type="curve"/>
      <point x="529" y="614" type="line"/>
      <point x="498" y="630" smooth="yes"/>
      <point x="419" y="640" smooth="yes"/>
      <point x="375" y="640" type="curve" smooth="yes"/>
      <point x="153" y="640" smooth="yes"/>
      <point x="77" y="529" smooth="yes"/>
      <point x="39" y="312" type="curve" smooth="yes"/>
      <point x="31" y="264" smooth="yes"/>
      <point x="25" y="222" smooth="yes"/>
      <point x="25" y="185" type="curve" smooth="yes"/>
      <point x="25" y="53" smooth="yes"/>
      <point x="87" y="-15" smooth="yes"/>
      <point x="260" y="-15" type="curve" smooth="yes"/>
      <point x="327" y="-15"/>
      <point x="375" y="-8"/>
      <point x="422" y="11" type="curve"/>
    </contour>
  </outline>
</glyph>
<glyph name="D" format="1">
  <advance width="645"/>
  <unicode hex="0044"/>
  <outline>
    <contour>
      <point x="8" y="0" type="line" name="hr00"/>
      <point x="274" y="0" type="line" smooth="yes"/>
      <point x="495" y="0" smooth="yes"/>
      <point x="571" y="96" smooth="yes"/>
      <point x="610" y="312" type="curve" smooth="yes"/>
      <point x="618" y="357" smooth="yes"/>
      <point x="622" y="397" smooth="yes"/>
      <point x="622" y="432" type="curve" smooth="yes"/>
      <point x="622" y="565" smooth="yes"/>
      <point x="559" y="625" smooth="yes"/>
      <point x="384" y="625" type="curve" smooth="yes"/>
      <point x="118" y="625" type="line"/>
    </contour>
    <contour>
      <point x="358" y="465" type="line" smooth="yes"/>
      <point x="397" y="465" smooth="yes"/>
      <point x="424" y="462" smooth="yes"/>
      <point x="424" y="428" type="curve" smooth="yes"/>
      <point x="424" y="423" smooth="yes"/>
      <point x="424" y="418" smooth="yes"/>
      <point x="423" y="412" type="curve" smooth="yes"/>
      <point x="388" y="213" type="line" smooth="yes"/>
      <point x="379" y="164" smooth="yes"/>
      <point x="349" y="160" smooth="yes"/>
      <point x="305" y="160" type="curve" smooth="yes"/>
      <point x="226" y="160" type="line"/>
      <point x="279" y="465" type="line"/>
    </contour>
  </outline>
</glyph>
<glyph name="E" format="1">
  <advance width="530"/>
  <unicode hex="0045"/>
  <outline>
    <contour>
      <point x="429" y="236" type="line" name="hr00"/>
      <point x="455" y="381" type="line"/>
      <point x="265" y="381" type="line"/>
      <point x="279" y="465" type="line"/>
      <point x="484" y="465" type="line"/>
      <point x="536" y="625" type="line"/>
      <point x="118" y="625" type="line"/>
      <point x="8" y="0" type="line"/>
      <point x="431" y="0" type="line"/>
      <point x="459" y="160" type="line"/>
      <point x="226" y="160" type="line"/>
      <point x="239" y="236" type="line"/>
    </contour>
  </outline>
</glyph>
<glyph name="F" format="1">
  <advance width="470"/>
  <unicode hex="0046"/>
  <outline>
    <contour>
      <point x="400" y="232" type="line" name="hr00"/>
      <point x="427" y="381" type="line"/>
      <point x="265" y="381" type="line"/>
      <point x="279" y="465" type="line"/>
      <point x="455" y="465" type="line"/>
      <point x="508" y="625" type="line"/>
      <point x="118" y="625" type="line"/>
      <point x="8" y="0" type="line"/>
      <point x="198" y="0" type="line"/>
      <point x="238" y="232" type="line"/>
    </contour>
  </outline>
</glyph>
<glyph name="G" format="1">
  <advance width="586"/>
  <unicode hex="0047"/>
  <outline>
    <contour>
      <point x="348" y="184" type="line" smooth="yes" name="hr00"/>
      <point x="341" y="145" smooth="yes"/>
      <point x="314" y="142" smooth="yes"/>
      <point x="276" y="142" type="curve" smooth="yes"/>
      <point x="213" y="142" type="line"/>
      <point x="262" y="425" type="line" smooth="yes"/>
      <point x="269" y="467" smooth="yes"/>
      <point x="306" y="475" smooth="yes"/>
      <point x="381" y="475" type="curve" smooth="yes"/>
      <point x="415" y="475"/>
      <point x="473" y="470"/>
      <point x="521" y="461" type="curve"/>
      <point x="576" y="614" type="line"/>
      <point x="540" y="627" smooth="yes"/>
      <point x="446" y="640" smooth="yes"/>
      <point x="397" y="640" type="curve" smooth="yes"/>
      <point x="151" y="640" smooth="yes"/>
      <point x="77" y="529" smooth="yes"/>
      <point x="39" y="312" type="curve" smooth="yes"/>
      <point x="31" y="264" smooth="yes"/>
      <point x="25" y="222" smooth="yes"/>
      <point x="25" y="185" type="curve" smooth="yes"/>
      <point x="25" y="53" smooth="yes"/>
      <point x="87" y="-15" smooth="yes"/>
      <point x="260" y="-15" type="curve" smooth="yes"/>
      <point x="327" y="-15"/>
      <point x="418" y="-1"/>
      <point x="502" y="30" type="curve"/>
      <point x="561" y="364" type="line"/>
      <point x="332" y="364" type="line"/>
      <point x="305" y="211" type="line"/>
      <point x="353" y="211" type="line"/>
    </contour>
  </outline>
</glyph>
<glyph name="H" format="1">
  <advance width="650"/>
  <unicode hex="0048"/>
  <outline>
    <contour>
      <point x="341" y="0" type="line" name="hr00"/>
      <point x="531" y="0" type="line"/>
      <point x="641" y="625" type="line"/>
      <point x="451" y="625" type="line"/>
      <point x="412" y="404" type="line"/>
      <point x="269" y="404" type="line"/>
      <point x="308" y="625" type="line"/>
      <point x="118" y="625" type="line"/>
      <point x="8" y="0" type="line"/>
      <point x="198" y="0" type="line"/>
      <point x="236" y="221" type="line"/>
      <point x="379" y="221" type="line"/>
    </contour>
  </outline>
</glyph>
<glyph name="I" format="1">
  <advance width="300"/>
  <unicode hex="0049"/>
  <outline>
    <contour>
      <point x="0" y="0" type="line" name="hr00"/>
      <point x="190" y="0" type="line"/>
      <point x="300" y="625" type="line"/>
      <point x="110" y="625" type="line"/>
    </contour>
  </outline>
</glyph>
<glyph name="J" format="1">
  <advance width="366"/>
  <unicode hex="004A"/>
  <outline>
    <contour>
      <point x="382" y="625" type="line" name="hr00"/>
      <point x="114" y="625" type="line"/>
      <point x="85" y="465" type="line"/>
      <point x="163" y="465" type="line"/>
      <point x="115" y="190" type="line" smooth="yes"/>
      <point x="110" y="162" smooth="yes"/>
      <point x="89" y="154" smooth="yes"/>
      <point x="64" y="150" type="curve" smooth="yes"/>
      <point x="2" y="140" type="line"/>
      <point x="-23" y="0" type="line"/>
      <point x="124" y="0" type="line" smooth="yes"/>
      <point x="218" y="0" smooth="yes"/>
      <point x="282" y="57" smooth="yes"/>
      <point x="301" y="165" type="curve" smooth="yes"/>
    </contour>
  </outline>
</glyph>
<glyph name="K" format="1">
  <advance width="575"/>
  <unicode hex="004B"/>
  <outline>
    <contour>
      <point x="245" y="272" type="line" name="hr00"/>
      <point x="253" y="272" type="line"/>
      <point x="253" y="266" smooth="yes"/>
      <point x="252" y="260" smooth="yes"/>
      <point x="252" y="253" type="curve" smooth="yes"/>
      <point x="252" y="242" smooth="yes"/>
      <point x="253" y="231" smooth="yes"/>
      <point x="255" y="224" type="curve" smooth="yes"/>
      <point x="310" y="0" type="line"/>
      <point x="515" y="0" type="line"/>
      <point x="424" y="318" type="line"/>
      <point x="620" y="625" type="line"/>
      <point x="415" y="625" type="line"/>
      <point x="289" y="418" type="line" smooth="yes"/>
      <point x="282" y="407"/>
      <point x="275" y="386"/>
      <point x="271" y="370" type="curve"/>
      <point x="263" y="370" type="line"/>
      <point x="308" y="625" type="line"/>
      <point x="118" y="625" type="line"/>
      <point x="8" y="0" type="line"/>
      <point x="198" y="0" type="line"/>
    </contour>
  </outline>
</glyph>
<glyph name="L" format="1">
  <advance width="426"/>
  <unicode hex="004C"/>
  <outline>
    <contour>
      <point x="388" y="0" type="line" name="hr00"/>
      <point x="416" y="160" type="line"/>
      <point x="226" y="160" type="line"/>
      <point x="308" y="625" type="line"/>
      <point x="118" y="625" type="line"/>
      <point x="8" y="0" type="line"/>
    </contour>
  </outline>
</glyph>
<glyph name="M" format="1">
  <advance width="811"/>
  <unicode hex="004D"/>
  <outline>
    <contour>
      <point x="188" y="0" type="line" name="hr00"/>
      <point x="253" y="303" type="line"/>
      <point x="258" y="303" type="line"/>
      <point x="279" y="0" type="line"/>
      <point x="424" y="0" type="line"/>
      <point x="549" y="303" type="line"/>
      <point x="556" y="303" type="line"/>
      <point x="514" y="0" type="line"/>
      <point x="713" y="0" type="line"/>
      <point x="787" y="625" type="line"/>
      <point x="539" y="625" type="line"/>
      <point x="409" y="307" type="line"/>
      <point x="402" y="307" type="line"/>
      <point x="384" y="625" type="line"/>
      <point x="136" y="625" type="line"/>
      <point x="-10" y="0" type="line"/>
    </contour>
  </outline>
</glyph>
<glyph name="N" format="1">
  <advance width="655"/>
  <unicode hex="004E"/>
  <outline>
    <contour>
      <point x="357" y="0" type="line" name="hr00"/>
      <point x="536" y="0" type="line"/>
      <point x="646" y="625" type="line"/>
      <point x="456" y="625" type="line"/>
      <point x="408" y="355" type="line"/>
      <point x="400" y="355" type="line"/>
      <point x="401" y="363" smooth="yes"/>
      <point x="402" y="374" smooth="yes"/>
      <point x="402" y="383" type="curve" smooth="yes"/>
      <point x="402" y="391" smooth="yes"/>
      <point x="401" y="398" smooth="yes"/>
      <point x="399" y="403" type="curve" smooth="yes"/>
      <point x="297" y="625" type="line"/>
      <point x="118" y="625" type="line"/>
      <point x="8" y="0" type="line"/>
      <point x="198" y="0" type="line"/>
      <point x="245" y="270" type="line"/>
      <point x="253" y="270" type="line"/>
      <point x="252" y="262" smooth="yes"/>
      <point x="251" y="252" smooth="yes"/>
      <point x="251" y="244" type="curve" smooth="yes"/>
      <point x="251" y="235" smooth="yes"/>
      <point x="252" y="227" smooth="yes"/>
      <point x="255" y="222" type="curve" smooth="yes"/>
    </contour>
  </outline>
</glyph>
<glyph name="O" format="1">
  <advance width="630"/>
  <unicode hex="004F"/>
  <outline>
    <contour>
      <point x="257" y="416" type="line" smooth="yes" name="hr00"/>
      <point x="266" y="465" smooth="yes"/>
      <point x="295" y="469" smooth="yes"/>
      <point x="339" y="469" type="curve" smooth="yes"/>
      <point x="419" y="469" type="line"/>
      <point x="373" y="209" type="line" smooth="yes"/>
      <point x="364" y="160" smooth="yes"/>
      <point x="334" y="156" smooth="yes"/>
      <point x="290" y="156" type="curve" smooth="yes"/>
      <point x="211" y="156" type="line"/>
    </contour>
    <contour>
      <point x="372" y="640" type="curve"/>
      <point x="152" y="640" smooth="yes"/>
      <point x="73" y="529" smooth="yes"/>
      <point x="35" y="312" type="curve" smooth="yes"/>
      <point x="27" y="265" smooth="yes"/>
      <point x="22" y="224" smooth="yes"/>
      <point x="22" y="187" type="curve" smooth="yes"/>
      <point x="22" y="53" smooth="yes"/>
      <point x="84" y="-15" smooth="yes"/>
      <point x="257" y="-15" type="curve" smooth="yes"/>
      <point x="349" y="-15" smooth="yes"/>
      <point x="419" y="1" smooth="yes"/>
      <point x="472" y="48" type="curve" smooth="yes"/>
      <point x="576" y="140" smooth="yes"/>
      <point x="607" y="328" smooth="yes"/>
      <point x="607" y="438" type="curve" smooth="yes"/>
      <point x="607" y="572" smooth="yes"/>
      <point x="545" y="640" smooth="yes"/>
    </contour>
  </outline>
</glyph>
<glyph name="P" format="1">
  <advance width="573"/>
  <unicode hex="0050"/>
  <outline>
    <contour>
      <point x="348" y="151" type="line" smooth="yes" name="hr00"/>
      <point x="551" y="151" smooth="yes"/>
      <point x="588" y="376" smooth="yes"/>
      <point x="588" y="467" type="curve" smooth="yes"/>
      <point x="588" y="557" smooth="yes"/>
      <point x="547" y="625" smooth="yes"/>
      <point x="418" y="625" type="curve" smooth="yes"/>
      <point x="118" y="625" type="line"/>
      <point x="8" y="0" type="line"/>
      <point x="198" y="0" type="line"/>
      <point x="224" y="151" type="line"/>
    </contour>
    <contour>
      <point x="279" y="465" type="line"/>
      <point x="323" y="465" type="line" smooth="yes"/>
      <point x="357" y="465" smooth="yes"/>
      <point x="383" y="462" smooth="yes"/>
      <point x="383" y="434" type="curve" smooth="yes"/>
      <point x="383" y="431" smooth="yes"/>
      <point x="383" y="427" smooth="yes"/>
      <point x="382" y="423" type="curve" smooth="yes"/>
      <point x="370" y="353" type="line" smooth="yes"/>
      <point x="363" y="314" smooth="yes"/>
      <point x="334" y="311" smooth="yes"/>
      <point x="296" y="311" type="curve" smooth="yes"/>
      <point x="252" y="311" type="line"/>
    </contour>
  </outline>
</glyph>
<glyph name="Q" format="1">
  <advance width="629"/>
  <unicode hex="0051"/>
  <outline>
    <contour>
      <point x="21" y="187" type="curve" smooth="yes" name="hr00"/>
      <point x="21" y="75"/>
      <point x="75" y="0"/>
      <point x="245" y="0" type="curve"/>
      <point x="330" y="23" type="line"/>
      <point x="323" y="-15" type="line"/>
      <point x="499" y="-50" type="line"/>
      <point x="569" y="65" type="line"/>
      <point x="507" y="107" type="line"/>
      <point x="559" y="169" smooth="yes"/>
      <point x="606" y="303" smooth="yes"/>
      <point x="606" y="434" type="curve" smooth="yes"/>
      <point x="606" y="570" smooth="yes"/>
      <point x="543" y="640" smooth="yes"/>
      <point x="371" y="640" type="curve" smooth="yes"/>
      <point x="151" y="640" smooth="yes"/>
      <point x="72" y="529" smooth="yes"/>
      <point x="34" y="312" type="curve" smooth="yes"/>
      <point x="26" y="265" smooth="yes"/>
      <point x="21" y="224" smooth="yes"/>
    </contour>
    <contour>
      <point x="210" y="156" type="line"/>
      <point x="256" y="416" type="line" smooth="yes"/>
      <point x="265" y="465" smooth="yes"/>
      <point x="294" y="469" smooth="yes"/>
      <point x="338" y="469" type="curve" smooth="yes"/>
      <point x="418" y="469" type="line"/>
      <point x="372" y="209" type="line" smooth="yes"/>
      <point x="363" y="160" smooth="yes"/>
      <point x="333" y="156" smooth="yes"/>
      <point x="289" y="156" type="curve" smooth="yes"/>
    </contour>
  </outline>
</glyph>
<glyph name="R" format="1">
  <advance width="599"/>
  <unicode hex="0052"/>
  <outline>
    <contour>
      <point x="526" y="0" type="line" name="hr00"/>
      <point x="460" y="208" type="line"/>
      <point x="565" y="260" smooth="yes"/>
      <point x="589" y="400" smooth="yes"/>
      <point x="589" y="472" type="curve" smooth="yes"/>
      <point x="589" y="560" smooth="yes"/>
      <point x="548" y="625" smooth="yes"/>
      <point x="418" y="625" type="curve" smooth="yes"/>
      <point x="118" y="625" type="line"/>
      <point x="8" y="0" type="line"/>
      <point x="198" y="0" type="line"/>
      <point x="230" y="186" type="line"/>
      <point x="271" y="186" type="line"/>
      <point x="317" y="0" type="line"/>
    </contour>
    <contour>
      <point x="279" y="465" type="line"/>
      <point x="317" y="465" type="line" smooth="yes"/>
      <point x="356" y="465" smooth="yes"/>
      <point x="383" y="463" smooth="yes"/>
      <point x="383" y="434" type="curve" smooth="yes"/>
      <point x="383" y="432" smooth="yes"/>
      <point x="381" y="415" smooth="yes"/>
      <point x="375" y="382" type="curve" smooth="yes"/>
      <point x="368" y="343" smooth="yes"/>
      <point x="339" y="340" smooth="yes"/>
      <point x="301" y="340" type="curve" smooth="yes"/>
      <point x="257" y="340" type="line"/>
    </contour>
  </outline>
</glyph>
<glyph name="S" format="1">
  <advance width="575"/>
  <unicode hex="0053"/>
  <outline>
    <contour>
      <point x="-10" y="11" type="line" name="hr00"/>
      <point x="60" y="-7" smooth="yes"/>
      <point x="136" y="-15" smooth="yes"/>
      <point x="215" y="-15" type="curve" smooth="yes"/>
      <point x="352" y="-15" smooth="yes"/>
      <point x="487" y="-8" smooth="yes"/>
      <point x="525" y="209" type="curve" smooth="yes"/>
      <point x="528" y="227" smooth="yes"/>
      <point x="530" y="244" smooth="yes"/>
      <point x="530" y="260" type="curve" smooth="yes"/>
      <point x="530" y="339" smooth="yes"/>
      <point x="485" y="394" smooth="yes"/>
      <point x="342" y="409" type="curve" smooth="yes"/>
      <point x="275" y="416" type="line"/>
      <point x="283" y="465" type="line"/>
      <point x="313" y="469" smooth="yes"/>
      <point x="330" y="470" smooth="yes"/>
      <point x="361" y="470" type="curve" smooth="yes"/>
      <point x="418" y="470"/>
      <point x="461" y="464"/>
      <point x="513" y="455" type="curve"/>
      <point x="565" y="615" type="line"/>
      <point x="499" y="632" smooth="yes"/>
      <point x="428" y="640" smooth="yes"/>
      <point x="355" y="640" type="curve" smooth="yes"/>
      <point x="167" y="640" smooth="yes"/>
      <point x="100" y="586" smooth="yes"/>
      <point x="70" y="416" type="curve" smooth="yes"/>
      <point x="66" y="394" smooth="yes"/>
      <point x="64" y="375" smooth="yes"/>
      <point x="64" y="356" type="curve" smooth="yes"/>
      <point x="64" y="276" smooth="yes"/>
      <point x="107" y="230" smooth="yes"/>
      <point x="238" y="217" type="curve" smooth="yes"/>
      <point x="321" y="209" type="line"/>
      <point x="313" y="159" type="line"/>
      <point x="284" y="155" smooth="yes"/>
      <point x="253" y="153" smooth="yes"/>
      <point x="211" y="153" type="curve" smooth="yes"/>
      <point x="159" y="153"/>
      <point x="97" y="162"/>
      <point x="46" y="176" type="curve"/>
    </contour>
  </outline>
</glyph>
<glyph name="T" format="1">
  <advance width="500"/>
  <unicode hex="0054"/>
  <outline>
    <contour>
      <point x="509" y="465" type="line" name="hr00"/>
      <point x="538" y="625" type="line"/>
      <point x="73" y="625" type="line"/>
      <point x="44" y="465" type="line"/>
      <point x="181" y="465" type="line"/>
      <point x="100" y="0" type="line"/>
      <point x="290" y="0" type="line"/>
      <point x="371" y="465" type="line"/>
    </contour>
  </outline>
</glyph>
<glyph name="U" format="1">
  <advance width="607"/>
  <unicode hex="0055"/>
  <outline>
    <contour>
      <point x="294" y="625" type="line" name="hr00"/>
      <point x="104" y="625" type="line"/>
      <point x="42" y="274" type="line" smooth="yes"/>
      <point x="33" y="224" smooth="yes"/>
      <point x="28" y="182" smooth="yes"/>
      <point x="28" y="147" type="curve" smooth="yes"/>
      <point x="28" y="28" smooth="yes"/>
      <point x="85" y="-15" smooth="yes"/>
      <point x="246" y="-15" type="curve" smooth="yes"/>
      <point x="455" y="-15" smooth="yes"/>
      <point x="514" y="58" smooth="yes"/>
      <point x="552" y="274" type="curve" smooth="yes"/>
      <point x="614" y="625" type="line"/>
      <point x="424" y="625" type="line"/>
      <point x="350" y="209" type="line" smooth="yes"/>
      <point x="341" y="160" smooth="yes"/>
      <point x="322" y="156" smooth="yes"/>
      <point x="279" y="156" type="curve" smooth="yes"/>
      <point x="211" y="156" type="line"/>
    </contour>
  </outline>
</glyph>
<glyph name="V" format="1">
  <advance width="582"/>
  <unicode hex="0056"/>
  <outline>
    <contour>
      <point x="431" y="625" type="line" name="hr00"/>
      <point x="280" y="228" type="line"/>
      <point x="271" y="228" type="line"/>
      <point x="271" y="625" type="line"/>
      <point x="60" y="625" type="line"/>
      <point x="97" y="0" type="line"/>
      <point x="375" y="0" type="line"/>
      <point x="632" y="625" type="line"/>
    </contour>
  </outline>
</glyph>
<glyph name="W" format="1">
  <advance width="800"/>
  <unicode hex="0057"/>
  <outline>
    <contour>
      <point x="641" y="625" type="line" name="hr00"/>
      <point x="534" y="276" type="line"/>
      <point x="528" y="276" type="line"/>
      <point x="528" y="625" type="line"/>
      <point x="377" y="625" type="line"/>
      <point x="247" y="276" type="line"/>
      <point x="241" y="276" type="line"/>
      <point x="259" y="625" type="line"/>
      <point x="60" y="625" type="line"/>
      <point x="60" y="0" type="line"/>
      <point x="291" y="0" type="line"/>
      <point x="374" y="230" type="line"/>
      <point x="385" y="230" type="line"/>
      <point x="385" y="0" type="line"/>
      <point x="637" y="0" type="line"/>
      <point x="840" y="625" type="line"/>
    </contour>
  </outline>
</glyph>
<glyph name="X" format="1">
  <advance width="572"/>
  <unicode hex="0058"/>
  <outline>
    <contour>
      <point x="276" y="625" type="line" name="hr00"/>
      <point x="60" y="625" type="line"/>
      <point x="134" y="317" type="line"/>
      <point x="-50" y="0" type="line"/>
      <point x="151" y="0" type="line"/>
      <point x="253" y="180" type="line"/>
      <point x="261" y="180" type="line"/>
      <point x="301" y="0" type="line"/>
      <point x="512" y="0" type="line"/>
      <point x="436" y="323" type="line"/>
      <point x="622" y="625" type="line"/>
      <point x="416" y="625" type="line"/>
      <point x="321" y="458" type="line"/>
      <point x="311" y="458" type="line"/>
    </contour>
  </outline>
</glyph>
<glyph name="Y" format="1">
  <advance width="481"/>
  <unicode hex="0059"/>
  <outline>
    <contour>
      <point x="240" y="625" type="line" name="hr00"/>
      <point x="30" y="625" type="line"/>
      <point x="120" y="170" type="line"/>
      <point x="91" y="0" type="line"/>
      <point x="281" y="0" type="line"/>
      <point x="310" y="170" type="line"/>
      <point x="562" y="625" type="line"/>
      <point x="352" y="625" type="line"/>
      <point x="260" y="405" type="line"/>
      <point x="253" y="405" type="line"/>
    </contour>
  </outline>
</glyph>
<glyph name="Z" format="1">
  <advance width="548"/>
  <unicode hex="005A"/>
  <outline>
    <contour>
      <point x="462" y="0" type="line" name="hr00"/>
      <point x="490" y="160" type="line"/>
      <point x="248" y="160" type="line"/>
      <point x="247" y="166" type="line"/>
      <point x="546" y="500" type="line"/>
      <point x="568" y="625" type="line"/>
      <point x="83" y="625" type="line"/>
      <point x="72" y="465" type="line"/>
      <point x="271" y="465" type="line"/>
      <point x="273" y="459" type="line"/>
      <point x="-28" y="125" type="line"/>
      <point x="-50" y="0" type="line"/>
    </contour>
  </outline>
</glyph>
<glyph name="bracketleft" format="1">
  <advance width="339"/>
  <unicode hex="005B"/>
  <outline>
    <contour>
      <point x="-9" y="29" type="line" smooth="yes" name="hr00"/>
      <point x="-10" y="22" smooth="yes"/>
      <point x="-11" y="16" smooth="yes"/>
      <point x="-11" y="10" type="curve" smooth="yes"/>
      <point x="-11" y="-72"/>
      <point x="95" y="-76"/>
      <point x="211" y="-76" type="curve"/>
      <point x="246" y="71" type="line"/>
      <point x="168" y="78" type="line"/>
      <point x="247" y="526" type="line"/>
      <point x="324" y="533"/>
      <point x="326" y="533"/>
      <point x="327" y="533" type="curve"/>
      <point x="344" y="680" type="line"/>
      <point x="219" y="680" smooth="yes"/>
      <point x="106" y="675" smooth="yes"/>
      <point x="88" y="575" type="curve" smooth="yes"/>
    </contour>
  </outline>
</glyph>
<glyph name="backslash" format="1">
  <advance width="503"/>
  <unicode hex="005C"/>
  <outline>
    <contour>
      <point x="409" y="-15" type="line" name="hr00"/>
      <point x="418" y="-31" smooth="yes"/>
      <point x="424" y="-40" smooth="yes"/>
      <point x="452" y="-40" type="curve" smooth="yes"/>
      <point x="483" y="-40" type="line"/>
      <point x="94" y="640" type="line" smooth="yes"/>
      <point x="85" y="656" smooth="yes"/>
      <point x="79" y="665" smooth="yes"/>
      <point x="51" y="665" type="curve" smooth="yes"/>
      <point x="20" y="665" type="line"/>
    </contour>
  </outline>
</glyph>
<glyph name="bracketright" format="1">
  <advance width="367"/>
  <unicode hex="005D"/>
  <outline>
    <contour>
      <point x="348" y="575" type="line" smooth="yes" name="hr00"/>
      <point x="349" y="582" smooth="yes"/>
      <point x="350" y="588" smooth="yes"/>
      <point x="350" y="594" type="curve" smooth="yes"/>
      <point x="350" y="676"/>
      <point x="244" y="680"/>
      <point x="128" y="680" type="curve"/>
      <point x="93" y="533" type="line"/>
      <point x="94" y="533"/>
      <point x="96" y="533"/>
      <point x="171" y="526" type="curve"/>
      <point x="92" y="78" type="line"/>
      <point x="12" y="71" type="line"/>
      <point x="-5" y="-76" type="line"/>
      <point x="119" y="-76" smooth="yes"/>
      <point x="233" y="-71" smooth="yes"/>
      <point x="251" y="29" type="curve" smooth="yes"/>
    </contour>
  </outline>
</glyph>
<glyph name="underscore" format="1">
  <advance width="506"/>
  <unicode hex="005F"/>
  <outline>
    <contour>
      <point x="-70" y="-135" type="line" name="hr00"/>
      <point x="382" y="-135" type="line" smooth="yes"/>
      <point x="420" y="-135" smooth="yes"/>
      <point x="447" y="-132" smooth="yes"/>
      <point x="454" y="-93" type="curve" smooth="yes"/>
      <point x="473" y="15" type="line"/>
      <point x="21" y="15" type="line" smooth="yes"/>
      <point x="-17" y="15" smooth="yes"/>
      <point x="-44" y="12" smooth="yes"/>
      <point x="-51" y="-27" type="curve" smooth="yes"/>
    </contour>
  </outline>
</glyph>
<glyph name="a" format="1">
  <advance width="587"/>
  <unicode hex="0061"/>
  <outline>
    <contour>
      <point x="565" y="475" type="line"/>
      <point x="481" y="500" smooth="yes"/>
      <point x="410" y="515" smooth="yes"/>
      <point x="316" y="515" type="curve" smooth="yes"/>
      <point x="124" y="515" smooth="yes"/>
      <point x="27" y="342" smooth="yes"/>
      <point x="27" y="165" type="curve" smooth="yes"/>
      <point x="27" y="70" smooth="yes"/>
      <point x="65" y="-15" smooth="yes"/>
      <point x="194" y="-15" type="curve" smooth="yes"/>
      <point x="269" y="-15"/>
      <point x="307" y="19"/>
      <point x="342" y="57" type="curve"/>
      <point x="387" y="0" type="line" name="hr01"/>
      <point x="482" y="0" type="line"/>
    </contour>
    <contour>
      <point x="254" y="327" type="line" smooth="yes"/>
      <point x="261" y="366" smooth="yes"/>
      <point x="289" y="369" smooth="yes"/>
      <point x="327" y="369" type="curve" smooth="yes"/>
      <point x="357" y="369" type="line"/>
      <point x="321" y="167" type="line" smooth="yes"/>
      <point x="315" y="133" smooth="yes"/>
      <point x="285" y="131" smooth="yes"/>
      <point x="249" y="131" type="curve" smooth="yes"/>
      <point x="220" y="131" type="line"/>
    </contour>
  </outline>
</glyph>
<glyph name="b" format="1">
  <advance width="592"/>
  <unicode hex="0062"/>
  <outline>
    <contour>
      <point x="20" y="25" type="line" name="hr00"/>
      <point x="109" y="-8" smooth="yes"/>
      <point x="186" y="-15" smooth="yes"/>
      <point x="272" y="-15" type="curve" smooth="yes"/>
      <point x="470" y="-15" smooth="yes"/>
      <point x="557" y="152" smooth="yes"/>
      <point x="557" y="331" type="curve" smooth="yes"/>
      <point x="557" y="429" smooth="yes"/>
      <point x="519" y="515" smooth="yes"/>
      <point x="391" y="515" type="curve" smooth="yes"/>
      <point x="353" y="515"/>
      <point x="320" y="510"/>
      <point x="293" y="499" type="curve"/>
      <point x="323" y="665" type="line"/>
      <point x="130" y="650" type="line"/>
    </contour>
    <contour>
      <point x="264" y="332" type="line"/>
      <point x="272" y="366" smooth="yes"/>
      <point x="301" y="369" smooth="yes"/>
      <point x="337" y="369" type="curve" smooth="yes"/>
      <point x="366" y="369" type="line"/>
      <point x="331" y="173" type="line" smooth="yes"/>
      <point x="324" y="134" smooth="yes"/>
      <point x="297" y="131" smooth="yes"/>
      <point x="259" y="131" type="curve" smooth="yes"/>
      <point x="229" y="131" type="line"/>
    </contour>
  </outline>
</glyph>
<glyph name="c" format="1">
  <advance width="446"/>
  <unicode hex="0063"/>
  <outline>
    <contour>
      <point x="393" y="150" type="line" name="hr00"/>
      <point x="360" y="138" smooth="yes"/>
      <point x="327" y="131" smooth="yes"/>
      <point x="288" y="131" type="curve" smooth="yes"/>
      <point x="269" y="131"/>
      <point x="250" y="132"/>
      <point x="228" y="137" type="curve"/>
      <point x="259" y="316" type="line" smooth="yes"/>
      <point x="265" y="350" smooth="yes"/>
      <point x="292" y="369" smooth="yes"/>
      <point x="341" y="369" type="curve" smooth="yes"/>
      <point x="363" y="369"/>
      <point x="387" y="365"/>
      <point x="419" y="358" type="curve"/>
      <point x="466" y="494" type="line"/>
      <point x="440" y="507" smooth="yes"/>
      <point x="376" y="515" smooth="yes"/>
      <point x="326" y="515" type="curve" smooth="yes"/>
      <point x="124" y="515" smooth="yes"/>
      <point x="35" y="351" smooth="yes"/>
      <point x="35" y="167" type="curve" smooth="yes"/>
      <point x="35" y="47" smooth="yes"/>
      <point x="99" y="-15" smooth="yes"/>
      <point x="248" y="-15" type="curve" smooth="yes"/>
      <point x="301" y="-15"/>
      <point x="341" y="-9"/>
      <point x="380" y="6" type="curve"/>
    </contour>
  </outline>
</glyph>
<glyph name="d" format="1">
  <advance width="595"/>
  <unicode hex="0064"/>
  <outline>
    <contour>
      <point x="489" y="0" type="line"/>
      <point x="606" y="665" type="line"/>
      <point x="413" y="650" type="line"/>
      <point x="387" y="500" type="line"/>
      <point x="277" y="500" type="line" smooth="yes"/>
      <point x="65" y="500" smooth="yes"/>
      <point x="35" y="247" smooth="yes"/>
      <point x="35" y="168" type="curve" smooth="yes"/>
      <point x="35" y="71" smooth="yes"/>
      <point x="73" y="-15" smooth="yes"/>
      <point x="201" y="-15" type="curve" smooth="yes" name="hr01"/>
      <point x="276" y="-15"/>
      <point x="325" y="4"/>
      <point x="360" y="42" type="curve"/>
      <point x="394" y="0" type="line" name="hr02"/>
    </contour>
    <contour>
      <point x="261" y="327" type="line" smooth="yes"/>
      <point x="268" y="366" smooth="yes"/>
      <point x="296" y="369" smooth="yes"/>
      <point x="334" y="369" type="curve" smooth="yes"/>
      <point x="364" y="369" type="line"/>
      <point x="328" y="167" type="line"/>
      <point x="319" y="134" smooth="yes"/>
      <point x="292" y="131" smooth="yes"/>
      <point x="256" y="131" type="curve" smooth="yes"/>
      <point x="227" y="131" type="line"/>
    </contour>
  </outline>
</glyph>
<glyph name="e" format="1">
  <advance width="565"/>
  <unicode hex="0065"/>
  <outline>
    <contour>
      <point x="232" y="170" type="line" name="hr00"/>
      <point x="420" y="174" smooth="yes"/>
      <point x="547" y="200" smooth="yes"/>
      <point x="547" y="392" type="curve" smooth="yes"/>
      <point x="547" y="487" smooth="yes"/>
      <point x="488" y="515" smooth="yes"/>
      <point x="324" y="515" type="curve" smooth="yes"/>
      <point x="123" y="515" smooth="yes"/>
      <point x="34" y="351" smooth="yes"/>
      <point x="34" y="167" type="curve" smooth="yes"/>
      <point x="34" y="47" smooth="yes"/>
      <point x="98" y="-15" smooth="yes"/>
      <point x="247" y="-15" type="curve" smooth="yes"/>
      <point x="320" y="-15"/>
      <point x="393" y="-4"/>
      <point x="463" y="15" type="curve"/>
      <point x="466" y="162" type="line"/>
      <point x="402" y="141" smooth="yes"/>
      <point x="342" y="132" smooth="yes"/>
      <point x="283" y="132" type="curve" smooth="yes"/>
      <point x="264" y="132"/>
      <point x="245" y="133"/>
      <point x="226" y="135" type="curve"/>
    </contour>
    <contour>
      <point x="260" y="327" type="line" smooth="yes"/>
      <point x="267" y="366" smooth="yes"/>
      <point x="295" y="369" smooth="yes"/>
      <point x="333" y="369" type="curve" smooth="yes"/>
      <point x="372" y="369" type="line"/>
      <point x="364" y="328" type="line" smooth="yes"/>
      <point x="356" y="289" smooth="yes"/>
      <point x="330" y="286" smooth="yes"/>
      <point x="292" y="286" type="curve" smooth="yes"/>
      <point x="253" y="286" type="line"/>
    </contour>
  </outline>
</glyph>
<glyph name="f" format="1">
  <advance width="348"/>
  <unicode hex="0066"/>
  <outline>
    <contour>
      <point x="316" y="542" type="line" name="hr00"/>
      <point x="393" y="534" type="line"/>
      <point x="426" y="665" type="line"/>
      <point x="388" y="671" smooth="yes"/>
      <point x="354" y="675" smooth="yes"/>
      <point x="324" y="675" type="curve" smooth="yes"/>
      <point x="220" y="675" smooth="yes"/>
      <point x="157" y="636" smooth="yes"/>
      <point x="136" y="560" type="curve" smooth="yes"/>
      <point x="119" y="500" type="line"/>
      <point x="71" y="500" type="line"/>
      <point x="48" y="370" type="line"/>
      <point x="96" y="370" type="line"/>
      <point x="31" y="0" type="line"/>
      <point x="221" y="0" type="line"/>
      <point x="286" y="370" type="line"/>
      <point x="343" y="370" type="line"/>
      <point x="366" y="500" type="line"/>
      <point x="309" y="500" type="line"/>
    </contour>
  </outline>
</glyph>
<glyph name="g" format="1">
  <advance width="588"/>
  <unicode hex="0067"/>
  <outline>
    <contour>
      <point x="566" y="475" type="line" name="hr00"/>
      <point x="483" y="505" smooth="yes"/>
      <point x="419" y="515" smooth="yes"/>
      <point x="318" y="515" type="curve" smooth="yes"/>
      <point x="138" y="515" smooth="yes"/>
      <point x="30" y="357" smooth="yes"/>
      <point x="30" y="185" type="curve" smooth="yes"/>
      <point x="30" y="99" smooth="yes"/>
      <point x="67" y="15" smooth="yes"/>
      <point x="200" y="15" type="curve" smooth="yes"/>
      <point x="239" y="15"/>
      <point x="271" y="20"/>
      <point x="297" y="30" type="curve"/>
      <point x="295" y="15" type="line" smooth="yes"/>
      <point x="290" y="-13" smooth="yes"/>
      <point x="267" y="-24" smooth="yes"/>
      <point x="242" y="-25" type="curve" smooth="yes"/>
      <point x="61" y="-35" type="line"/>
      <point x="38" y="-165" type="line"/>
      <point x="305" y="-165" type="line" smooth="yes"/>
      <point x="400" y="-165" smooth="yes"/>
      <point x="464" y="-108" smooth="yes"/>
      <point x="483" y="0" type="curve" smooth="yes"/>
    </contour>
    <contour>
      <point x="256" y="327" type="line" smooth="yes"/>
      <point x="263" y="366" smooth="yes"/>
      <point x="291" y="369" smooth="yes"/>
      <point x="329" y="369" type="curve" smooth="yes"/>
      <point x="359" y="369" type="line"/>
      <point x="327" y="197" type="line" smooth="yes"/>
      <point x="321" y="163" smooth="yes"/>
      <point x="291" y="161" smooth="yes"/>
      <point x="255" y="161" type="curve" smooth="yes"/>
      <point x="226" y="161" type="line"/>
    </contour>
  </outline>
</glyph>
<glyph name="h" format="1">
  <advance width="595"/>
  <unicode hex="0068"/>
  <outline>
    <contour>
      <point x="263" y="308" type="line" smooth="yes" name="hr00"/>
      <point x="270" y="347" smooth="yes"/>
      <point x="298" y="350" smooth="yes"/>
      <point x="336" y="350" type="curve" smooth="yes"/>
      <point x="365" y="350" type="line"/>
      <point x="304" y="0" type="line"/>
      <point x="494" y="0" type="line"/>
      <point x="564" y="400" type="line" smooth="yes"/>
      <point x="565" y="408" smooth="yes"/>
      <point x="566" y="416" smooth="yes"/>
      <point x="566" y="423" type="curve" smooth="yes"/>
      <point x="566" y="481" smooth="yes"/>
      <point x="521" y="515" smooth="yes"/>
      <point x="442" y="515" type="curve" smooth="yes"/>
      <point x="388" y="515"/>
      <point x="336" y="503"/>
      <point x="293" y="482" type="curve"/>
      <point x="326" y="665" type="line"/>
      <point x="133" y="650" type="line"/>
      <point x="19" y="0" type="line"/>
      <point x="209" y="0" type="line"/>
    </contour>
  </outline>
</glyph>
<glyph name="i" format="1">
  <advance width="300"/>
  <unicode hex="0069"/>
  <outline>
    <contour>
      <point x="11" y="0" type="line" name="hr00"/>
      <point x="201" y="0" type="line"/>
      <point x="289" y="500" type="line"/>
      <point x="94" y="475" type="line"/>
    </contour>
    <contour>
      <point x="102" y="567" type="curve"/>
      <point x="102" y="529" smooth="yes"/>
      <point x="125" y="515" smooth="yes"/>
      <point x="197" y="515" type="curve" smooth="yes"/>
      <point x="291" y="515" smooth="yes"/>
      <point x="320" y="543" smooth="yes"/>
      <point x="320" y="621" type="curve" smooth="yes"/>
      <point x="320" y="659" smooth="yes"/>
      <point x="298" y="675" smooth="yes"/>
      <point x="226" y="675" type="curve" smooth="yes"/>
      <point x="144" y="675"/>
      <point x="102" y="647"/>
    </contour>
  </outline>
</glyph>
<glyph name="j" format="1">
  <advance width="300"/>
  <unicode hex="006A"/>
  <outline>
    <contour>
      <point x="-113" y="-165" type="line" name="hr00"/>
      <point x="24" y="-165" type="line" smooth="yes"/>
      <point x="118" y="-165" smooth="yes"/>
      <point x="182" y="-108" smooth="yes"/>
      <point x="201" y="0" type="curve" smooth="yes"/>
      <point x="289" y="500" type="line"/>
      <point x="94" y="475" type="line"/>
      <point x="13" y="15" type="line" smooth="yes"/>
      <point x="8" y="-13" smooth="yes"/>
      <point x="-13" y="-20" smooth="yes"/>
      <point x="-38" y="-25" type="curve" smooth="yes"/>
      <point x="-90" y="-35" type="line"/>
    </contour>
    <contour>
      <point x="102" y="567" type="curve"/>
      <point x="102" y="529" smooth="yes"/>
      <point x="125" y="515" smooth="yes"/>
      <point x="197" y="515" type="curve" smooth="yes"/>
      <point x="291" y="515" smooth="yes"/>
      <point x="320" y="543" smooth="yes"/>
      <point x="320" y="621" type="curve" smooth="yes"/>
      <point x="320" y="659" smooth="yes"/>
      <point x="298" y="675" smooth="yes"/>
      <point x="226" y="675" type="curve" smooth="yes"/>
      <point x="144" y="675"/>
      <point x="102" y="647"/>
    </contour>
  </outline>
</glyph>
<glyph name="k" format="1">
  <advance width="550"/>
  <unicode hex="006B"/>
  <outline>
    <contour>
      <point x="289" y="0" type="line" name="hr00"/>
      <point x="494" y="0" type="line"/>
      <point x="426" y="262" type="line"/>
      <point x="578" y="500" type="line"/>
      <point x="373" y="500" type="line"/>
      <point x="275" y="335" type="line"/>
      <point x="268" y="335" type="line"/>
      <point x="326" y="665" type="line"/>
      <point x="133" y="650" type="line"/>
      <point x="19" y="0" type="line"/>
      <point x="209" y="0" type="line"/>
      <point x="243" y="198" type="line"/>
      <point x="250" y="198" type="line"/>
    </contour>
  </outline>
</glyph>
<glyph name="l" format="1">
  <advance width="309"/>
  <unicode hex="006C"/>
  <outline>
    <contour>
      <point x="319" y="665" type="line" name="hr00"/>
      <point x="126" y="650" type="line"/>
      <point x="28" y="94" type="line" smooth="yes"/>
      <point x="27" y="86" smooth="yes"/>
      <point x="26" y="79" smooth="yes"/>
      <point x="26" y="73" type="curve" smooth="yes"/>
      <point x="26" y="-7"/>
      <point x="124" y="-11"/>
      <point x="238" y="-11" type="curve"/>
      <point x="272" y="136" type="line"/>
      <point x="258" y="137"/>
      <point x="242" y="140"/>
      <point x="227" y="143" type="curve"/>
    </contour>
  </outline>
</glyph>
<glyph name="m" format="1">
  <advance width="862"/>
  <unicode hex="006D"/>
  <outline>
    <contour>
      <point x="356" y="350" type="line"/>
      <point x="295" y="0" type="line"/>
      <point x="485" y="0" type="line"/>
      <point x="539" y="310" type="line" smooth="yes"/>
      <point x="546" y="348" smooth="yes"/>
      <point x="586" y="350" smooth="yes"/>
      <point x="619" y="350" type="curve" smooth="yes"/>
      <point x="632" y="350" type="line"/>
      <point x="571" y="0" type="line"/>
      <point x="761" y="0" type="line"/>
      <point x="831" y="400" type="line" smooth="yes"/>
      <point x="832" y="407" smooth="yes"/>
      <point x="833" y="414" smooth="yes"/>
      <point x="833" y="421" type="curve" smooth="yes"/>
      <point x="833" y="480" smooth="yes"/>
      <point x="782" y="515" smooth="yes"/>
      <point x="690" y="515" type="curve" smooth="yes"/>
      <point x="636" y="515"/>
      <point x="577" y="499"/>
      <point x="538" y="474" type="curve"/>
      <point x="516" y="500" smooth="yes"/>
      <point x="473" y="515" smooth="yes"/>
      <point x="414" y="515" type="curve" smooth="yes"/>
      <point x="347" y="515"/>
      <point x="278" y="491"/>
      <point x="237" y="454" type="curve"/>
      <point x="202" y="500" type="line" name="hr01"/>
      <point x="107" y="500" type="line"/>
      <point x="19" y="0" type="line"/>
      <point x="209" y="0" type="line"/>
      <point x="262" y="304" type="line" smooth="yes"/>
      <point x="270" y="348" smooth="yes"/>
      <point x="308" y="350" smooth="yes"/>
      <point x="343" y="350" type="curve" smooth="yes" name="hr02"/>
    </contour>
  </outline>
</glyph>
<glyph name="n" format="1">
  <advance width="595"/>
  <unicode hex="006E"/>
  <outline>
    <contour>
      <point x="202" y="500" type="line"/>
      <point x="107" y="500" type="line"/>
      <point x="19" y="0" type="line"/>
      <point x="209" y="0" type="line"/>
      <point x="264" y="312" type="line" smooth="yes"/>
      <point x="270" y="346" smooth="yes"/>
      <point x="300" y="350" smooth="yes"/>
      <point x="336" y="350" type="curve" smooth="yes"/>
      <point x="365" y="350" type="line"/>
      <point x="304" y="0" type="line"/>
      <point x="494" y="0" type="line"/>
      <point x="564" y="400" type="line" smooth="yes"/>
      <point x="565" y="408" smooth="yes"/>
      <point x="566" y="416" smooth="yes"/>
      <point x="566" y="423" type="curve" smooth="yes"/>
      <point x="566" y="481" smooth="yes"/>
      <point x="521" y="515" smooth="yes"/>
      <point x="442" y="515" type="curve" smooth="yes" name="hr01"/>
      <point x="363" y="515"/>
      <point x="294" y="485"/>
      <point x="241" y="450" type="curve"/>
    </contour>
  </outline>
</glyph>
<glyph name="o" format="1">
  <advance width="590"/>
  <unicode hex="006F"/>
  <outline>
    <contour>
      <point x="35" y="167" type="curve" smooth="yes" name="hr00"/>
      <point x="35" y="47" smooth="yes"/>
      <point x="99" y="-15" smooth="yes"/>
      <point x="248" y="-15" type="curve" smooth="yes"/>
      <point x="464" y="-15" smooth="yes"/>
      <point x="555" y="148" smooth="yes"/>
      <point x="555" y="332" type="curve" smooth="yes"/>
      <point x="555" y="453" smooth="yes"/>
      <point x="491" y="515" smooth="yes"/>
      <point x="341" y="515" type="curve" smooth="yes"/>
      <point x="124" y="515" smooth="yes"/>
      <point x="35" y="351" smooth="yes"/>
    </contour>
    <contour>
      <point x="261" y="327" type="line" smooth="yes"/>
      <point x="268" y="366" smooth="yes"/>
      <point x="296" y="369" smooth="yes"/>
      <point x="334" y="369" type="curve" smooth="yes"/>
      <point x="364" y="369" type="line"/>
      <point x="329" y="173" type="line" smooth="yes"/>
      <point x="322" y="134" smooth="yes"/>
      <point x="294" y="131" smooth="yes"/>
      <point x="256" y="131" type="curve" smooth="yes"/>
      <point x="227" y="131" type="line"/>
    </contour>
  </outline>
</glyph>
<glyph name="p" format="1">
  <advance width="595"/>
  <unicode hex="0070"/>
  <outline>
    <contour>
      <point x="108" y="500" type="line"/>
      <point x="-10" y="-165" type="line"/>
      <point x="183" y="-150" type="line"/>
      <point x="210" y="0" type="line"/>
      <point x="320" y="0" type="line" smooth="yes"/>
      <point x="530" y="0" smooth="yes"/>
      <point x="561" y="251" smooth="yes"/>
      <point x="561" y="331" type="curve" smooth="yes"/>
      <point x="561" y="429" smooth="yes"/>
      <point x="523" y="515" smooth="yes"/>
      <point x="395" y="515" type="curve" smooth="yes" name="hr01"/>
      <point x="316" y="515"/>
      <point x="264" y="493"/>
      <point x="230" y="450" type="curve"/>
      <point x="203" y="500" type="line" name="hr02"/>
    </contour>
    <contour>
      <point x="268" y="332" type="line"/>
      <point x="276" y="366" smooth="yes"/>
      <point x="305" y="369" smooth="yes"/>
      <point x="341" y="369" type="curve" smooth="yes"/>
      <point x="370" y="369" type="line"/>
      <point x="335" y="173" type="line" smooth="yes"/>
      <point x="328" y="134" smooth="yes"/>
      <point x="301" y="131" smooth="yes"/>
      <point x="263" y="131" type="curve" smooth="yes"/>
      <point x="233" y="131" type="line"/>
    </contour>
  </outline>
</glyph>
<glyph name="q" format="1">
  <advance width="589"/>
  <unicode hex="0071"/>
  <outline>
    <contour>
      <point x="476" y="500" type="line"/>
      <point x="444" y="472" type="line"/>
      <point x="407" y="501" smooth="yes"/>
      <point x="363" y="515" smooth="yes"/>
      <point x="307" y="515" type="curve" smooth="yes" name="hr01"/>
      <point x="104" y="515" smooth="yes"/>
      <point x="29" y="328" smooth="yes"/>
      <point x="29" y="169" type="curve" smooth="yes"/>
      <point x="29" y="73" smooth="yes"/>
      <point x="67" y="-15" smooth="yes"/>
      <point x="195" y="-15" type="curve" smooth="yes"/>
      <point x="234" y="-15"/>
      <point x="266" y="-10"/>
      <point x="293" y="0" type="curve"/>
      <point x="263" y="-165" type="line"/>
      <point x="456" y="-151" type="line"/>
      <point x="571" y="500" type="line" name="hr02"/>
    </contour>
    <contour>
      <point x="255" y="327" type="line" smooth="yes"/>
      <point x="262" y="366" smooth="yes"/>
      <point x="290" y="369" smooth="yes"/>
      <point x="328" y="369" type="curve" smooth="yes"/>
      <point x="358" y="369" type="line"/>
      <point x="323" y="173" type="line" smooth="yes"/>
      <point x="316" y="134" smooth="yes"/>
      <point x="288" y="131" smooth="yes"/>
      <point x="250" y="131" type="curve" smooth="yes"/>
      <point x="221" y="131" type="line"/>
    </contour>
  </outline>
</glyph>
<glyph name="r" format="1">
  <advance width="375"/>
  <unicode hex="0072"/>
  <outline>
    <contour>
      <point x="99" y="500" type="line"/>
      <point x="11" y="0" type="line"/>
      <point x="201" y="0" type="line"/>
      <point x="251" y="286" type="line"/>
      <point x="276" y="312"/>
      <point x="348" y="325"/>
      <point x="368" y="326" type="curve"/>
      <point x="389" y="515" type="line" name="hr01"/>
      <point x="327" y="503"/>
      <point x="278" y="478"/>
      <point x="237" y="444" type="curve"/>
      <point x="194" y="500" type="line" name="hr02"/>
    </contour>
  </outline>
</glyph>
<glyph name="s" format="1">
  <advance width="526"/>
  <unicode hex="0073"/>
  <outline>
    <contour>
      <point x="56" y="295" type="curve" smooth="yes" name="hr00"/>
      <point x="56" y="210"/>
      <point x="116" y="166"/>
      <point x="297" y="166" type="curve"/>
      <point x="291" y="134" type="line"/>
      <point x="265" y="131" smooth="yes"/>
      <point x="238" y="130" smooth="yes"/>
      <point x="212" y="130" type="curve" smooth="yes"/>
      <point x="153" y="130"/>
      <point x="97" y="138"/>
      <point x="44" y="156" type="curve"/>
      <point x="-4" y="14" type="line"/>
      <point x="57" y="-6" smooth="yes"/>
      <point x="133" y="-15" smooth="yes"/>
      <point x="233" y="-15" type="curve" smooth="yes"/>
      <point x="361" y="-15" smooth="yes"/>
      <point x="484" y="24" smooth="yes"/>
      <point x="484" y="204" type="curve" smooth="yes"/>
      <point x="484" y="281"/>
      <point x="431" y="334"/>
      <point x="249" y="334" type="curve"/>
      <point x="255" y="366" type="line"/>
      <point x="276" y="368" smooth="yes"/>
      <point x="299" y="370" smooth="yes"/>
      <point x="321" y="370" type="curve" smooth="yes"/>
      <point x="369" y="370"/>
      <point x="418" y="363"/>
      <point x="465" y="348" type="curve"/>
      <point x="511" y="484" type="line"/>
      <point x="451" y="506" smooth="yes"/>
      <point x="377" y="515" smooth="yes"/>
      <point x="296" y="515" type="curve" smooth="yes"/>
      <point x="144" y="515" smooth="yes"/>
      <point x="56" y="439" smooth="yes"/>
    </contour>
  </outline>
</glyph>
<glyph name="t" format="1">
  <advance width="364"/>
  <unicode hex="0074"/>
  <outline>
    <contour>
      <point x="50" y="371" type="line" name="hr00"/>
      <point x="97" y="371" type="line"/>
      <point x="48" y="94" type="line" smooth="yes"/>
      <point x="47" y="86" smooth="yes"/>
      <point x="46" y="79" smooth="yes"/>
      <point x="46" y="73" type="curve" smooth="yes"/>
      <point x="46" y="-7"/>
      <point x="145" y="-11"/>
      <point x="268" y="-11" type="curve"/>
      <point x="302" y="136" type="line"/>
      <point x="287" y="137"/>
      <point x="262" y="140"/>
      <point x="247" y="143" type="curve"/>
      <point x="287" y="371" type="line"/>
      <point x="353" y="371" type="line"/>
      <point x="376" y="500" type="line"/>
      <point x="310" y="500" type="line"/>
      <point x="333" y="630" type="line"/>
      <point x="134" y="580" type="line"/>
      <point x="120" y="500" type="line"/>
      <point x="73" y="500" type="line"/>
    </contour>
  </outline>
</glyph>
<glyph name="u" format="1">
  <advance width="590"/>
  <unicode hex="0075"/>
  <outline>
    <contour>
      <point x="287" y="500" type="line"/>
      <point x="97" y="500" type="line"/>
      <point x="35" y="150" type="line" smooth="yes"/>
      <point x="31" y="130" smooth="yes"/>
      <point x="30" y="112" smooth="yes"/>
      <point x="30" y="97" type="curve" smooth="yes"/>
      <point x="30" y="16" smooth="yes"/>
      <point x="75" y="-15" smooth="yes"/>
      <point x="168" y="-15" type="curve" smooth="yes"/>
      <point x="237" y="-15"/>
      <point x="297" y="9"/>
      <point x="344" y="57" type="curve"/>
      <point x="389" y="0" type="line" name="hr01"/>
      <point x="484" y="0" type="line"/>
      <point x="572" y="500" type="line"/>
      <point x="382" y="500" type="line"/>
      <point x="324" y="173" type="line" smooth="yes"/>
      <point x="317" y="134" smooth="yes"/>
      <point x="289" y="131" smooth="yes"/>
      <point x="251" y="131" type="curve" smooth="yes"/>
      <point x="222" y="131" type="line"/>
    </contour>
  </outline>
</glyph>
<glyph name="v" format="1">
  <advance width="520"/>
  <unicode hex="0076"/>
  <outline>
    <contour>
      <point x="88" y="0" type="line" name="hr00"/>
      <point x="344" y="0" type="line"/>
      <point x="551" y="500" type="line"/>
      <point x="361" y="500" type="line"/>
      <point x="251" y="175" type="line"/>
      <point x="241" y="175" type="line"/>
      <point x="241" y="500" type="line"/>
      <point x="57" y="500" type="line"/>
    </contour>
  </outline>
</glyph>
<glyph name="w" format="1">
  <advance width="800"/>
  <unicode hex="0077"/>
  <outline>
    <contour>
      <point x="79" y="0" type="line" name="hr00"/>
      <point x="310" y="0" type="line"/>
      <point x="388" y="215" type="line"/>
      <point x="396" y="215" type="line"/>
      <point x="396" y="0" type="line"/>
      <point x="630" y="0" type="line"/>
      <point x="813" y="500" type="line"/>
      <point x="626" y="500" type="line"/>
      <point x="528" y="203" type="line"/>
      <point x="517" y="203" type="line"/>
      <point x="517" y="500" type="line"/>
      <point x="375" y="500" type="line"/>
      <point x="262" y="203" type="line"/>
      <point x="251" y="203" type="line"/>
      <point x="265" y="500" type="line"/>
      <point x="79" y="500" type="line"/>
    </contour>
  </outline>
</glyph>
<glyph name="x" format="1">
  <advance width="540"/>
  <unicode hex="0078"/>
  <outline>
    <contour>
      <point x="260" y="500" type="line" name="hr00"/>
      <point x="63" y="500" type="line"/>
      <point x="138" y="258" type="line"/>
      <point x="-30" y="0" type="line"/>
      <point x="168" y="0" type="line"/>
      <point x="245" y="135" type="line"/>
      <point x="249" y="135" type="line"/>
      <point x="285" y="0" type="line"/>
      <point x="483" y="0" type="line"/>
      <point x="402" y="244" type="line"/>
      <point x="566" y="500" type="line"/>
      <point x="369" y="500" type="line"/>
      <point x="297" y="376" type="line"/>
      <point x="292" y="376" type="line"/>
    </contour>
  </outline>
</glyph>
<glyph name="y" format="1">
  <advance width="520"/>
  <unicode hex="0079"/>
  <outline>
    <contour>
      <point x="84" y="52" type="line" name="hr00"/>
      <point x="184" y="52" type="line"/>
      <point x="184" y="46" type="line"/>
      <point x="174" y="24" smooth="yes"/>
      <point x="144" y="-1" smooth="yes"/>
      <point x="63" y="-17" type="curve" smooth="yes"/>
      <point x="-29" y="-35" type="line"/>
      <point x="-51" y="-165" type="line"/>
      <point x="133" y="-165" type="line" smooth="yes"/>
      <point x="228" y="-165" smooth="yes"/>
      <point x="286" y="-139" smooth="yes"/>
      <point x="344" y="0" type="curve" smooth="yes"/>
      <point x="551" y="500" type="line"/>
      <point x="361" y="500" type="line"/>
      <point x="251" y="175" type="line"/>
      <point x="241" y="175" type="line"/>
      <point x="241" y="500" type="line"/>
      <point x="57" y="500" type="line"/>
    </contour>
  </outline>
</glyph>
<glyph name="z" format="1">
  <advance width="516"/>
  <unicode hex="007A"/>
  <outline>
    <contour>
      <point x="-3" y="100" type="line" name="hr00"/>
      <point x="-20" y="0" type="line"/>
      <point x="436" y="0" type="line"/>
      <point x="462" y="150" type="line"/>
      <point x="276" y="150" type="line"/>
      <point x="274" y="156" type="line"/>
      <point x="500" y="400" type="line"/>
      <point x="518" y="500" type="line"/>
      <point x="87" y="500" type="line"/>
      <point x="74" y="350" type="line"/>
      <point x="224" y="350" type="line"/>
      <point x="226" y="344" type="line"/>
    </contour>
  </outline>
</glyph>
<glyph name="braceleft" format="1">
  <advance width="339"/>
  <unicode hex="007B"/>
  <outline>
    <contour>
      <point x="168" y="78" type="line" name="hr00"/>
      <point x="197" y="175" type="line" smooth="yes"/>
      <point x="201" y="190" smooth="yes"/>
      <point x="204" y="204" smooth="yes"/>
      <point x="204" y="218" type="curve" smooth="yes"/>
      <point x="204" y="248"/>
      <point x="193" y="275"/>
      <point x="167" y="295" type="curve"/>
      <point x="169" y="307" type="line"/>
      <point x="200" y="324" smooth="yes"/>
      <point x="228" y="346" smooth="yes"/>
      <point x="235" y="409" type="curve" smooth="yes"/>
      <point x="247" y="526" type="line"/>
      <point x="324" y="533"/>
      <point x="326" y="533"/>
      <point x="327" y="533" type="curve"/>
      <point x="344" y="680" type="line"/>
      <point x="219" y="680" smooth="yes"/>
      <point x="98" y="676" smooth="yes"/>
      <point x="88" y="575" type="curve" smooth="yes"/>
      <point x="67" y="373" type="line"/>
      <point x="2" y="357" type="line"/>
      <point x="-18" y="245" type="line"/>
      <point x="42" y="229" type="line"/>
      <point x="-10" y="22" smooth="yes"/>
      <point x="-11" y="16" smooth="yes"/>
      <point x="-11" y="10" type="curve" smooth="yes"/>
      <point x="-11" y="-72"/>
      <point x="95" y="-76"/>
      <point x="211" y="-76" type="curve"/>
      <point x="246" y="71" type="line"/>
    </contour>
  </outline>
</glyph>
<glyph name="bar" format="1">
  <advance width="420"/>
  <unicode hex="007C"/>
  <outline>
    <contour>
      <point x="67" y="-180" type="line" name="hr00"/>
      <point x="181" y="-180" type="line"/>
      <point x="337" y="704" type="line"/>
      <point x="223" y="704" type="line"/>
    </contour>
  </outline>
</glyph>
<glyph name="braceright" format="1">
  <advance width="358"/>
  <unicode hex="007D"/>
  <outline>
    <contour>
      <point x="161" y="526" type="line" name="hr00"/>
      <point x="132" y="429" type="line" smooth="yes"/>
      <point x="128" y="414" smooth="yes"/>
      <point x="125" y="400" smooth="yes"/>
      <point x="125" y="386" type="curve" smooth="yes"/>
      <point x="125" y="356"/>
      <point x="136" y="329"/>
      <point x="162" y="309" type="curve"/>
      <point x="160" y="297" type="line"/>
      <point x="129" y="280" smooth="yes"/>
      <point x="101" y="258" smooth="yes"/>
      <point x="94" y="195" type="curve" smooth="yes"/>
      <point x="82" y="78" type="line"/>
      <point x="5" y="71"/>
      <point x="3" y="71"/>
      <point x="2" y="71" type="curve"/>
      <point x="-15" y="-76" type="line"/>
      <point x="110" y="-76" smooth="yes"/>
      <point x="231" y="-72" smooth="yes"/>
      <point x="241" y="29" type="curve" smooth="yes"/>
      <point x="262" y="231" type="line"/>
      <point x="327" y="247" type="line"/>
      <point x="347" y="359" type="line"/>
      <point x="287" y="375" type="line"/>
      <point x="339" y="582" smooth="yes"/>
      <point x="340" y="588" smooth="yes"/>
      <point x="340" y="594" type="curve" smooth="yes"/>
      <point x="340" y="676"/>
      <point x="234" y="680"/>
      <point x="118" y="680" type="curve"/>
      <point x="83" y="533" type="line"/>
    </contour>
  </outline>
</glyph>
<glyph name="exclamdown" format="1">
  <advance width="330"/>
  <unicode hex="00A1"/>
  <outline>
    <contour>
      <point x="85" y="338" type="line" name="hr00"/>
      <point x="-20" y="-90" type="line" smooth="yes"/>
      <point x="-21" y="-92" smooth="yes"/>
      <point x="-21" y="-95" smooth="yes"/>
      <point x="-21" y="-97" type="curve" smooth="yes"/>
      <point x="-21" y="-109" smooth="yes"/>
      <point x="-12" y="-117" smooth="yes"/>
      <point x="10" y="-117" type="curve" smooth="yes"/>
      <point x="158" y="-117" type="line" smooth="yes"/>
      <point x="186" y="-117" smooth="yes"/>
      <point x="197" y="-105" smooth="yes"/>
      <point x="199" y="-90" type="curve" smooth="yes"/>
      <point x="246" y="338" type="line"/>
    </contour>
    <contour>
      <point x="292" y="464" type="curve" smooth="yes"/>
      <point x="292" y="500" smooth="yes"/>
      <point x="269" y="515" smooth="yes"/>
      <point x="196" y="515" type="curve" smooth="yes"/>
      <point x="103" y="515" smooth="yes"/>
      <point x="74" y="486" smooth="yes"/>
      <point x="74" y="412" type="curve" smooth="yes"/>
      <point x="74" y="376" smooth="yes"/>
      <point x="97" y="359" smooth="yes"/>
      <point x="168" y="359" type="curve" smooth="yes"/>
      <point x="248" y="359" smooth="yes"/>
      <point x="292" y="386" smooth="yes"/>
    </contour>
  </outline>
</glyph>
<glyph name="cent" format="1">
  <advance width="459"/>
  <unicode hex="00A2"/>
  <outline>
    <contour>
      <point x="219" y="504" type="line" name="hr00"/>
      <point x="58" y="463" smooth="yes"/>
      <point x="25" y="243" smooth="yes"/>
      <point x="25" y="172" type="curve" smooth="yes"/>
      <point x="25" y="99"/>
      <point x="55" y="60"/>
      <point x="120" y="44" type="curve"/>
      <point x="97" y="-64" type="line"/>
      <point x="219" y="-64" type="line"/>
      <point x="241" y="35" type="line"/>
      <point x="282" y="36"/>
      <point x="315" y="43"/>
      <point x="349" y="56" type="curve"/>
      <point x="369" y="201" type="line"/>
      <point x="334" y="190" smooth="yes"/>
      <point x="298" y="186" smooth="yes"/>
      <point x="267" y="186" type="curve" smooth="yes"/>
      <point x="251" y="186"/>
      <point x="237" y="187"/>
      <point x="222" y="189" type="curve"/>
      <point x="247" y="302" type="line" smooth="yes"/>
      <point x="257" y="347" smooth="yes"/>
      <point x="289" y="351" smooth="yes"/>
      <point x="319" y="351" type="curve" smooth="yes"/>
      <point x="385" y="351" type="line"/>
      <point x="438" y="496" type="line"/>
      <point x="409" y="504"/>
      <point x="373" y="510"/>
      <point x="342" y="513" type="curve"/>
      <point x="361" y="600" type="line"/>
      <point x="239" y="600" type="line"/>
    </contour>
  </outline>
</glyph>
<glyph name="sterling" format="1">
  <advance width="586"/>
  <unicode hex="00A3"/>
  <outline>
    <contour>
      <point x="441" y="262" type="line" name="hr00"/>
      <point x="469" y="369" type="line"/>
      <point x="325" y="369" type="line"/>
      <point x="341" y="428" type="line" smooth="yes"/>
      <point x="353" y="473" smooth="yes"/>
      <point x="383" y="477" smooth="yes"/>
      <point x="419" y="477" type="curve" smooth="yes"/>
      <point x="512" y="477" type="line"/>
      <point x="566" y="622" type="line"/>
      <point x="525" y="632" smooth="yes"/>
      <point x="473" y="641" smooth="yes"/>
      <point x="392" y="641" type="curve" smooth="yes"/>
      <point x="273" y="641" smooth="yes"/>
      <point x="191" y="573" smooth="yes"/>
      <point x="154" y="443" type="curve" smooth="yes"/>
      <point x="133" y="369" type="line"/>
      <point x="61" y="369" type="line"/>
      <point x="42" y="262" type="line"/>
      <point x="103" y="262" type="line"/>
      <point x="66" y="135" type="line"/>
      <point x="13" y="100" type="line"/>
      <point x="-4" y="0" type="line"/>
      <point x="477" y="0" type="line"/>
      <point x="477" y="160" type="line"/>
      <point x="270" y="160" type="line"/>
      <point x="297" y="262" type="line"/>
    </contour>
  </outline>
</glyph>
<glyph name="yen" format="1">
  <advance width="560"/>
  <unicode hex="00A5"/>
  <outline>
    <contour>
      <point x="278" y="625" type="line" name="hr00"/>
      <point x="77" y="625" type="line"/>
      <point x="124" y="369" type="line"/>
      <point x="61" y="369" type="line"/>
      <point x="42" y="262" type="line"/>
      <point x="143" y="262" type="line"/>
      <point x="151" y="212" type="line"/>
      <point x="33" y="212" type="line"/>
      <point x="14" y="105" type="line"/>
      <point x="147" y="105" type="line"/>
      <point x="129" y="0" type="line"/>
      <point x="319" y="0" type="line"/>
      <point x="337" y="105" type="line"/>
      <point x="470" y="105" type="line"/>
      <point x="489" y="212" type="line"/>
      <point x="370" y="212" type="line"/>
      <point x="397" y="262" type="line"/>
      <point x="498" y="262" type="line"/>
      <point x="517" y="369" type="line"/>
      <point x="454" y="369" type="line"/>
      <point x="590" y="625" type="line"/>
      <point x="390" y="625" type="line"/>
      <point x="295" y="391" type="line"/>
      <point x="289" y="391" type="line"/>
    </contour>
  </outline>
</glyph>
<glyph name="brokenbar" format="1">
  <advance width="420"/>
  <unicode hex="00A6"/>
  <outline>
    <contour>
      <point x="164" y="368" type="line" name="hr00"/>
      <point x="278" y="368" type="line"/>
      <point x="338" y="704" type="line"/>
      <point x="224" y="704" type="line"/>
    </contour>
    <contour>
      <point x="68" y="-180" type="line"/>
      <point x="182" y="-180" type="line"/>
      <point x="241" y="156" type="line"/>
      <point x="127" y="156" type="line"/>
    </contour>
  </outline>
</glyph>
<glyph name="section" format="1">
  <advance width="588"/>
  <unicode hex="00A7"/>
  <outline>
    <contour>
      <point x="364" y="203" type="line" name="hr00"/>
      <point x="255" y="203" type="line" smooth="yes"/>
      <point x="223" y="203" smooth="yes"/>
      <point x="214" y="213" smooth="yes"/>
      <point x="214" y="233" type="curve" smooth="yes"/>
      <point x="214" y="239" smooth="yes"/>
      <point x="215" y="246" smooth="yes"/>
      <point x="216" y="254" type="curve" smooth="yes"/>
      <point x="222" y="290" type="line"/>
      <point x="331" y="290" type="line" smooth="yes"/>
      <point x="363" y="290" smooth="yes"/>
      <point x="372" y="280" smooth="yes"/>
      <point x="372" y="260" type="curve" smooth="yes"/>
      <point x="372" y="254" smooth="yes"/>
      <point x="371" y="247" smooth="yes"/>
      <point x="370" y="239" type="curve" smooth="yes"/>
    </contour>
    <contour>
      <point x="-8" y="-91" type="line"/>
      <point x="58" y="-112" smooth="yes"/>
      <point x="134" y="-121" smooth="yes"/>
      <point x="204" y="-121" type="curve" smooth="yes"/>
      <point x="334" y="-121" smooth="yes"/>
      <point x="487" y="-100" smooth="yes"/>
      <point x="487" y="100" type="curve" smooth="yes"/>
      <point x="487" y="120"/>
      <point x="484" y="138"/>
      <point x="476" y="155" type="curve"/>
      <point x="499" y="186" smooth="yes"/>
      <point x="523" y="246" smooth="yes"/>
      <point x="523" y="306" type="curve" smooth="yes"/>
      <point x="523" y="383"/>
      <point x="471" y="432"/>
      <point x="290" y="432" type="curve"/>
      <point x="296" y="466" type="line"/>
      <point x="511" y="466" type="line"/>
      <point x="554" y="593" type="line"/>
      <point x="492" y="611" smooth="yes"/>
      <point x="422" y="618" smooth="yes"/>
      <point x="357" y="618" type="curve" smooth="yes"/>
      <point x="222" y="618" smooth="yes"/>
      <point x="90" y="589" smooth="yes"/>
      <point x="90" y="390" type="curve" smooth="yes"/>
      <point x="90" y="373"/>
      <point x="92" y="357"/>
      <point x="100" y="342" type="curve"/>
      <point x="78" y="311" smooth="yes"/>
      <point x="54" y="249" smooth="yes"/>
      <point x="54" y="190" type="curve" smooth="yes"/>
      <point x="54" y="106"/>
      <point x="113" y="65"/>
      <point x="296" y="65" type="curve"/>
      <point x="290" y="31" type="line"/>
      <point x="35" y="31" type="line"/>
    </contour>
  </outline>
</glyph>
<glyph name="dieresis" format="1">
  <advance width="430"/>
  <unicode hex="00A8"/>
  <outline>
    <contour>
      <point x="333" y="708" type="curve" name="hr00"/>
      <point x="267" y="708" smooth="yes"/>
      <point x="242" y="679" smooth="yes"/>
      <point x="242" y="600" type="curve" smooth="yes"/>
      <point x="242" y="566" smooth="yes"/>
      <point x="258" y="552" smooth="yes"/>
      <point x="306" y="552" type="curve" smooth="yes"/>
      <point x="372" y="552" smooth="yes"/>
      <point x="397" y="581" smooth="yes"/>
      <point x="397" y="660" type="curve" smooth="yes"/>
      <point x="397" y="694" smooth="yes"/>
      <point x="381" y="708" smooth="yes"/>
    </contour>
    <contour>
      <point x="125" y="708" type="curve"/>
      <point x="59" y="708" smooth="yes"/>
      <point x="34" y="679" smooth="yes"/>
      <point x="34" y="600" type="curve" smooth="yes"/>
      <point x="34" y="566" smooth="yes"/>
      <point x="50" y="552" smooth="yes"/>
      <point x="98" y="552" type="curve" smooth="yes"/>
      <point x="163" y="552" smooth="yes"/>
      <point x="189" y="581" smooth="yes"/>
      <point x="189" y="660" type="curve" smooth="yes"/>
      <point x="189" y="694" smooth="yes"/>
      <point x="172" y="708" smooth="yes"/>
    </contour>
  </outline>
</glyph>
<glyph name="copyright" format="1">
  <advance width="563"/>
  <unicode hex="00A9"/>
  <outline>
    <contour>
      <point x="348" y="375" type="line" name="hr00"/>
      <point x="325" y="366" smooth="yes"/>
      <point x="297" y="361" smooth="yes"/>
      <point x="274" y="361" type="curve" smooth="yes"/>
      <point x="266" y="361"/>
      <point x="255" y="363"/>
      <point x="244" y="364" type="curve"/>
      <point x="265" y="484" type="line" smooth="yes"/>
      <point x="268" y="500" smooth="yes"/>
      <point x="280" y="503" smooth="yes"/>
      <point x="306" y="503" type="curve" smooth="yes"/>
      <point x="319" y="503"/>
      <point x="343" y="501"/>
      <point x="362" y="496" type="curve"/>
      <point x="390" y="574" type="line"/>
      <point x="373" y="583" smooth="yes"/>
      <point x="335" y="588" smooth="yes"/>
      <point x="314" y="588" type="curve" smooth="yes"/>
      <point x="207" y="588" smooth="yes"/>
      <point x="171" y="535" smooth="yes"/>
      <point x="152" y="431" type="curve" smooth="yes"/>
      <point x="148" y="408" smooth="yes"/>
      <point x="146" y="388" smooth="yes"/>
      <point x="146" y="371" type="curve" smooth="yes"/>
      <point x="146" y="306" smooth="yes"/>
      <point x="175" y="274" smooth="yes"/>
      <point x="259" y="274" type="curve" smooth="yes"/>
      <point x="291" y="274"/>
      <point x="314" y="278"/>
      <point x="339" y="288" type="curve"/>
    </contour>
    <contour>
      <point x="27" y="353" type="curve" smooth="yes"/>
      <point x="27" y="238" smooth="yes"/>
      <point x="88" y="179" smooth="yes"/>
      <point x="231" y="179" type="curve" smooth="yes"/>
      <point x="446" y="179" smooth="yes"/>
      <point x="521" y="336" smooth="yes"/>
      <point x="521" y="511" type="curve" smooth="yes"/>
      <point x="521" y="624" smooth="yes"/>
      <point x="461" y="682" smooth="yes"/>
      <point x="320" y="682" type="curve" smooth="yes"/>
      <point x="106" y="682" smooth="yes"/>
      <point x="27" y="528" smooth="yes"/>
    </contour>
    <contour>
      <point x="312" y="636" type="curve" smooth="yes"/>
      <point x="423" y="636" smooth="yes"/>
      <point x="474" y="603" smooth="yes"/>
      <point x="474" y="507" type="curve" smooth="yes"/>
      <point x="474" y="327" smooth="yes"/>
      <point x="409" y="225" smooth="yes"/>
      <point x="239" y="225" type="curve" smooth="yes"/>
      <point x="126" y="225" smooth="yes"/>
      <point x="75" y="258" smooth="yes"/>
      <point x="75" y="356" type="curve" smooth="yes"/>
      <point x="75" y="535" smooth="yes"/>
      <point x="142" y="636" smooth="yes"/>
    </contour>
  </outline>
</glyph>
<glyph name="ordfeminine" format="1">
  <advance width="458"/>
  <unicode hex="00AA"/>
  <outline>
    <contour>
      <point x="29" y="191" type="line" name="hr00"/>
      <point x="352" y="191" type="line" smooth="yes"/>
      <point x="380" y="191" smooth="yes"/>
      <point x="399" y="193" smooth="yes"/>
      <point x="404" y="222" type="curve" smooth="yes"/>
      <point x="417" y="300" type="line"/>
      <point x="94" y="300" type="line" smooth="yes"/>
      <point x="66" y="300" smooth="yes"/>
      <point x="48" y="300" smooth="yes"/>
      <point x="43" y="271" type="curve" smooth="yes"/>
    </contour>
    <contour>
      <point x="485" y="738" type="line"/>
      <point x="418" y="758" smooth="yes"/>
      <point x="361" y="770" smooth="yes"/>
      <point x="285" y="770" type="curve" smooth="yes"/>
      <point x="131" y="770" smooth="yes"/>
      <point x="53" y="631" smooth="yes"/>
      <point x="53" y="489" type="curve" smooth="yes"/>
      <point x="53" y="412" smooth="yes"/>
      <point x="83" y="344" smooth="yes"/>
      <point x="187" y="344" type="curve" smooth="yes"/>
      <point x="247" y="344"/>
      <point x="278" y="371"/>
      <point x="306" y="402" type="curve"/>
      <point x="342" y="356" type="line"/>
      <point x="419" y="356" type="line"/>
    </contour>
    <contour>
      <point x="235" y="619" type="line"/>
      <point x="241" y="650" smooth="yes"/>
      <point x="263" y="653" smooth="yes"/>
      <point x="294" y="653" type="curve" smooth="yes"/>
      <point x="318" y="653" type="line"/>
      <point x="289" y="490" type="line" smooth="yes"/>
      <point x="284" y="463" smooth="yes"/>
      <point x="260" y="461" smooth="yes"/>
      <point x="231" y="461" type="curve" smooth="yes"/>
      <point x="208" y="461" type="line"/>
    </contour>
  </outline>
</glyph>
<glyph name="guillemotleft" format="1">
  <advance width="575"/>
  <unicode hex="00AB"/>
  <outline>
    <contour>
      <point x="36" y="300" type="line" name="hr00"/>
      <point x="19" y="200" type="line"/>
      <point x="172" y="25" type="line"/>
      <point x="258" y="76" type="line"/>
      <point x="194" y="250" type="line"/>
      <point x="319" y="424" type="line"/>
      <point x="251" y="475" type="line"/>
    </contour>
    <contour>
      <point x="273" y="300" type="line"/>
      <point x="251" y="200" type="line"/>
      <point x="410" y="25" type="line"/>
      <point x="495" y="76" type="line"/>
      <point x="431" y="250" type="line"/>
      <point x="556" y="424" type="line"/>
      <point x="489" y="475" type="line"/>
    </contour>
  </outline>
</glyph>
<glyph name="registered" format="1">
  <advance width="563"/>
  <unicode hex="00AE"/>
  <outline>
    <contour>
      <point x="27" y="353" type="curve" smooth="yes" name="hr00"/>
      <point x="27" y="238" smooth="yes"/>
      <point x="88" y="179" smooth="yes"/>
      <point x="231" y="179" type="curve" smooth="yes"/>
      <point x="446" y="179" smooth="yes"/>
      <point x="521" y="336" smooth="yes"/>
      <point x="521" y="511" type="curve" smooth="yes"/>
      <point x="521" y="624" smooth="yes"/>
      <point x="461" y="682" smooth="yes"/>
      <point x="320" y="682" type="curve" smooth="yes"/>
      <point x="106" y="682" smooth="yes"/>
      <point x="27" y="528" smooth="yes"/>
    </contour>
    <contour>
      <point x="312" y="636" type="curve" smooth="yes"/>
      <point x="423" y="636" smooth="yes"/>
      <point x="474" y="603" smooth="yes"/>
      <point x="474" y="507" type="curve" smooth="yes"/>
      <point x="474" y="327" smooth="yes"/>
      <point x="409" y="225" smooth="yes"/>
      <point x="239" y="225" type="curve" smooth="yes"/>
      <point x="126" y="225" smooth="yes"/>
      <point x="75" y="258" smooth="yes"/>
      <point x="75" y="356" type="curve" smooth="yes"/>
      <point x="75" y="535" smooth="yes"/>
      <point x="142" y="636" smooth="yes"/>
    </contour>
    <contour>
      <point x="385" y="281" type="line"/>
      <point x="353" y="380" type="line"/>
      <point x="401" y="406" smooth="yes"/>
      <point x="413" y="470" smooth="yes"/>
      <point x="413" y="507" type="curve" smooth="yes"/>
      <point x="413" y="549" smooth="yes"/>
      <point x="393" y="581" smooth="yes"/>
      <point x="329" y="581" type="curve" smooth="yes"/>
      <point x="186" y="581" type="line"/>
      <point x="133" y="281" type="line"/>
      <point x="230" y="281" type="line"/>
      <point x="245" y="368" type="line"/>
      <point x="256" y="368" type="line"/>
      <point x="278" y="281" type="line"/>
    </contour>
    <contour>
      <point x="268" y="498" type="line"/>
      <point x="284" y="498" type="line" smooth="yes"/>
      <point x="307" y="498" smooth="yes"/>
      <point x="309" y="495" smooth="yes"/>
      <point x="309" y="486" type="curve" smooth="yes"/>
      <point x="309" y="485" smooth="yes"/>
      <point x="309" y="484" smooth="yes"/>
      <point x="305" y="463" type="curve" smooth="yes"/>
      <point x="302" y="449" smooth="yes"/>
      <point x="295" y="448" smooth="yes"/>
      <point x="275" y="448" type="curve" smooth="yes"/>
      <point x="259" y="448" type="line"/>
    </contour>
  </outline>
</glyph>
<glyph name="macron" format="1">
  <advance width="399"/>
  <unicode hex="00AF"/>
  <outline>
    <contour>
      <point x="331" y="568" type="line" name="hr00"/>
      <point x="342" y="632" type="line" smooth="yes"/>
      <point x="344" y="643" smooth="yes"/>
      <point x="346" y="658" smooth="yes"/>
      <point x="346" y="666" type="curve" smooth="yes"/>
      <point x="346" y="688" smooth="yes"/>
      <point x="336" y="695" smooth="yes"/>
      <point x="303" y="695" type="curve" smooth="yes"/>
      <point x="68" y="695" type="line"/>
      <point x="57" y="632" type="line" smooth="yes"/>
      <point x="55" y="618" smooth="yes"/>
      <point x="53" y="604" smooth="yes"/>
      <point x="53" y="599" type="curve" smooth="yes"/>
      <point x="53" y="576" smooth="yes"/>
      <point x="64" y="568" smooth="yes"/>
      <point x="97" y="568" type="curve" smooth="yes"/>
    </contour>
  </outline>
</glyph>
<glyph name="degree" format="1">
  <advance width="407"/>
  <unicode hex="00B0"/>
  <outline>
    <contour>
      <point x="33" y="477" type="curve" smooth="yes" name="hr00"/>
      <point x="33" y="397" smooth="yes"/>
      <point x="74" y="357" smooth="yes"/>
      <point x="173" y="357" type="curve" smooth="yes"/>
      <point x="315" y="357" smooth="yes"/>
      <point x="373" y="464" smooth="yes"/>
      <point x="373" y="585" type="curve" smooth="yes"/>
      <point x="373" y="664" smooth="yes"/>
      <point x="332" y="704" smooth="yes"/>
      <point x="235" y="704" type="curve" smooth="yes"/>
      <point x="93" y="704" smooth="yes"/>
      <point x="33" y="599" smooth="yes"/>
    </contour>
    <contour>
      <point x="149" y="562" type="line" smooth="yes"/>
      <point x="155" y="599" smooth="yes"/>
      <point x="180" y="600" smooth="yes"/>
      <point x="220" y="600" type="curve" smooth="yes"/>
      <point x="274" y="600" type="line"/>
      <point x="257" y="500" type="line" smooth="yes"/>
      <point x="250" y="462" smooth="yes"/>
      <point x="225" y="461" smooth="yes"/>
      <point x="191" y="461" type="curve" smooth="yes"/>
      <point x="131" y="461" type="line"/>
    </contour>
  </outline>
</glyph>
<glyph name="acute" format="1">
  <advance width="429"/>
  <unicode hex="00B4"/>
  <outline>
    <contour>
      <point x="285" y="574" type="line" smooth="yes" name="hr00"/>
      <point x="300" y="577"/>
      <point x="304" y="580"/>
      <point x="311" y="586" type="curve"/>
      <point x="355" y="624" smooth="yes"/>
      <point x="356" y="625" smooth="yes"/>
      <point x="356" y="625" type="curve" smooth="yes"/>
      <point x="358" y="628" smooth="yes"/>
      <point x="360" y="631" smooth="yes"/>
      <point x="360" y="636" type="curve" smooth="yes"/>
      <point x="360" y="641"/>
      <point x="357" y="647"/>
      <point x="351" y="654" type="curve"/>
      <point x="288" y="728" type="line"/>
      <point x="283" y="734" smooth="yes"/>
      <point x="277" y="739" smooth="yes"/>
      <point x="270" y="739" type="curve" smooth="yes"/>
      <point x="266" y="739"/>
      <point x="262" y="737"/>
      <point x="259" y="735" type="curve"/>
      <point x="70" y="596" type="line"/>
      <point x="111" y="539" type="line"/>
    </contour>
  </outline>
</glyph>
<glyph name="mu" format="1">
  <advance width="590"/>
  <unicode hex="00B5"/>
  <outline>
    <contour>
      <point x="288" y="500" type="line"/>
      <point x="98" y="500" type="line"/>
      <point x="-20" y="-165" type="line"/>
      <point x="103" y="-165" type="line"/>
      <point x="164" y="0" type="line"/>
      <point x="232" y="0" type="line" smooth="yes"/>
      <point x="288" y="0"/>
      <point x="327" y="14"/>
      <point x="356" y="43" type="curve"/>
      <point x="390" y="0" type="line"/>
      <point x="485" y="0" type="line"/>
      <point x="575" y="515" type="line" name="hr01"/>
      <point x="383" y="500" type="line" name="hr02"/>
      <point x="325" y="173" type="line" smooth="yes"/>
      <point x="318" y="134" smooth="yes"/>
      <point x="290" y="131" smooth="yes"/>
      <point x="252" y="131" type="curve" smooth="yes"/>
      <point x="223" y="131" type="line"/>
    </contour>
  </outline>
</glyph>
<glyph name="paragraph" format="1">
  <advance width="604"/>
  <unicode hex="00B6"/>
  <outline>
    <contour>
      <point x="234" y="0" type="line" name="hr00"/>
      <point x="315" y="465" type="line"/>
      <point x="343" y="465" type="line"/>
      <point x="258" y="-12" type="line" smooth="yes"/>
      <point x="253" y="-40" smooth="yes"/>
      <point x="230" y="-48" smooth="yes"/>
      <point x="206" y="-55" type="curve" smooth="yes"/>
      <point x="4" y="-114" type="line"/>
      <point x="-5" y="-165" type="line"/>
      <point x="275" y="-165" type="line" smooth="yes"/>
      <point x="369" y="-165" smooth="yes"/>
      <point x="427" y="-108" smooth="yes"/>
      <point x="446" y="0" type="curve" smooth="yes"/>
      <point x="528" y="465" type="line"/>
      <point x="576" y="465" type="line"/>
      <point x="605" y="625" type="line"/>
      <point x="302" y="625" type="line" smooth="yes"/>
      <point x="117" y="625" smooth="yes"/>
      <point x="54" y="494" smooth="yes"/>
      <point x="54" y="359" type="curve" smooth="yes"/>
      <point x="54" y="294"/>
      <point x="79" y="232"/>
      <point x="173" y="218" type="curve"/>
      <point x="131" y="-25" type="line"/>
    </contour>
  </outline>
</glyph>
<glyph name="cedilla" format="1">
  <advance width="469"/>
  <unicode hex="00B8"/>
  <outline>
    <contour>
      <point x="203" y="-26" type="line" smooth="yes" name="hr00"/>
      <point x="198" y="-54" smooth="yes"/>
      <point x="192" y="-58" smooth="yes"/>
      <point x="166" y="-58" type="curve" smooth="yes"/>
      <point x="135" y="-58" type="line"/>
      <point x="109" y="-146" type="line"/>
      <point x="138" y="-158" smooth="yes"/>
      <point x="170" y="-165" smooth="yes"/>
      <point x="204" y="-165" type="curve" smooth="yes"/>
      <point x="287" y="-165" smooth="yes"/>
      <point x="326" y="-114" smooth="yes"/>
      <point x="326" y="-64" type="curve" smooth="yes"/>
      <point x="326" y="-29"/>
      <point x="307" y="5"/>
      <point x="269" y="21" type="curve"/>
      <point x="211" y="21" type="line"/>
    </contour>
  </outline>
</glyph>
<glyph name="ordmasculine" format="1">
  <advance width="458"/>
  <unicode hex="00BA"/>
  <outline>
    <contour>
      <point x="62" y="490" type="curve" smooth="yes" name="hr00"/>
      <point x="62" y="394" smooth="yes"/>
      <point x="113" y="344" smooth="yes"/>
      <point x="233" y="344" type="curve" smooth="yes"/>
      <point x="407" y="344" smooth="yes"/>
      <point x="480" y="475" smooth="yes"/>
      <point x="480" y="623" type="curve" smooth="yes"/>
      <point x="480" y="720" smooth="yes"/>
      <point x="429" y="770" smooth="yes"/>
      <point x="308" y="770" type="curve" smooth="yes"/>
      <point x="134" y="770" smooth="yes"/>
      <point x="62" y="638" smooth="yes"/>
    </contour>
    <contour>
      <point x="244" y="619" type="line" smooth="yes"/>
      <point x="249" y="650" smooth="yes"/>
      <point x="272" y="653" smooth="yes"/>
      <point x="302" y="653" type="curve" smooth="yes"/>
      <point x="326" y="653" type="line"/>
      <point x="298" y="495" type="line" smooth="yes"/>
      <point x="293" y="464" smooth="yes"/>
      <point x="270" y="461" smooth="yes"/>
      <point x="240" y="461" type="curve" smooth="yes"/>
      <point x="216" y="461" type="line"/>
    </contour>
    <contour>
      <point x="29" y="191" type="line"/>
      <point x="352" y="191" type="line" smooth="yes"/>
      <point x="380" y="191" smooth="yes"/>
      <point x="399" y="193" smooth="yes"/>
      <point x="404" y="222" type="curve" smooth="yes"/>
      <point x="417" y="300" type="line"/>
      <point x="94" y="300" type="line" smooth="yes"/>
      <point x="66" y="300" smooth="yes"/>
      <point x="48" y="300" smooth="yes"/>
      <point x="43" y="271" type="curve" smooth="yes"/>
    </contour>
  </outline>
</glyph>
<glyph name="guillemotright" format="1">
  <advance width="575"/>
  <unicode hex="00BB"/>
  <outline>
    <contour>
      <point x="380" y="475" type="line" name="hr00"/>
      <point x="294" y="424" type="line"/>
      <point x="359" y="250" type="line"/>
      <point x="233" y="76" type="line"/>
      <point x="301" y="25" type="line"/>
      <point x="516" y="200" type="line"/>
      <point x="533" y="300" type="line"/>
    </contour>
    <contour>
      <point x="143" y="475" type="line"/>
      <point x="57" y="424" type="line"/>
      <point x="122" y="250" type="line"/>
      <point x="-4" y="76" type="line"/>
      <point x="64" y="25" type="line"/>
      <point x="279" y="200" type="line"/>
      <point x="296" y="300" type="line"/>
    </contour>
  </outline>
</glyph>
<glyph name="questiondown" format="1">
  <advance width="434"/>
  <unicode hex="00BF"/>
  <outline>
    <contour>
      <point x="158" y="206" type="line" name="hr00"/>
      <point x="14" y="161" smooth="yes"/>
      <point x="-40" y="97" smooth="yes"/>
      <point x="-40" y="-15" type="curve" smooth="yes"/>
      <point x="-40" y="-121" smooth="yes"/>
      <point x="55" y="-132" smooth="yes"/>
      <point x="165" y="-132" type="curve" smooth="yes"/>
      <point x="231" y="-132"/>
      <point x="302" y="-121"/>
      <point x="368" y="-104" type="curve"/>
      <point x="370" y="39" type="line"/>
      <point x="344" y="30" smooth="yes"/>
      <point x="260" y="19" smooth="yes"/>
      <point x="196" y="19" type="curve" smooth="yes"/>
      <point x="181" y="19"/>
      <point x="166" y="20"/>
      <point x="154" y="21" type="curve"/>
      <point x="160" y="55" type="line"/>
      <point x="268" y="92" type="line" smooth="yes"/>
      <point x="326" y="112" smooth="yes"/>
      <point x="337" y="122" smooth="yes"/>
      <point x="339" y="145" type="curve" smooth="yes"/>
      <point x="359" y="333" type="line"/>
      <point x="197" y="333" type="line"/>
    </contour>
    <contour>
      <point x="404" y="464" type="curve" smooth="yes"/>
      <point x="404" y="500" smooth="yes"/>
      <point x="381" y="515" smooth="yes"/>
      <point x="309" y="515" type="curve" smooth="yes"/>
      <point x="215" y="515" smooth="yes"/>
      <point x="186" y="486" smooth="yes"/>
      <point x="186" y="412" type="curve" smooth="yes"/>
      <point x="186" y="376" smooth="yes"/>
      <point x="209" y="359" smooth="yes"/>
      <point x="281" y="359" type="curve" smooth="yes"/>
      <point x="361" y="359" smooth="yes"/>
      <point x="404" y="387" smooth="yes"/>
    </contour>
  </outline>
</glyph>
<glyph name="AE" format="1">
  <advance width="748"/>
  <unicode hex="00C6"/>
  <outline>
    <contour>
      <point x="130" y="0" type="line"/>
      <point x="169" y="99" type="line" name="hr01"/>
      <point x="326" y="99" type="line"/>
      <point x="330" y="0" type="line" name="hr02"/>
      <point x="692" y="0" type="line"/>
      <point x="720" y="160" type="line"/>
      <point x="519" y="160" type="line"/>
      <point x="514" y="236" type="line"/>
      <point x="647" y="236" type="line"/>
      <point x="673" y="381" type="line"/>
      <point x="504" y="381" type="line"/>
      <point x="497" y="465" type="line"/>
      <point x="701" y="465" type="line"/>
      <point x="754" y="625" type="line"/>
      <point x="193" y="625" type="line"/>
      <point x="-70" y="0" type="line"/>
    </contour>
    <contour>
      <point x="301" y="433" type="line"/>
      <point x="311" y="433" type="line"/>
      <point x="311" y="258" type="line" name="hr03"/>
      <point x="231" y="258" type="line"/>
    </contour>
  </outline>
</glyph>
<glyph name="Thorn" format="1">
  <advance width="560"/>
  <unicode hex="00DE"/>
  <outline>
    <contour>
      <point x="335" y="76" type="line" smooth="yes" name="hr00"/>
      <point x="537" y="76" smooth="yes"/>
      <point x="575" y="300" smooth="yes"/>
      <point x="575" y="391" type="curve" smooth="yes"/>
      <point x="575" y="482" smooth="yes"/>
      <point x="534" y="550" smooth="yes"/>
      <point x="404" y="550" type="curve" smooth="yes"/>
      <point x="294" y="550" type="line"/>
      <point x="308" y="625" type="line"/>
      <point x="118" y="625" type="line"/>
      <point x="8" y="0" type="line"/>
      <point x="198" y="0" type="line"/>
      <point x="211" y="76" type="line"/>
    </contour>
    <contour>
      <point x="266" y="390" type="line"/>
      <point x="310" y="390" type="line" smooth="yes"/>
      <point x="344" y="390" smooth="yes"/>
      <point x="370" y="387" smooth="yes"/>
      <point x="370" y="359" type="curve" smooth="yes"/>
      <point x="370" y="356" smooth="yes"/>
      <point x="370" y="352" smooth="yes"/>
      <point x="369" y="348" type="curve" smooth="yes"/>
      <point x="357" y="278" type="line" smooth="yes"/>
      <point x="350" y="239" smooth="yes"/>
      <point x="321" y="236" smooth="yes"/>
      <point x="283" y="236" type="curve" smooth="yes"/>
      <point x="239" y="236" type="line"/>
    </contour>
  </outline>
</glyph>
<glyph name="germandbls" format="1">
  <advance width="635"/>
  <unicode hex="00DF"/>
  <outline>
    <contour>
      <point x="49" y="370" type="line"/>
      <point x="96" y="370" type="line"/>
      <point x="31" y="0" type="line"/>
      <point x="221" y="0" type="line"/>
      <point x="311" y="515" type="line"/>
      <point x="326" y="518" smooth="yes"/>
      <point x="336" y="519" smooth="yes"/>
      <point x="346" y="519" type="curve" smooth="yes"/>
      <point x="376" y="519" smooth="yes"/>
      <point x="386" y="507" smooth="yes"/>
      <point x="386" y="487" type="curve" smooth="yes"/>
      <point x="386" y="424" smooth="yes"/>
      <point x="305" y="328" smooth="yes"/>
      <point x="305" y="243" type="curve" smooth="yes"/>
      <point x="305" y="186"/>
      <point x="347" y="166"/>
      <point x="421" y="166" type="curve"/>
      <point x="415" y="134" type="line" smooth="yes"/>
      <point x="415" y="131" smooth="yes"/>
      <point x="396" y="130" smooth="yes"/>
      <point x="378" y="130" type="curve" smooth="yes" name="hr01"/>
      <point x="351" y="130"/>
      <point x="324" y="134"/>
      <point x="299" y="141" type="curve"/>
      <point x="255" y="-1" type="line"/>
      <point x="275" y="-10" smooth="yes"/>
      <point x="334" y="-15" smooth="yes"/>
      <point x="384" y="-15" type="curve" smooth="yes"/>
      <point x="527" y="-15" smooth="yes"/>
      <point x="605" y="71" smooth="yes"/>
      <point x="605" y="198" type="curve" smooth="yes"/>
      <point x="605" y="269"/>
      <point x="569" y="314"/>
      <point x="466" y="314" type="curve"/>
      <point x="576" y="442" smooth="yes"/>
      <point x="582" y="528" smooth="yes"/>
      <point x="582" y="550" type="curve" smooth="yes" name="hr02"/>
      <point x="582" y="658" smooth="yes"/>
      <point x="473" y="675" smooth="yes"/>
      <point x="397" y="675" type="curve" smooth="yes"/>
      <point x="269" y="675" smooth="yes"/>
      <point x="166" y="665" smooth="yes"/>
      <point x="136" y="560" type="curve" smooth="yes"/>
      <point x="119" y="500" type="line"/>
      <point x="72" y="500" type="line"/>
    </contour>
  </outline>
</glyph>
<glyph name="ae" format="1">
  <advance width="843"/>
  <unicode hex="00E6"/>
  <outline>
    <contour>
      <point x="343" y="515" type="curve" smooth="yes"/>
      <point x="269" y="515"/>
      <point x="190" y="506"/>
      <point x="118" y="484" type="curve"/>
      <point x="116" y="341" type="line"/>
      <point x="170" y="359" smooth="yes"/>
      <point x="244" y="368" smooth="yes"/>
      <point x="304" y="368" type="curve" smooth="yes"/>
      <point x="322" y="368"/>
      <point x="339" y="367"/>
      <point x="355" y="366" type="curve"/>
      <point x="349" y="330" type="line"/>
      <point x="311" y="330" type="line" smooth="yes"/>
      <point x="149" y="330" smooth="yes"/>
      <point x="15" y="276" smooth="yes"/>
      <point x="15" y="103" type="curve" smooth="yes"/>
      <point x="15" y="17" smooth="yes"/>
      <point x="69" y="-15" smooth="yes"/>
      <point x="165" y="-15" type="curve" smooth="yes"/>
      <point x="238" y="-15"/>
      <point x="298" y="11"/>
      <point x="344" y="60" type="curve"/>
      <point x="371" y="10" smooth="yes"/>
      <point x="429" y="-15" smooth="yes"/>
      <point x="525" y="-15" type="curve" smooth="yes"/>
      <point x="598" y="-15"/>
      <point x="671" y="-4"/>
      <point x="741" y="15" type="curve"/>
      <point x="744" y="162" type="line"/>
      <point x="680" y="141" smooth="yes"/>
      <point x="620" y="132" smooth="yes"/>
      <point x="561" y="132" type="curve" smooth="yes"/>
      <point x="542" y="132"/>
      <point x="523" y="133"/>
      <point x="504" y="135" type="curve"/>
      <point x="510" y="170" type="line" name="hr01"/>
      <point x="692" y="173" smooth="yes"/>
      <point x="825" y="200" smooth="yes"/>
      <point x="825" y="392" type="curve" smooth="yes"/>
      <point x="825" y="487" smooth="yes"/>
      <point x="766" y="515" smooth="yes"/>
      <point x="618" y="515" type="curve" smooth="yes"/>
      <point x="563" y="515"/>
      <point x="519" y="507"/>
      <point x="482" y="490" type="curve"/>
      <point x="446" y="508" smooth="yes"/>
      <point x="397" y="515" smooth="yes"/>
    </contour>
    <contour>
      <point x="538" y="327" type="line" smooth="yes"/>
      <point x="545" y="366" smooth="yes"/>
      <point x="573" y="369" smooth="yes"/>
      <point x="611" y="369" type="curve" smooth="yes"/>
      <point x="650" y="369" type="line"/>
      <point x="642" y="328" type="line" smooth="yes"/>
      <point x="634" y="289" smooth="yes"/>
      <point x="608" y="286" smooth="yes"/>
      <point x="570" y="286" type="curve" smooth="yes"/>
      <point x="531" y="286" type="line"/>
    </contour>
    <contour>
      <point x="216" y="172" type="line" smooth="yes"/>
      <point x="223" y="211" smooth="yes"/>
      <point x="251" y="214" smooth="yes"/>
      <point x="289" y="214" type="curve" smooth="yes" name="hr02"/>
      <point x="328" y="214" type="line"/>
      <point x="320" y="167" type="line"/>
      <point x="311" y="134" smooth="yes"/>
      <point x="284" y="131" smooth="yes"/>
      <point x="248" y="131" type="curve" smooth="yes"/>
      <point x="209" y="131" type="line"/>
    </contour>
  </outline>
</glyph>
<glyph name="eth" format="1">
  <advance width="575"/>
  <unicode hex="00F0"/>
  <outline>
    <contour>
      <point x="245" y="247" type="line" smooth="yes" name="hr00"/>
      <point x="252" y="286" smooth="yes"/>
      <point x="279" y="289" smooth="yes"/>
      <point x="317" y="289" type="curve" smooth="yes"/>
      <point x="347" y="289" type="line"/>
      <point x="327" y="173" type="line" smooth="yes"/>
      <point x="320" y="134" smooth="yes"/>
      <point x="292" y="131" smooth="yes"/>
      <point x="254" y="131" type="curve" smooth="yes"/>
      <point x="225" y="131" type="line"/>
    </contour>
    <contour>
      <point x="171" y="462" type="line"/>
      <point x="559" y="581" type="line"/>
      <point x="551" y="651" type="line"/>
      <point x="163" y="532" type="line"/>
    </contour>
    <contour>
      <point x="249" y="618" type="line"/>
      <point x="333" y="420" type="line"/>
      <point x="146" y="420" smooth="yes"/>
      <point x="58" y="348" smooth="yes"/>
      <point x="34" y="210" type="curve" smooth="yes"/>
      <point x="30" y="188" smooth="yes"/>
      <point x="28" y="168" smooth="yes"/>
      <point x="28" y="149" type="curve" smooth="yes"/>
      <point x="28" y="41" smooth="yes"/>
      <point x="93" y="-15" smooth="yes"/>
      <point x="246" y="-15" type="curve" smooth="yes"/>
      <point x="427" y="-15" smooth="yes"/>
      <point x="512" y="63" smooth="yes"/>
      <point x="538" y="210" type="curve" smooth="yes"/>
      <point x="541" y="227" smooth="yes"/>
      <point x="543" y="245" smooth="yes"/>
      <point x="543" y="265" type="curve" smooth="yes"/>
      <point x="543" y="309" smooth="yes"/>
      <point x="534" y="362" smooth="yes"/>
      <point x="508" y="424" type="curve" smooth="yes"/>
      <point x="405" y="666" type="line"/>
    </contour>
  </outline>
</glyph>
<glyph name="thorn" format="1">
  <advance width="595"/>
  <unicode hex="00FE"/>
  <outline>
    <contour>
      <point x="133" y="650" type="line" name="hr00"/>
      <point x="-10" y="-165" type="line"/>
      <point x="182" y="-150" type="line"/>
      <point x="206" y="-15" type="line"/>
      <point x="270" y="-15" type="line" smooth="yes"/>
      <point x="480" y="-15" smooth="yes"/>
      <point x="560" y="151" smooth="yes"/>
      <point x="560" y="331" type="curve" smooth="yes"/>
      <point x="560" y="429" smooth="yes"/>
      <point x="522" y="515" smooth="yes"/>
      <point x="394" y="515" type="curve" smooth="yes"/>
      <point x="355" y="515"/>
      <point x="323" y="510"/>
      <point x="296" y="499" type="curve"/>
      <point x="326" y="665" type="line"/>
    </contour>
    <contour>
      <point x="267" y="332" type="line" smooth="yes"/>
      <point x="273" y="366" smooth="yes"/>
      <point x="304" y="369" smooth="yes"/>
      <point x="340" y="369" type="curve" smooth="yes"/>
      <point x="369" y="369" type="line"/>
      <point x="334" y="173" type="line" smooth="yes"/>
      <point x="327" y="134" smooth="yes"/>
      <point x="300" y="131" smooth="yes"/>
      <point x="262" y="131" type="curve" smooth="yes"/>
      <point x="232" y="131" type="line"/>
    </contour>
  </outline>
</glyph>
<glyph name="dcroat" format="1">
  <advance width="595"/>
  <unicode hex="0111"/>
  <outline>
    <contour>
      <point x="489" y="0" type="line"/>
      <point x="606" y="665" type="line"/>
      <point x="413" y="650" type="line"/>
      <point x="380" y="460" type="line"/>
      <point x="270" y="460" type="line" smooth="yes"/>
      <point x="64" y="460" smooth="yes"/>
      <point x="35" y="237" smooth="yes"/>
      <point x="35" y="168" type="curve" smooth="yes"/>
      <point x="35" y="71" smooth="yes"/>
      <point x="73" y="-15" smooth="yes"/>
      <point x="201" y="-15" type="curve" smooth="yes" name="hr01"/>
      <point x="276" y="-15"/>
      <point x="325" y="4"/>
      <point x="360" y="42" type="curve"/>
      <point x="394" y="0" type="line" name="hr02"/>
    </contour>
    <contour>
      <point x="254" y="287" type="line" smooth="yes"/>
      <point x="261" y="326" smooth="yes"/>
      <point x="289" y="329" smooth="yes"/>
      <point x="327" y="329" type="curve" smooth="yes"/>
      <point x="357" y="329" type="line"/>
      <point x="328" y="167" type="line"/>
      <point x="319" y="134" smooth="yes"/>
      <point x="292" y="131" smooth="yes"/>
      <point x="256" y="131" type="curve" smooth="yes"/>
      <point x="227" y="131" type="line"/>
    </contour>
    <component  base="croatbar" xOffset="300" yOffset="-7"/>
  </outline>
</glyph>
<glyph name="hbar" format="1">
  <advance width="595"/>
  <unicode hex="0127"/>
  <outline>
    <contour>
      <point x="256" y="268" type="line" smooth="yes" name="hr00"/>
      <point x="263" y="307" smooth="yes"/>
      <point x="291" y="310" smooth="yes"/>
      <point x="329" y="310" type="curve" smooth="yes"/>
      <point x="358" y="310" type="line"/>
      <point x="304" y="0" type="line"/>
      <point x="494" y="0" type="line"/>
      <point x="557" y="360" type="line" smooth="yes"/>
      <point x="558" y="368" smooth="yes"/>
      <point x="559" y="376" smooth="yes"/>
      <point x="559" y="383" type="curve" smooth="yes"/>
      <point x="559" y="441" smooth="yes"/>
      <point x="514" y="475" smooth="yes"/>
      <point x="435" y="475" type="curve" smooth="yes"/>
      <point x="381" y="475"/>
      <point x="329" y="463"/>
      <point x="286" y="442" type="curve"/>
      <point x="326" y="665" type="line"/>
      <point x="133" y="650" type="line"/>
      <point x="19" y="0" type="line"/>
      <point x="209" y="0" type="line"/>
    </contour>
    <component  base="croatbar" xOffset="31" yOffset="-7"/>
  </outline>
</glyph>
<glyph name="dotlessi" format="1">
  <advance width="300"/>
  <unicode hex="0131"/>
  <outline>
    <contour>
      <point x="11" y="0" type="line" name="hr00"/>
      <point x="201" y="0" type="line"/>
      <point x="289" y="500" type="line"/>
      <point x="94" y="475" type="line"/>
    </contour>
  </outline>
</glyph>
<glyph name="Eng" format="1">
  <advance width="655"/>
  <unicode hex="014A"/>
  <outline>
    <contour>
      <point x="350" y="16" type="line" name="hr00"/>
      <point x="345" y="-12" smooth="yes"/>
      <point x="324" y="-19" smooth="yes"/>
      <point x="299" y="-24" type="curve" smooth="yes"/>
      <point x="245" y="-35" type="line"/>
      <point x="222" y="-165" type="line"/>
      <point x="359" y="-165" type="line" smooth="yes"/>
      <point x="453" y="-165" smooth="yes"/>
      <point x="517" y="-108" smooth="yes"/>
      <point x="536" y="0" type="curve" smooth="yes"/>
      <point x="646" y="625" type="line"/>
      <point x="456" y="625" type="line"/>
      <point x="408" y="355" type="line"/>
      <point x="400" y="355" type="line"/>
      <point x="401" y="363" smooth="yes"/>
      <point x="402" y="374" smooth="yes"/>
      <point x="402" y="383" type="curve" smooth="yes"/>
      <point x="402" y="391" smooth="yes"/>
      <point x="401" y="398" smooth="yes"/>
      <point x="399" y="403" type="curve" smooth="yes"/>
      <point x="297" y="625" type="line"/>
      <point x="118" y="625" type="line"/>
      <point x="8" y="0" type="line"/>
      <point x="198" y="0" type="line"/>
      <point x="245" y="270" type="line"/>
      <point x="253" y="270" type="line"/>
      <point x="252" y="262" smooth="yes"/>
      <point x="251" y="252" smooth="yes"/>
      <point x="251" y="244" type="curve" smooth="yes"/>
      <point x="251" y="235" smooth="yes"/>
      <point x="253" y="227" smooth="yes"/>
      <point x="255" y="222" type="curve" smooth="yes"/>
    </contour>
  </outline>
</glyph>
<glyph name="eng" format="1">
  <advance width="595"/>
  <unicode hex="014B"/>
  <outline>
    <contour>
      <point x="564" y="400" type="line" smooth="yes"/>
      <point x="565" y="408" smooth="yes"/>
      <point x="566" y="416" smooth="yes"/>
      <point x="566" y="423" type="curve" smooth="yes"/>
      <point x="566" y="481" smooth="yes"/>
      <point x="521" y="515" smooth="yes"/>
      <point x="442" y="515" type="curve" smooth="yes"/>
      <point x="363" y="515"/>
      <point x="294" y="485"/>
      <point x="241" y="450" type="curve"/>
      <point x="202" y="500" type="line" name="hr01"/>
      <point x="107" y="500" type="line"/>
      <point x="19" y="0" type="line"/>
      <point x="209" y="0" type="line"/>
      <point x="264" y="312" type="line" smooth="yes"/>
      <point x="270" y="346" smooth="yes"/>
      <point x="300" y="350" smooth="yes"/>
      <point x="336" y="350" type="curve" smooth="yes"/>
      <point x="365" y="350" type="line"/>
      <point x="297" y="-35" type="line" smooth="yes"/>
      <point x="292" y="-63" smooth="yes"/>
      <point x="271" y="-70" smooth="yes"/>
      <point x="246" y="-75" type="curve" smooth="yes"/>
      <point x="194" y="-85" type="line"/>
      <point x="180" y="-165" type="line"/>
      <point x="317" y="-165" type="line" smooth="yes"/>
      <point x="411" y="-165" smooth="yes"/>
      <point x="475" y="-108" smooth="yes"/>
      <point x="494" y="0" type="curve" smooth="yes"/>
    </contour>
  </outline>
</glyph>
<glyph name="OE" format="1">
  <advance width="840"/>
  <unicode hex="0152"/>
  <outline>
    <contour>
      <point x="741" y="0" type="line"/>
      <point x="769" y="160" type="line"/>
      <point x="555" y="160" type="line"/>
      <point x="568" y="236" type="line"/>
      <point x="739" y="236" type="line"/>
      <point x="765" y="381" type="line"/>
      <point x="594" y="381" type="line"/>
      <point x="608" y="465" type="line"/>
      <point x="793" y="465" type="line"/>
      <point x="846" y="625" type="line"/>
      <point x="490" y="625" type="line"/>
      <point x="458" y="635" smooth="yes"/>
      <point x="419" y="640" smooth="yes"/>
      <point x="372" y="640" type="curve" smooth="yes" name="hr01"/>
      <point x="152" y="640" smooth="yes"/>
      <point x="73" y="529" smooth="yes"/>
      <point x="35" y="312" type="curve" smooth="yes"/>
      <point x="27" y="265" smooth="yes"/>
      <point x="22" y="224" smooth="yes"/>
      <point x="22" y="187" type="curve" smooth="yes"/>
      <point x="22" y="53" smooth="yes"/>
      <point x="84" y="-15" smooth="yes"/>
      <point x="257" y="-15" type="curve" smooth="yes"/>
      <point x="304" y="-15"/>
      <point x="345" y="-10"/>
      <point x="380" y="0" type="curve" name="hr02"/>
    </contour>
    <contour>
      <point x="257" y="416" type="line" smooth="yes"/>
      <point x="266" y="465" smooth="yes"/>
      <point x="295" y="469" smooth="yes"/>
      <point x="339" y="469" type="curve" smooth="yes"/>
      <point x="419" y="469" type="line"/>
      <point x="372" y="202" type="line"/>
      <point x="362" y="159" smooth="yes"/>
      <point x="331" y="156" smooth="yes"/>
      <point x="290" y="156" type="curve" smooth="yes"/>
      <point x="211" y="156" type="line"/>
    </contour>
  </outline>
</glyph>
<glyph name="florin" format="1">
  <advance width="479"/>
  <unicode hex="0192"/>
  <outline>
    <contour>
      <point x="345" y="428" type="line" smooth="yes" name="hr00"/>
      <point x="355" y="473" smooth="yes"/>
      <point x="386" y="477" smooth="yes"/>
      <point x="423" y="477" type="curve" smooth="yes"/>
      <point x="468" y="477" type="line"/>
      <point x="521" y="622" type="line"/>
      <point x="474" y="634" smooth="yes"/>
      <point x="398" y="641" smooth="yes"/>
      <point x="362" y="641" type="curve" smooth="yes"/>
      <point x="248" y="641" smooth="yes"/>
      <point x="186" y="574" smooth="yes"/>
      <point x="158" y="443" type="curve" smooth="yes"/>
      <point x="142" y="369" type="line"/>
      <point x="65" y="369" type="line"/>
      <point x="46" y="262" type="line"/>
      <point x="118" y="262" type="line"/>
      <point x="64" y="15" type="line" smooth="yes"/>
      <point x="58" y="-13" smooth="yes"/>
      <point x="38" y="-20" smooth="yes"/>
      <point x="12" y="-25" type="curve" smooth="yes"/>
      <point x="-40" y="-35" type="line"/>
      <point x="-62" y="-165" type="line"/>
      <point x="75" y="-165" type="line" smooth="yes"/>
      <point x="169" y="-165" smooth="yes"/>
      <point x="228" y="-108" smooth="yes"/>
      <point x="252" y="0" type="curve" smooth="yes"/>
      <point x="309" y="262" type="line"/>
      <point x="411" y="262" type="line"/>
      <point x="439" y="369" type="line"/>
      <point x="332" y="369" type="line"/>
    </contour>
  </outline>
</glyph>
<glyph name="dotlessj" format="1">
  <advance width="300"/>
  <unicode hex="0237"/>
  <outline>
    <contour>
      <point x="-113" y="-165" type="line" name="hr00"/>
      <point x="24" y="-165" type="line" smooth="yes"/>
      <point x="118" y="-165" smooth="yes"/>
      <point x="182" y="-108" smooth="yes"/>
      <point x="201" y="0" type="curve" smooth="yes"/>
      <point x="289" y="500" type="line"/>
      <point x="94" y="475" type="line"/>
      <point x="13" y="15" type="line" smooth="yes"/>
      <point x="8" y="-13" smooth="yes"/>
      <point x="-13" y="-20" smooth="yes"/>
      <point x="-38" y="-25" type="curve" smooth="yes"/>
      <point x="-90" y="-35" type="line"/>
    </contour>
  </outline>
</glyph>
<glyph name="circumflex" format="1">
  <advance width="385"/>
  <unicode hex="02C6"/>
  <outline>
    <contour>
      <point x="190" y="740" type="line" smooth="yes" name="hr00"/>
      <point x="183" y="740" smooth="yes"/>
      <point x="177" y="737" smooth="yes"/>
      <point x="172" y="731" type="curve" smooth="yes"/>
      <point x="40" y="586" type="line"/>
      <point x="88" y="537" type="line"/>
      <point x="187" y="600" type="line"/>
      <point x="265" y="537" type="line"/>
      <point x="331" y="586" type="line"/>
      <point x="248" y="731" type="line" smooth="yes"/>
      <point x="245" y="736" smooth="yes"/>
      <point x="242" y="740" smooth="yes"/>
      <point x="235" y="740" type="curve" smooth="yes"/>
    </contour>
  </outline>
</glyph>
<glyph name="caron" format="1">
  <advance width="385"/>
  <unicode hex="02C7"/>
  <outline>
    <contour>
      <point x="198" y="537" type="line" smooth="yes" name="hr00"/>
      <point x="205" y="537" smooth="yes"/>
      <point x="210" y="541" smooth="yes"/>
      <point x="215" y="546" type="curve" smooth="yes"/>
      <point x="348" y="691" type="line"/>
      <point x="300" y="740" type="line"/>
      <point x="200" y="677" type="line"/>
      <point x="123" y="740" type="line"/>
      <point x="57" y="691" type="line"/>
      <point x="139" y="546" type="line"/>
      <point x="143" y="541" smooth="yes"/>
      <point x="146" y="537" smooth="yes"/>
      <point x="153" y="537" type="curve" smooth="yes"/>
    </contour>
  </outline>
</glyph>
<glyph name="breve" format="1">
  <advance width="385"/>
  <unicode hex="02D8"/>
  <outline>
    <contour>
      <point x="152" y="704" type="curve" name="hr00"/>
      <point x="58" y="689" type="line"/>
      <point x="60" y="596" smooth="yes"/>
      <point x="113" y="550" smooth="yes"/>
      <point x="176" y="550" type="curve" smooth="yes"/>
      <point x="240" y="550"/>
      <point x="310" y="596"/>
      <point x="345" y="689" type="curve"/>
      <point x="257" y="704" type="line"/>
      <point x="243" y="675" smooth="yes"/>
      <point x="219" y="659" smooth="yes"/>
      <point x="196" y="659" type="curve" smooth="yes"/>
      <point x="174" y="659"/>
      <point x="156" y="675"/>
    </contour>
  </outline>
</glyph>
<glyph name="dotaccent" format="1">
  <advance width="265"/>
  <unicode hex="02D9"/>
  <outline>
    <contour>
      <point x="37" y="592" type="curve" smooth="yes" name="hr00"/>
      <point x="37" y="552" smooth="yes"/>
      <point x="58" y="537" smooth="yes"/>
      <point x="116" y="537" type="curve" smooth="yes"/>
      <point x="203" y="537" smooth="yes"/>
      <point x="228" y="596" smooth="yes"/>
      <point x="228" y="670" type="curve" smooth="yes"/>
      <point x="228" y="712" smooth="yes"/>
      <point x="208" y="729" smooth="yes"/>
      <point x="150" y="729" type="curve" smooth="yes"/>
      <point x="62" y="729" smooth="yes"/>
      <point x="37" y="666" smooth="yes"/>
    </contour>
  </outline>
</glyph>
<glyph name="ring" format="1">
  <advance width="265"/>
  <unicode hex="02DA"/>
  <outline>
    <contour>
      <point x="98" y="664" type="line" smooth="yes" name="hr00"/>
      <point x="102" y="688" smooth="yes"/>
      <point x="120" y="689" smooth="yes"/>
      <point x="145" y="689" type="curve" smooth="yes"/>
      <point x="182" y="689" type="line"/>
      <point x="170" y="622" type="line" smooth="yes"/>
      <point x="165" y="597" smooth="yes"/>
      <point x="150" y="596" smooth="yes"/>
      <point x="126" y="596" type="curve" smooth="yes"/>
      <point x="86" y="596" type="line"/>
    </contour>
    <contour>
      <point x="155" y="758" type="curve"/>
      <point x="70" y="758" smooth="yes"/>
      <point x="21" y="707" smooth="yes"/>
      <point x="21" y="607" type="curve" smooth="yes"/>
      <point x="21" y="554"/>
      <point x="48" y="527"/>
      <point x="114" y="527" type="curve"/>
      <point x="199" y="527" smooth="yes"/>
      <point x="248" y="578" smooth="yes"/>
      <point x="248" y="678" type="curve" smooth="yes"/>
      <point x="248" y="731" smooth="yes"/>
      <point x="221" y="758" smooth="yes"/>
    </contour>
  </outline>
</glyph>
<glyph name="ogonek" format="1">
  <advance width="500"/>
  <unicode hex="02DB"/>
  <outline>
    <contour>
      <point x="311" y="21" type="line" name="hr00"/>
      <point x="235" y="21" type="line"/>
      <point x="176" y="-6" smooth="yes"/>
      <point x="141" y="-50" smooth="yes"/>
      <point x="141" y="-96" type="curve" smooth="yes"/>
      <point x="141" y="-134" smooth="yes"/>
      <point x="169" y="-165" smooth="yes"/>
      <point x="234" y="-165" type="curve" smooth="yes"/>
      <point x="261" y="-165"/>
      <point x="301" y="-160"/>
      <point x="337" y="-146" type="curve"/>
      <point x="342" y="-58" type="line"/>
      <point x="295" y="-58" type="line" smooth="yes"/>
      <point x="275" y="-58" smooth="yes"/>
      <point x="268" y="-56" smooth="yes"/>
      <point x="268" y="-42" type="curve" smooth="yes"/>
      <point x="268" y="-38"/>
      <point x="269" y="-33"/>
      <point x="270" y="-26" type="curve"/>
      <point x="326" y="0" type="line"/>
    </contour>
  </outline>
</glyph>
<glyph name="tilde" format="1">
  <advance width="458"/>
  <unicode hex="02DC"/>
  <outline>
    <contour>
      <point x="294" y="676" type="line" name="hr00"/>
      <point x="268" y="699" smooth="yes"/>
      <point x="251" y="721" smooth="yes"/>
      <point x="219" y="721" type="curve" smooth="yes"/>
      <point x="187" y="721"/>
      <point x="181" y="714"/>
      <point x="45" y="629" type="curve"/>
      <point x="79" y="548" type="line"/>
      <point x="164" y="588" type="line"/>
      <point x="190" y="565" smooth="yes"/>
      <point x="207" y="543" smooth="yes"/>
      <point x="239" y="543" type="curve" smooth="yes"/>
      <point x="271" y="543"/>
      <point x="277" y="550"/>
      <point x="413" y="635" type="curve"/>
      <point x="380" y="716" type="line"/>
    </contour>
  </outline>
</glyph>
<glyph name="hungarumlaut" format="1">
  <advance width="599"/>
  <unicode hex="02DD"/>
  <outline>
    <contour>
      <point x="88" y="530" type="line" name="hr00"/>
      <point x="209" y="566" type="line" smooth="yes"/>
      <point x="229" y="572" smooth="yes"/>
      <point x="238" y="578" smooth="yes"/>
      <point x="242" y="582" type="curve" smooth="yes"/>
      <point x="283" y="620" type="line" smooth="yes"/>
      <point x="288" y="625" smooth="yes"/>
      <point x="292" y="631" smooth="yes"/>
      <point x="292" y="637" type="curve" smooth="yes"/>
      <point x="292" y="642" smooth="yes"/>
      <point x="290" y="649" smooth="yes"/>
      <point x="285" y="655" type="curve" smooth="yes"/>
      <point x="222" y="729" type="line"/>
      <point x="214" y="737" smooth="yes"/>
      <point x="209" y="741" smooth="yes"/>
      <point x="204" y="741" type="curve" smooth="yes"/>
      <point x="199" y="740" smooth="yes"/>
      <point x="194" y="736" smooth="yes"/>
      <point x="188" y="729" type="curve" smooth="yes"/>
      <point x="48" y="589" type="line"/>
    </contour>
    <contour>
      <point x="351" y="530" type="line"/>
      <point x="472" y="566" type="line" smooth="yes"/>
      <point x="492" y="572" smooth="yes"/>
      <point x="501" y="578" smooth="yes"/>
      <point x="505" y="582" type="curve" smooth="yes"/>
      <point x="546" y="620" type="line" smooth="yes"/>
      <point x="551" y="625" smooth="yes"/>
      <point x="555" y="631" smooth="yes"/>
      <point x="555" y="637" type="curve" smooth="yes"/>
      <point x="555" y="642" smooth="yes"/>
      <point x="553" y="649" smooth="yes"/>
      <point x="548" y="655" type="curve" smooth="yes"/>
      <point x="485" y="729" type="line"/>
      <point x="477" y="737" smooth="yes"/>
      <point x="472" y="741" smooth="yes"/>
      <point x="467" y="741" type="curve" smooth="yes"/>
      <point x="462" y="740" smooth="yes"/>
      <point x="457" y="736" smooth="yes"/>
      <point x="451" y="729" type="curve" smooth="yes"/>
      <point x="311" y="589" type="line"/>
    </contour>
  </outline>
</glyph>
<glyph name="endash" format="1">
  <advance width="595"/>
  <unicode hex="2013"/>
  <outline>
    <contour>
      <point x="20" y="200" type="line" name="hr00"/>
      <point x="472" y="200" type="line" smooth="yes"/>
      <point x="510" y="200" smooth="yes"/>
      <point x="537" y="203" smooth="yes"/>
      <point x="544" y="242" type="curve" smooth="yes"/>
      <point x="563" y="350" type="line"/>
      <point x="111" y="350" type="line" smooth="yes"/>
      <point x="73" y="350" smooth="yes"/>
      <point x="46" y="347" smooth="yes"/>
      <point x="39" y="308" type="curve" smooth="yes"/>
    </contour>
  </outline>
</glyph>
<glyph name="emdash" format="1">
  <advance width="854"/>
  <unicode hex="2014"/>
  <outline>
    <contour>
      <point x="27" y="200" type="line" name="hr00"/>
      <point x="725" y="200" type="line" smooth="yes"/>
      <point x="763" y="200" smooth="yes"/>
      <point x="791" y="203" smooth="yes"/>
      <point x="798" y="242" type="curve" smooth="yes"/>
      <point x="817" y="350" type="line"/>
      <point x="118" y="350" type="line" smooth="yes"/>
      <point x="80" y="350" smooth="yes"/>
      <point x="53" y="347" smooth="yes"/>
      <point x="46" y="308" type="curve" smooth="yes"/>
    </contour>
  </outline>
</glyph>
<glyph name="quoteleft" format="1">
  <advance width="260"/>
  <unicode hex="2018"/>
  <outline>
    <contour>
      <point x="248" y="446" type="curve" smooth="yes" name="hr00"/>
      <point x="248" y="474"/>
      <point x="237" y="490"/>
      <point x="202" y="496" type="curve"/>
      <point x="260" y="641" type="line"/>
      <point x="180" y="670" type="line"/>
      <point x="91" y="534" type="line" smooth="yes"/>
      <point x="73" y="506" smooth="yes"/>
      <point x="53" y="483" smooth="yes"/>
      <point x="42" y="432" type="curve" smooth="yes"/>
      <point x="40" y="420" type="line" smooth="yes"/>
      <point x="37" y="404" smooth="yes"/>
      <point x="35" y="389" smooth="yes"/>
      <point x="35" y="377" type="curve" smooth="yes"/>
      <point x="35" y="332" smooth="yes"/>
      <point x="58" y="313" smooth="yes"/>
      <point x="124" y="313" type="curve" smooth="yes"/>
      <point x="213" y="313" smooth="yes"/>
      <point x="248" y="367" smooth="yes"/>
    </contour>
  </outline>
</glyph>
<glyph name="quoteright" format="1">
  <advance width="295"/>
  <unicode hex="2019"/>
  <outline>
    <contour>
      <point x="57" y="525" type="curve" smooth="yes" name="hr00"/>
      <point x="57" y="497"/>
      <point x="68" y="481"/>
      <point x="103" y="475" type="curve"/>
      <point x="45" y="330" type="line"/>
      <point x="125" y="301" type="line"/>
      <point x="214" y="437" type="line" smooth="yes"/>
      <point x="232" y="465" smooth="yes"/>
      <point x="252" y="488" smooth="yes"/>
      <point x="263" y="539" type="curve" smooth="yes"/>
      <point x="265" y="551" type="line" smooth="yes"/>
      <point x="268" y="567" smooth="yes"/>
      <point x="270" y="582" smooth="yes"/>
      <point x="270" y="594" type="curve" smooth="yes"/>
      <point x="270" y="639" smooth="yes"/>
      <point x="247" y="658" smooth="yes"/>
      <point x="181" y="658" type="curve" smooth="yes"/>
      <point x="92" y="658" smooth="yes"/>
      <point x="57" y="604" smooth="yes"/>
    </contour>
  </outline>
</glyph>
<glyph name="quotedblleft" format="1">
  <advance width="497"/>
  <unicode hex="201C"/>
  <outline>
    <contour>
      <point x="486" y="445" type="curve" smooth="yes" name="hr00"/>
      <point x="486" y="474"/>
      <point x="474" y="490"/>
      <point x="440" y="496" type="curve"/>
      <point x="497" y="641" type="line"/>
      <point x="418" y="670" type="line"/>
      <point x="329" y="534" type="line" smooth="yes"/>
      <point x="311" y="506" smooth="yes"/>
      <point x="291" y="483" smooth="yes"/>
      <point x="280" y="432" type="curve" smooth="yes"/>
      <point x="278" y="420" type="line" smooth="yes"/>
      <point x="275" y="403" smooth="yes"/>
      <point x="273" y="389" smooth="yes"/>
      <point x="273" y="377" type="curve" smooth="yes"/>
      <point x="273" y="332" smooth="yes"/>
      <point x="296" y="313" smooth="yes"/>
      <point x="361" y="313" type="curve" smooth="yes"/>
      <point x="450" y="313" smooth="yes"/>
      <point x="486" y="366" smooth="yes"/>
    </contour>
    <contour>
      <point x="248" y="446" type="curve" smooth="yes"/>
      <point x="248" y="474"/>
      <point x="237" y="490"/>
      <point x="202" y="496" type="curve"/>
      <point x="260" y="641" type="line"/>
      <point x="180" y="670" type="line"/>
      <point x="91" y="534" type="line" smooth="yes"/>
      <point x="73" y="506" smooth="yes"/>
      <point x="53" y="483" smooth="yes"/>
      <point x="42" y="432" type="curve" smooth="yes"/>
      <point x="40" y="420" type="line" smooth="yes"/>
      <point x="37" y="404" smooth="yes"/>
      <point x="35" y="389" smooth="yes"/>
      <point x="35" y="377" type="curve" smooth="yes"/>
      <point x="35" y="332" smooth="yes"/>
      <point x="58" y="313" smooth="yes"/>
      <point x="124" y="313" type="curve" smooth="yes"/>
      <point x="213" y="313" smooth="yes"/>
      <point x="248" y="367" smooth="yes"/>
    </contour>
  </outline>
</glyph>
<glyph name="quotedblright" format="1">
  <advance width="532"/>
  <unicode hex="201D"/>
  <outline>
    <contour>
      <point x="56" y="526" type="curve" smooth="yes" name="hr00"/>
      <point x="56" y="497"/>
      <point x="68" y="481"/>
      <point x="102" y="475" type="curve"/>
      <point x="45" y="330" type="line"/>
      <point x="124" y="301" type="line"/>
      <point x="213" y="437" type="line" smooth="yes"/>
      <point x="231" y="465" smooth="yes"/>
      <point x="251" y="488" smooth="yes"/>
      <point x="262" y="539" type="curve" smooth="yes"/>
      <point x="264" y="551" type="line" smooth="yes"/>
      <point x="267" y="568" smooth="yes"/>
      <point x="269" y="582" smooth="yes"/>
      <point x="269" y="594" type="curve" smooth="yes"/>
      <point x="269" y="639" smooth="yes"/>
      <point x="246" y="658" smooth="yes"/>
      <point x="181" y="658" type="curve" smooth="yes"/>
      <point x="92" y="658" smooth="yes"/>
      <point x="56" y="605" smooth="yes"/>
    </contour>
    <contour>
      <point x="294" y="525" type="curve" smooth="yes"/>
      <point x="294" y="497"/>
      <point x="305" y="481"/>
      <point x="340" y="475" type="curve"/>
      <point x="282" y="330" type="line"/>
      <point x="362" y="301" type="line"/>
      <point x="451" y="437" type="line" smooth="yes"/>
      <point x="469" y="465" smooth="yes"/>
      <point x="489" y="488" smooth="yes"/>
      <point x="500" y="539" type="curve" smooth="yes"/>
      <point x="502" y="551" type="line" smooth="yes"/>
      <point x="505" y="567" smooth="yes"/>
      <point x="507" y="582" smooth="yes"/>
      <point x="507" y="594" type="curve" smooth="yes"/>
      <point x="507" y="639" smooth="yes"/>
      <point x="484" y="658" smooth="yes"/>
      <point x="418" y="658" type="curve" smooth="yes"/>
      <point x="329" y="658" smooth="yes"/>
      <point x="294" y="604" smooth="yes"/>
    </contour>
  </outline>
</glyph>
<glyph name="dagger" format="1">
  <advance width="540"/>
  <unicode hex="2020"/>
  <outline>
    <contour>
      <point x="501" y="330" type="line" name="hr00"/>
      <point x="534" y="520" type="line"/>
      <point x="383" y="497" type="line"/>
      <point x="437" y="665" type="line"/>
      <point x="228" y="665" type="line"/>
      <point x="228" y="500" type="line"/>
      <point x="78" y="520" type="line"/>
      <point x="45" y="330" type="line"/>
      <point x="201" y="350" type="line"/>
      <point x="102" y="-50" type="line"/>
      <point x="311" y="-50" type="line"/>
      <point x="351" y="350" type="line"/>
    </contour>
  </outline>
</glyph>
<glyph name="daggerdbl" format="1">
  <advance width="540"/>
  <unicode hex="2021"/>
  <outline>
    <contour>
      <point x="500" y="330" type="line" name="hr00"/>
      <point x="533" y="520" type="line"/>
      <point x="391" y="499" type="line"/>
      <point x="436" y="665" type="line"/>
      <point x="227" y="665" type="line"/>
      <point x="211" y="499" type="line"/>
      <point x="77" y="520" type="line"/>
      <point x="44" y="330" type="line"/>
      <point x="199" y="350" type="line"/>
      <point x="195" y="307" type="line"/>
      <point x="184" y="265" type="line"/>
      <point x="36" y="285" type="line"/>
      <point x="2" y="95" type="line"/>
      <point x="144" y="116" type="line"/>
      <point x="101" y="-50" type="line"/>
      <point x="310" y="-50" type="line"/>
      <point x="324" y="116" type="line"/>
      <point x="458" y="95" type="line"/>
      <point x="492" y="285" type="line"/>
      <point x="337" y="264" type="line"/>
      <point x="342" y="307" type="line"/>
      <point x="352" y="350" type="line"/>
    </contour>
  </outline>
</glyph>
<glyph name="bullet" format="1">
  <advance width="342"/>
  <unicode hex="2022"/>
  <outline>
    <contour>
      <point x="20" y="195" type="curve" smooth="yes" name="hr00"/>
      <point x="20" y="136" smooth="yes"/>
      <point x="50" y="112" smooth="yes"/>
      <point x="137" y="112" type="curve" smooth="yes"/>
      <point x="267" y="112" smooth="yes"/>
      <point x="300" y="196" smooth="yes"/>
      <point x="300" y="305" type="curve" smooth="yes"/>
      <point x="300" y="363" smooth="yes"/>
      <point x="271" y="388" smooth="yes"/>
      <point x="186" y="388" type="curve" smooth="yes"/>
      <point x="58" y="388" smooth="yes"/>
      <point x="20" y="303" smooth="yes"/>
    </contour>
  </outline>
</glyph>
<glyph name="ellipsis" format="1">
  <advance width="801"/>
  <unicode hex="2026"/>
  <outline>
    <contour>
      <point x="31" y="57" type="curve" smooth="yes" name="hr00"/>
      <point x="31" y="12" smooth="yes"/>
      <point x="53" y="-6" smooth="yes"/>
      <point x="120" y="-6" type="curve" smooth="yes"/>
      <point x="219" y="-6" smooth="yes"/>
      <point x="246" y="57" smooth="yes"/>
      <point x="246" y="141" type="curve" smooth="yes"/>
      <point x="246" y="187" smooth="yes"/>
      <point x="224" y="206" smooth="yes"/>
      <point x="158" y="206" type="curve" smooth="yes"/>
      <point x="59" y="206" smooth="yes"/>
      <point x="31" y="141" smooth="yes"/>
    </contour>
    <contour>
      <point x="298" y="57" type="curve" smooth="yes"/>
      <point x="298" y="12" smooth="yes"/>
      <point x="320" y="-6" smooth="yes"/>
      <point x="387" y="-6" type="curve" smooth="yes"/>
      <point x="486" y="-6" smooth="yes"/>
      <point x="513" y="57" smooth="yes"/>
      <point x="513" y="141" type="curve" smooth="yes"/>
      <point x="513" y="187" smooth="yes"/>
      <point x="491" y="206" smooth="yes"/>
      <point x="425" y="206" type="curve" smooth="yes"/>
      <point x="326" y="206" smooth="yes"/>
      <point x="298" y="141" smooth="yes"/>
    </contour>
    <contour>
      <point x="565" y="57" type="curve" smooth="yes"/>
      <point x="565" y="12" smooth="yes"/>
      <point x="587" y="-6" smooth="yes"/>
      <point x="654" y="-6" type="curve" smooth="yes"/>
      <point x="753" y="-6" smooth="yes"/>
      <point x="780" y="57" smooth="yes"/>
      <point x="780" y="141" type="curve" smooth="yes"/>
      <point x="780" y="187" smooth="yes"/>
      <point x="758" y="206" smooth="yes"/>
      <point x="692" y="206" type="curve" smooth="yes"/>
      <point x="593" y="206" smooth="yes"/>
      <point x="565" y="141" smooth="yes"/>
    </contour>
  </outline>
</glyph>
<glyph name="guilsinglright" format="1">
  <advance width="325"/>
  <unicode hex="203A"/>
  <outline>
    <contour>
      <point x="138" y="475" type="line" name="hr00"/>
      <point x="52" y="424" type="line"/>
      <point x="117" y="250" type="line"/>
      <point x="-9" y="76" type="line"/>
      <point x="59" y="25" type="line"/>
      <point x="274" y="200" type="line"/>
      <point x="291" y="300" type="line"/>
    </contour>
  </outline>
</glyph>
<glyph name="zeroinferior" format="1">
  <advance width="400"/>
  <unicode hex="2080"/>
  <outline>
    <contour>
      <point x="36" y="87" type="curve" smooth="yes" name="hr00"/>
      <point x="30" y="53" smooth="yes"/>
      <point x="26" y="23" smooth="yes"/>
      <point x="26" y="-2" type="curve" smooth="yes"/>
      <point x="26" y="-78" smooth="yes"/>
      <point x="59" y="-116" smooth="yes"/>
      <point x="164" y="-116" type="curve" smooth="yes"/>
      <point x="305" y="-116" smooth="yes"/>
      <point x="339" y="-47" smooth="yes"/>
      <point x="363" y="87" type="curve" smooth="yes"/>
      <point x="369" y="122" smooth="yes"/>
      <point x="373" y="152" smooth="yes"/>
      <point x="373" y="178" type="curve" smooth="yes"/>
      <point x="373" y="253" smooth="yes"/>
      <point x="340" y="291" smooth="yes"/>
      <point x="236" y="291" type="curve" smooth="yes"/>
      <point x="96" y="291" smooth="yes"/>
      <point x="60" y="222" smooth="yes"/>
    </contour>
    <contour>
      <point x="181" y="167" type="line" smooth="yes"/>
      <point x="185" y="188" smooth="yes"/>
      <point x="205" y="190" smooth="yes"/>
      <point x="230" y="190" type="curve" smooth="yes"/>
      <point x="250" y="190" type="line"/>
      <point x="218" y="9" type="line" smooth="yes"/>
      <point x="214" y="-13" smooth="yes"/>
      <point x="193" y="-15" smooth="yes"/>
      <point x="167" y="-15" type="curve" smooth="yes"/>
      <point x="149" y="-15" type="line"/>
    </contour>
  </outline>
</glyph>
<glyph name="oneinferior" format="1">
  <advance width="400"/>
  <unicode hex="2081"/>
  <outline>
    <contour>
      <point x="316" y="-107" type="line" name="hr00"/>
      <point x="334" y="-2" type="line"/>
      <point x="269" y="-2" type="line"/>
      <point x="319" y="282" type="line"/>
      <point x="220" y="282" type="line"/>
      <point x="90" y="250" type="line"/>
      <point x="70" y="141" type="line"/>
      <point x="162" y="146" type="line"/>
      <point x="136" y="-2" type="line"/>
      <point x="55" y="-2" type="line"/>
      <point x="37" y="-107" type="line"/>
    </contour>
  </outline>
</glyph>
<glyph name="twoinferior" format="1">
  <advance width="400"/>
  <unicode hex="2082"/>
  <outline>
    <contour>
      <point x="84" y="166" type="line" name="hr00"/>
      <point x="124" y="175" smooth="yes"/>
      <point x="163" y="181" smooth="yes"/>
      <point x="197" y="181" type="curve" smooth="yes"/>
      <point x="209" y="181"/>
      <point x="217" y="181"/>
      <point x="238" y="179" type="curve"/>
      <point x="232" y="144" type="line"/>
      <point x="192" y="126" type="line" smooth="yes"/>
      <point x="99" y="84" smooth="yes"/>
      <point x="43" y="71" smooth="yes"/>
      <point x="26" y="-25" type="curve" smooth="yes"/>
      <point x="12" y="-107" type="line"/>
      <point x="318" y="-107" type="line"/>
      <point x="336" y="-2" type="line"/>
      <point x="176" y="-2" type="line"/>
      <point x="180" y="18" type="line"/>
      <point x="323" y="66" smooth="yes"/>
      <point x="357" y="81" smooth="yes"/>
      <point x="371" y="163" type="curve" smooth="yes"/>
      <point x="373" y="178" smooth="yes"/>
      <point x="375" y="191" smooth="yes"/>
      <point x="375" y="202" type="curve" smooth="yes"/>
      <point x="375" y="282" smooth="yes"/>
      <point x="315" y="291" smooth="yes"/>
      <point x="240" y="291" type="curve" smooth="yes"/>
      <point x="190" y="291"/>
      <point x="133" y="286"/>
      <point x="85" y="274" type="curve"/>
    </contour>
  </outline>
</glyph>
<glyph name="threeinferior" format="1">
  <advance width="400"/>
  <unicode hex="2083"/>
  <outline>
    <contour>
      <point x="227" y="134" type="line" name="hr00"/>
      <point x="127" y="122" type="line"/>
      <point x="115" y="53" type="line"/>
      <point x="211" y="42" type="line"/>
      <point x="203" y="-4" type="line"/>
      <point x="186" y="-6" smooth="yes"/>
      <point x="172" y="-6" smooth="yes"/>
      <point x="156" y="-6" type="curve" smooth="yes"/>
      <point x="121" y="-6"/>
      <point x="89" y="0"/>
      <point x="50" y="10" type="curve"/>
      <point x="13" y="-99" type="line"/>
      <point x="58" y="-111" smooth="yes"/>
      <point x="99" y="-116" smooth="yes"/>
      <point x="150" y="-116" type="curve" smooth="yes"/>
      <point x="236" y="-116" smooth="yes"/>
      <point x="321" y="-106" smooth="yes"/>
      <point x="341" y="10" type="curve" smooth="yes"/>
      <point x="342" y="19" smooth="yes"/>
      <point x="343" y="28" smooth="yes"/>
      <point x="343" y="36" type="curve" smooth="yes"/>
      <point x="343" y="63"/>
      <point x="333" y="85"/>
      <point x="308" y="100" type="curve"/>
      <point x="345" y="124" smooth="yes"/>
      <point x="366" y="162" smooth="yes"/>
      <point x="366" y="215" type="curve" smooth="yes"/>
      <point x="366" y="282" smooth="yes"/>
      <point x="309" y="291" smooth="yes"/>
      <point x="231" y="291" type="curve" smooth="yes"/>
      <point x="181" y="291"/>
      <point x="133" y="286"/>
      <point x="85" y="274" type="curve"/>
      <point x="84" y="166" type="line"/>
      <point x="119" y="176" smooth="yes"/>
      <point x="155" y="181" smooth="yes"/>
      <point x="189" y="181" type="curve" smooth="yes"/>
      <point x="205" y="181"/>
      <point x="220" y="180"/>
      <point x="235" y="178" type="curve"/>
    </contour>
  </outline>
</glyph>
<glyph name="fourinferior" format="1">
  <advance width="400"/>
  <unicode hex="2084"/>
  <outline>
    <contour>
      <point x="171" y="-107" type="line"/>
      <point x="298" y="-107" type="line"/>
      <point x="308" y="-47" type="line" name="hr01"/>
      <point x="345" y="-47" type="line"/>
      <point x="363" y="53" type="line"/>
      <point x="326" y="53" type="line"/>
      <point x="366" y="282" type="line"/>
      <point x="153" y="282" type="line"/>
      <point x="21" y="37" type="line"/>
      <point x="6" y="-47" type="line" name="hr02"/>
      <point x="181" y="-47" type="line"/>
    </contour>
    <contour>
      <point x="199" y="53" type="line"/>
      <point x="139" y="53" type="line"/>
      <point x="206" y="188" type="line"/>
      <point x="223" y="188" type="line"/>
    </contour>
  </outline>
</glyph>
<glyph name="fiveinferior" format="1">
  <advance width="400"/>
  <unicode hex="2085"/>
  <outline>
    <contour>
      <point x="8" y="-99" type="line" name="hr00"/>
      <point x="53" y="-111" smooth="yes"/>
      <point x="100" y="-116" smooth="yes"/>
      <point x="151" y="-116" type="curve" smooth="yes"/>
      <point x="244" y="-116" smooth="yes"/>
      <point x="345" y="-99" smooth="yes"/>
      <point x="345" y="42" type="curve" smooth="yes"/>
      <point x="345" y="101"/>
      <point x="306" y="120"/>
      <point x="198" y="134" type="curve"/>
      <point x="205" y="173" type="line"/>
      <point x="339" y="165" type="line"/>
      <point x="370" y="282" type="line"/>
      <point x="96" y="282" type="line"/>
      <point x="65" y="136" type="line" smooth="yes"/>
      <point x="61" y="116" smooth="yes"/>
      <point x="59" y="101" smooth="yes"/>
      <point x="59" y="94" type="curve" smooth="yes"/>
      <point x="59" y="53" smooth="yes"/>
      <point x="91" y="46" smooth="yes"/>
      <point x="174" y="35" type="curve" smooth="yes"/>
      <point x="210" y="30" type="line"/>
      <point x="204" y="-4" type="line"/>
      <point x="187" y="-6" smooth="yes"/>
      <point x="172" y="-6" smooth="yes"/>
      <point x="157" y="-6" type="curve" smooth="yes"/>
      <point x="121" y="-6"/>
      <point x="84" y="0"/>
      <point x="45" y="10" type="curve"/>
    </contour>
  </outline>
</glyph>
<glyph name="sixinferior" format="1">
  <advance width="400"/>
  <unicode hex="2086"/>
  <outline>
    <contour>
      <point x="349" y="51" type="curve" smooth="yes" name="hr00"/>
      <point x="349" y="127" smooth="yes"/>
      <point x="284" y="131" smooth="yes"/>
      <point x="208" y="131" type="curve" smooth="yes"/>
      <point x="186" y="131" type="line"/>
      <point x="194" y="177" type="line"/>
      <point x="207" y="180" smooth="yes"/>
      <point x="234" y="181" smooth="yes"/>
      <point x="252" y="181" type="curve" smooth="yes"/>
      <point x="272" y="181"/>
      <point x="309" y="178"/>
      <point x="341" y="172" type="curve"/>
      <point x="378" y="273" type="line"/>
      <point x="354" y="282" smooth="yes"/>
      <point x="294" y="291" smooth="yes"/>
      <point x="264" y="291" type="curve" smooth="yes"/>
      <point x="111" y="291" smooth="yes"/>
      <point x="66" y="222" smooth="yes"/>
      <point x="42" y="87" type="curve" smooth="yes"/>
      <point x="37" y="58" smooth="yes"/>
      <point x="33" y="31" smooth="yes"/>
      <point x="33" y="6" type="curve" smooth="yes"/>
      <point x="33" y="-66" smooth="yes"/>
      <point x="64" y="-116" smooth="yes"/>
      <point x="164" y="-116" type="curve" smooth="yes"/>
      <point x="276" y="-116" smooth="yes"/>
      <point x="349" y="-61" smooth="yes"/>
    </contour>
    <contour>
      <point x="168" y="32" type="line" smooth="yes"/>
      <point x="171" y="49" smooth="yes"/>
      <point x="181" y="50" smooth="yes"/>
      <point x="199" y="50" type="curve" smooth="yes"/>
      <point x="220" y="50" type="line"/>
      <point x="211" y="-5" type="line" smooth="yes"/>
      <point x="208" y="-22" smooth="yes"/>
      <point x="198" y="-23" smooth="yes"/>
      <point x="180" y="-23" type="curve" smooth="yes"/>
      <point x="158" y="-23" type="line"/>
    </contour>
  </outline>
</glyph>
<glyph name="seveninferior" format="1">
  <advance width="400"/>
  <unicode hex="2087"/>
  <outline>
    <contour>
      <point x="370" y="197" type="line" name="hr00"/>
      <point x="385" y="282" type="line"/>
      <point x="89" y="282" type="line"/>
      <point x="78" y="162" type="line"/>
      <point x="210" y="164" type="line"/>
      <point x="62" y="-107" type="line"/>
      <point x="206" y="-107" type="line"/>
    </contour>
  </outline>
</glyph>
<glyph name="eightinferior" format="1">
  <advance width="400"/>
  <unicode hex="2088"/>
  <outline>
    <contour>
      <point x="237" y="293" type="curve" smooth="yes" name="hr00"/>
      <point x="153" y="293" smooth="yes"/>
      <point x="68" y="258" smooth="yes"/>
      <point x="68" y="142" type="curve" smooth="yes"/>
      <point x="68" y="120"/>
      <point x="73" y="101"/>
      <point x="85" y="88" type="curve"/>
      <point x="49" y="66" smooth="yes"/>
      <point x="25" y="22" smooth="yes"/>
      <point x="25" y="-24" type="curve" smooth="yes"/>
      <point x="25" y="-95" smooth="yes"/>
      <point x="87" y="-118" smooth="yes"/>
      <point x="165" y="-118" type="curve" smooth="yes"/>
      <point x="252" y="-118" smooth="yes"/>
      <point x="345" y="-86" smooth="yes"/>
      <point x="345" y="21" type="curve" smooth="yes"/>
      <point x="345" y="49"/>
      <point x="335" y="74"/>
      <point x="317" y="88" type="curve"/>
      <point x="344" y="110" smooth="yes"/>
      <point x="364" y="158" smooth="yes"/>
      <point x="364" y="201" type="curve" smooth="yes"/>
      <point x="364" y="270" smooth="yes"/>
      <point x="305" y="293" smooth="yes"/>
    </contour>
    <contour>
      <point x="214" y="16" type="line"/>
      <point x="209" y="-12" type="line" smooth="yes"/>
      <point x="205" y="-32" smooth="yes"/>
      <point x="196" y="-34" smooth="yes"/>
      <point x="174" y="-34" type="curve" smooth="yes"/>
      <point x="154" y="-34" type="line"/>
      <point x="167" y="40" type="line"/>
    </contour>
    <contour>
      <point x="187" y="157" type="line"/>
      <point x="192" y="184" type="line" smooth="yes"/>
      <point x="196" y="204" smooth="yes"/>
      <point x="205" y="206" smooth="yes"/>
      <point x="228" y="206" type="curve" smooth="yes"/>
      <point x="248" y="206" type="line"/>
      <point x="235" y="133" type="line"/>
    </contour>
  </outline>
</glyph>
<glyph name="nineinferior" format="1">
  <advance width="400"/>
  <unicode hex="2089"/>
  <outline>
    <contour>
      <point x="191" y="183" type="line" smooth="yes" name="hr00"/>
      <point x="194" y="200" smooth="yes"/>
      <point x="204" y="201" smooth="yes"/>
      <point x="222" y="201" type="curve" smooth="yes"/>
      <point x="243" y="201" type="line"/>
      <point x="233" y="146" type="line" smooth="yes"/>
      <point x="230" y="129" smooth="yes"/>
      <point x="221" y="128" smooth="yes"/>
      <point x="203" y="128" type="curve" smooth="yes"/>
      <point x="181" y="128" type="line"/>
    </contour>
    <contour>
      <point x="216" y="48" type="line"/>
      <point x="207" y="-4" type="line"/>
      <point x="190" y="-6" smooth="yes"/>
      <point x="175" y="-6" smooth="yes"/>
      <point x="160" y="-6" type="curve" smooth="yes"/>
      <point x="133" y="-6"/>
      <point x="90" y="-2"/>
      <point x="58" y="10" type="curve"/>
      <point x="21" y="-99" type="line"/>
      <point x="65" y="-111" smooth="yes"/>
      <point x="117" y="-116" smooth="yes"/>
      <point x="165" y="-116" type="curve" smooth="yes"/>
      <point x="289" y="-116" smooth="yes"/>
      <point x="335" y="-47" smooth="yes"/>
      <point x="357" y="76" type="curve" smooth="yes"/>
      <point x="363" y="111" smooth="yes"/>
      <point x="367" y="144" smooth="yes"/>
      <point x="367" y="172" type="curve" smooth="yes"/>
      <point x="367" y="244" smooth="yes"/>
      <point x="339" y="291" smooth="yes"/>
      <point x="237" y="291" type="curve" smooth="yes"/>
      <point x="125" y="291" smooth="yes"/>
      <point x="52" y="236" smooth="yes"/>
      <point x="52" y="124" type="curve" smooth="yes"/>
      <point x="52" y="51" smooth="yes"/>
      <point x="117" y="48" smooth="yes"/>
      <point x="194" y="48" type="curve" smooth="yes"/>
    </contour>
  </outline>
</glyph>
<glyph name="lira" format="1">
  <advance width="586"/>
  <unicode hex="20A4"/>
  <outline>
    <contour>
      <point x="341" y="428" type="line" name="hr00"/>
      <point x="353" y="473" smooth="yes"/>
      <point x="383" y="477" smooth="yes"/>
      <point x="419" y="477" type="curve" smooth="yes"/>
      <point x="512" y="477" type="line"/>
      <point x="566" y="622" type="line"/>
      <point x="525" y="632" smooth="yes"/>
      <point x="473" y="641" smooth="yes"/>
      <point x="392" y="641" type="curve" smooth="yes"/>
      <point x="273" y="641" smooth="yes"/>
      <point x="191" y="573" smooth="yes"/>
      <point x="154" y="443" type="curve" smooth="yes"/>
      <point x="66" y="135" type="line"/>
      <point x="13" y="100" type="line"/>
      <point x="-4" y="0" type="line"/>
      <point x="477" y="0" type="line"/>
      <point x="477" y="160" type="line"/>
      <point x="270" y="160" type="line"/>
    </contour>
    <component  base="equal" xScale="0.9" yScale="0.5" xOffset="-30" yOffset="160"/>
  </outline>
</glyph>
<glyph name="Euro" format="1">
  <advance width="563"/>
  <unicode hex="20AC"/>
  <outline>
    <contour>
      <point x="411" y="206" type="line" name="hr00"/>
      <point x="432" y="288" type="line"/>
      <point x="29" y="288" type="line"/>
      <point x="8" y="206" type="line"/>
      <point x="55" y="206" type="line"/>
      <point x="54" y="191" smooth="yes"/>
      <point x="53" y="178" smooth="yes"/>
      <point x="53" y="165" type="curve" smooth="yes"/>
      <point x="53" y="35" smooth="yes"/>
      <point x="115" y="-15" smooth="yes"/>
      <point x="283" y="-15" type="curve" smooth="yes"/>
      <point x="349" y="-15"/>
      <point x="398" y="-8"/>
      <point x="445" y="11" type="curve"/>
      <point x="465" y="169" type="line"/>
      <point x="423" y="154" smooth="yes"/>
      <point x="371" y="145" smooth="yes"/>
      <point x="321" y="145" type="curve" smooth="yes"/>
      <point x="298" y="145"/>
      <point x="274" y="147"/>
      <point x="247" y="153" type="curve"/>
      <point x="259" y="206" type="line"/>
    </contour>
    <contour>
      <point x="447" y="338" type="line"/>
      <point x="469" y="420" type="line"/>
      <point x="310" y="420" type="line"/>
      <point x="311" y="426" type="line" smooth="yes"/>
      <point x="321" y="471" smooth="yes"/>
      <point x="352" y="475" smooth="yes"/>
      <point x="383" y="475" type="curve" smooth="yes"/>
      <point x="511" y="475" type="line"/>
      <point x="564" y="621" type="line"/>
      <point x="520" y="633" smooth="yes"/>
      <point x="460" y="640" smooth="yes"/>
      <point x="426" y="640" type="curve" smooth="yes"/>
      <point x="244" y="640"/>
      <point x="157" y="578"/>
      <point x="106" y="420" type="curve"/>
      <point x="66" y="420" type="line"/>
      <point x="45" y="338" type="line"/>
    </contour>
  </outline>
</glyph>
<glyph name="trademark" format="1">
  <advance width="807"/>
  <unicode hex="2122"/>
  <outline>
    <contour>
      <point x="437" y="343" type="line" name="hr00"/>
      <point x="470" y="491" type="line"/>
      <point x="475" y="491" type="line"/>
      <point x="483" y="343" type="line"/>
      <point x="574" y="343" type="line"/>
      <point x="633" y="491" type="line"/>
      <point x="639" y="491" type="line"/>
      <point x="620" y="343" type="line"/>
      <point x="751" y="343" type="line"/>
      <point x="797" y="732" type="line"/>
      <point x="630" y="732" type="line"/>
      <point x="574" y="584" type="line"/>
      <point x="567" y="584" type="line"/>
      <point x="567" y="732" type="line"/>
      <point x="399" y="732" type="line"/>
      <point x="306" y="343" type="line"/>
    </contour>
    <contour>
      <point x="357" y="617" type="line"/>
      <point x="378" y="732" type="line"/>
      <point x="82" y="732" type="line"/>
      <point x="61" y="617" type="line"/>
      <point x="142" y="617" type="line"/>
      <point x="94" y="343" type="line"/>
      <point x="227" y="343" type="line"/>
      <point x="275" y="617" type="line"/>
    </contour>
  </outline>
</glyph>
<glyph name="f_f" format="1">
  <advance width="639"/>
  <unicode hex="FB00"/>
  <outline>
    <contour>
      <point x="316" y="542" type="line"/>
      <point x="385" y="542" type="line"/>
      <point x="434" y="650" type="line"/>
      <point x="394" y="668" smooth="yes"/>
      <point x="361" y="675" smooth="yes"/>
      <point x="324" y="675" type="curve" smooth="yes"/>
      <point x="220" y="675" smooth="yes"/>
      <point x="157" y="636" smooth="yes"/>
      <point x="136" y="560" type="curve" smooth="yes"/>
      <point x="119" y="500" type="line"/>
      <point x="71" y="500" type="line"/>
      <point x="48" y="370" type="line"/>
      <point x="96" y="370" type="line"/>
      <point x="31" y="0" type="line"/>
      <point x="221" y="0" type="line"/>
      <point x="286" y="370" type="line"/>
      <point x="387" y="370" type="line"/>
      <point x="322" y="0" type="line"/>
      <point x="512" y="0" type="line"/>
      <point x="577" y="370" type="line"/>
      <point x="634" y="370" type="line"/>
      <point x="657" y="500" type="line"/>
      <point x="600" y="500" type="line"/>
      <point x="607" y="542" type="line"/>
      <point x="684" y="534" type="line"/>
      <point x="718" y="665" type="line"/>
      <point x="680" y="671" smooth="yes"/>
      <point x="646" y="675" smooth="yes"/>
      <point x="615" y="675" type="curve" smooth="yes"/>
      <point x="523" y="675" smooth="yes"/>
      <point x="480" y="633" smooth="yes"/>
      <point x="446" y="560" type="curve" smooth="yes"/>
      <point x="404" y="470" type="line" name="hr01"/>
      <point x="303" y="470" type="line"/>
    </contour>
  </outline>
</glyph>
<glyph name="fi" format="1">
  <advance width="610"/>
  <unicode hex="FB01"/>
  <outline>
    <contour>
      <point x="321" y="0" type="line" name="hr00"/>
      <point x="511" y="0" type="line"/>
      <point x="603" y="525" type="line"/>
      <point x="442" y="500" type="line"/>
      <point x="309" y="500" type="line"/>
      <point x="316" y="542" type="line"/>
      <point x="426" y="542" type="line"/>
      <point x="472" y="650" type="line"/>
      <point x="417" y="668" smooth="yes"/>
      <point x="373" y="675" smooth="yes"/>
      <point x="324" y="675" type="curve" smooth="yes"/>
      <point x="222" y="675" smooth="yes"/>
      <point x="158" y="636" smooth="yes"/>
      <point x="136" y="560" type="curve" smooth="yes"/>
      <point x="119" y="500" type="line"/>
      <point x="72" y="500" type="line"/>
      <point x="49" y="370" type="line"/>
      <point x="96" y="370" type="line"/>
      <point x="31" y="0" type="line"/>
      <point x="221" y="0" type="line"/>
      <point x="286" y="370" type="line"/>
      <point x="386" y="370" type="line"/>
    </contour>
  </outline>
</glyph>
<glyph name="fl" format="1">
  <advance width="619"/>
  <unicode hex="FB02"/>
  <outline>
    <contour>
      <point x="316" y="542" type="line"/>
      <point x="417" y="542" type="line"/>
      <point x="338" y="94" type="line" smooth="yes"/>
      <point x="337" y="86" smooth="yes"/>
      <point x="336" y="79" smooth="yes"/>
      <point x="336" y="73" type="curve" smooth="yes"/>
      <point x="336" y="-7"/>
      <point x="433" y="-11"/>
      <point x="548" y="-11" type="curve"/>
      <point x="581" y="136" type="line"/>
      <point x="567" y="137"/>
      <point x="551" y="140"/>
      <point x="537" y="143" type="curve"/>
      <point x="629" y="665" type="line"/>
      <point x="465" y="650" type="line"/>
      <point x="410" y="668" smooth="yes"/>
      <point x="373" y="675" smooth="yes"/>
      <point x="324" y="675" type="curve" smooth="yes"/>
      <point x="222" y="675" smooth="yes"/>
      <point x="158" y="636" smooth="yes"/>
      <point x="136" y="560" type="curve" smooth="yes"/>
      <point x="119" y="500" type="line"/>
      <point x="72" y="500" type="line"/>
      <point x="49" y="370" type="line"/>
      <point x="96" y="370" type="line"/>
      <point x="31" y="0" type="line" name="hr01"/>
      <point x="221" y="0" type="line"/>
      <point x="286" y="370" type="line"/>
      <point x="343" y="370" type="line"/>
      <point x="361" y="470" type="line"/>
      <point x="304" y="470" type="line"/>
    </contour>
  </outline>
</glyph>
<glyph name="f_f_i" format="1">
  <advance width="900"/>
  <unicode hex="FB03"/>
  <outline>
    <contour>
      <point x="316" y="542" type="line"/>
      <point x="385" y="542" type="line"/>
      <point x="434" y="650" type="line"/>
      <point x="394" y="668" smooth="yes"/>
      <point x="361" y="675" smooth="yes"/>
      <point x="324" y="675" type="curve" smooth="yes"/>
      <point x="220" y="675" smooth="yes"/>
      <point x="157" y="636" smooth="yes"/>
      <point x="136" y="560" type="curve" smooth="yes"/>
      <point x="119" y="500" type="line"/>
      <point x="71" y="500" type="line"/>
      <point x="48" y="370" type="line"/>
      <point x="96" y="370" type="line"/>
      <point x="31" y="0" type="line"/>
      <point x="221" y="0" type="line"/>
      <point x="286" y="370" type="line"/>
      <point x="385" y="370" type="line"/>
      <point x="320" y="0" type="line"/>
      <point x="510" y="0" type="line"/>
      <point x="575" y="370" type="line"/>
      <point x="676" y="370" type="line"/>
      <point x="611" y="0" type="line"/>
      <point x="801" y="0" type="line"/>
      <point x="893" y="525" type="line"/>
      <point x="731" y="500" type="line"/>
      <point x="598" y="500" type="line"/>
      <point x="605" y="542" type="line"/>
      <point x="713" y="542" type="line"/>
      <point x="761" y="650" type="line"/>
      <point x="706" y="668" smooth="yes"/>
      <point x="662" y="675" smooth="yes"/>
      <point x="613" y="675" type="curve" smooth="yes"/>
      <point x="521" y="675" smooth="yes"/>
      <point x="478" y="633" smooth="yes"/>
      <point x="444" y="560" type="curve" smooth="yes"/>
      <point x="402" y="470" type="line" name="hr01"/>
      <point x="303" y="470" type="line"/>
    </contour>
  </outline>
</glyph>
<glyph name="f_f_l" format="1">
  <advance width="908"/>
  <unicode hex="FB04"/>
  <outline>
    <contour>
      <point x="385" y="370" type="line"/>
      <point x="320" y="0" type="line"/>
      <point x="510" y="0" type="line"/>
      <point x="575" y="370" type="line"/>
      <point x="632" y="370" type="line"/>
      <point x="650" y="474" type="line"/>
      <point x="593" y="474" type="line"/>
      <point x="605" y="542" type="line"/>
      <point x="706" y="542" type="line"/>
      <point x="627" y="94" type="line" smooth="yes"/>
      <point x="626" y="86" smooth="yes"/>
      <point x="625" y="79" smooth="yes"/>
      <point x="625" y="73" type="curve" smooth="yes"/>
      <point x="625" y="-7"/>
      <point x="723" y="-11"/>
      <point x="837" y="-11" type="curve" name="hr01"/>
      <point x="871" y="136" type="line"/>
      <point x="857" y="137"/>
      <point x="841" y="140"/>
      <point x="826" y="143" type="curve"/>
      <point x="918" y="665" type="line"/>
      <point x="755" y="650" type="line"/>
      <point x="700" y="668" smooth="yes"/>
      <point x="662" y="675" smooth="yes"/>
      <point x="613" y="675" type="curve" smooth="yes"/>
      <point x="521" y="675" smooth="yes"/>
      <point x="479" y="633" smooth="yes"/>
      <point x="444" y="560" type="curve" smooth="yes"/>
      <point x="403" y="474" type="line"/>
      <point x="304" y="474" type="line"/>
      <point x="316" y="542" type="line"/>
      <point x="385" y="542" type="line"/>
      <point x="434" y="650" type="line"/>
      <point x="394" y="668" smooth="yes"/>
      <point x="361" y="675" smooth="yes"/>
      <point x="324" y="675" type="curve" smooth="yes"/>
      <point x="220" y="675" smooth="yes"/>
      <point x="157" y="636" smooth="yes"/>
      <point x="136" y="560" type="curve" smooth="yes"/>
      <point x="119" y="500" type="line"/>
      <point x="71" y="500" type="line"/>
      <point x="48" y="370" type="line"/>
      <point x="96" y="370" type="line"/>
      <point x="31" y="0" type="line" name="hr02"/>
      <point x="221" y="0" type="line"/>
      <point x="286" y="370" type="line"/>
    </contour>
  </outline>
</glyph>
<glyph name="acute.case" format="1">
  <advance width="200"/>
  <outline>
    <contour>
      <point x="170" y="699" type="line" smooth="yes" name="hr00"/>
      <point x="185" y="702"/>
      <point x="189" y="705"/>
      <point x="196" y="711" type="curve"/>
      <point x="240" y="749" smooth="yes"/>
      <point x="241" y="750" smooth="yes"/>
      <point x="241" y="750" type="curve" smooth="yes"/>
      <point x="243" y="753" smooth="yes"/>
      <point x="245" y="756" smooth="yes"/>
      <point x="245" y="761" type="curve" smooth="yes"/>
      <point x="245" y="766"/>
      <point x="242" y="772"/>
      <point x="236" y="779" type="curve"/>
      <point x="173" y="853" type="line"/>
      <point x="168" y="859" smooth="yes"/>
      <point x="162" y="864" smooth="yes"/>
      <point x="155" y="864" type="curve" smooth="yes"/>
      <point x="151" y="864"/>
      <point x="147" y="862"/>
      <point x="144" y="860" type="curve"/>
      <point x="-45" y="721" type="line"/>
      <point x="-4" y="664" type="line"/>
    </contour>
  </outline>
</glyph>
<glyph name="breve.case" format="1">
  <advance width="200"/>
  <outline>
    <contour>
      <point x="51" y="829" type="curve" name="hr00"/>
      <point x="-43" y="814" type="line"/>
      <point x="-41" y="721" smooth="yes"/>
      <point x="12" y="675" smooth="yes"/>
      <point x="75" y="675" type="curve" smooth="yes"/>
      <point x="139" y="675"/>
      <point x="209" y="721"/>
      <point x="244" y="814" type="curve"/>
      <point x="156" y="829" type="line"/>
      <point x="142" y="800" smooth="yes"/>
      <point x="118" y="784" smooth="yes"/>
      <point x="95" y="784" type="curve" smooth="yes"/>
      <point x="73" y="784"/>
      <point x="55" y="800"/>
    </contour>
  </outline>
</glyph>
<glyph name="caron.case" format="1">
  <advance width="200"/>
  <outline>
    <contour>
      <point x="96" y="662" type="line" smooth="yes" name="hr00"/>
      <point x="103" y="662" smooth="yes"/>
      <point x="108" y="666" smooth="yes"/>
      <point x="113" y="671" type="curve" smooth="yes"/>
      <point x="246" y="816" type="line"/>
      <point x="198" y="865" type="line"/>
      <point x="98" y="802" type="line"/>
      <point x="21" y="865" type="line"/>
      <point x="-45" y="816" type="line"/>
      <point x="37" y="671" type="line"/>
      <point x="41" y="666" smooth="yes"/>
      <point x="44" y="662" smooth="yes"/>
      <point x="51" y="662" type="curve" smooth="yes"/>
    </contour>
  </outline>
</glyph>
<glyph name="circumflex.case" format="1">
  <advance width="200"/>
  <outline>
    <contour>
      <point x="105" y="865" type="line" smooth="yes" name="hr00"/>
      <point x="98" y="865" smooth="yes"/>
      <point x="92" y="862" smooth="yes"/>
      <point x="87" y="856" type="curve" smooth="yes"/>
      <point x="-45" y="711" type="line"/>
      <point x="3" y="662" type="line"/>
      <point x="102" y="725" type="line"/>
      <point x="180" y="662" type="line"/>
      <point x="246" y="711" type="line"/>
      <point x="163" y="856" type="line" smooth="yes"/>
      <point x="160" y="861" smooth="yes"/>
      <point x="157" y="865" smooth="yes"/>
      <point x="150" y="865" type="curve" smooth="yes"/>
    </contour>
  </outline>
</glyph>
<glyph name="commaaccent" format="1">
  <advance width="277"/>
  <outline>
    <contour>
      <point x="34" y="-144" type="curve" smooth="yes" name="hr00"/>
      <point x="32" y="-152" smooth="yes"/>
      <point x="32" y="-160" smooth="yes"/>
      <point x="32" y="-167" type="curve" smooth="yes"/>
      <point x="32" y="-192"/>
      <point x="44" y="-207"/>
      <point x="81" y="-213" type="curve"/>
      <point x="40" y="-317" type="line"/>
      <point x="106" y="-339" type="line"/>
      <point x="162" y="-255" type="line" smooth="yes"/>
      <point x="188" y="-216" smooth="yes"/>
      <point x="215" y="-165" smooth="yes"/>
      <point x="215" y="-104" type="curve" smooth="yes"/>
      <point x="215" y="-64" smooth="yes"/>
      <point x="196" y="-47" smooth="yes"/>
      <point x="140" y="-47" type="curve" smooth="yes"/>
      <point x="67" y="-47" smooth="yes"/>
      <point x="46" y="-75" smooth="yes"/>
    </contour>
  </outline>
</glyph>
<glyph name="croatbar" format="1">
  <advance width="343"/>
  <outline>
    <contour>
      <point x="0" y="539" type="line" name="hr00"/>
      <point x="343" y="539" type="line"/>
      <point x="359" y="622" type="line"/>
      <point x="16" y="622" type="line"/>
    </contour>
  </outline>
</glyph>
